%TF.GenerationSoftware,KiCad,Pcbnew,(5.99.0-1252-g0c2d08192)*%
%TF.CreationDate,2020-04-08T11:52:56+03:00*%
%TF.ProjectId,orkman,6f726b6d-616e-42e6-9b69-6361645f7063,rev?*%
%TF.SameCoordinates,Original*%
%TF.FileFunction,Legend,Top*%
%TF.FilePolarity,Positive*%
%FSLAX46Y46*%
G04 Gerber Fmt 4.6, Leading zero omitted, Abs format (unit mm)*
G04 Created by KiCad (PCBNEW (5.99.0-1252-g0c2d08192)) date 2020-04-08 11:52:56*
%MOMM*%
%LPD*%
G01*
G04 APERTURE LIST*
%ADD10C,0.127000*%
%ADD11C,0.120000*%
%ADD12C,0.150000*%
%ADD13C,0.048768*%
G04 APERTURE END LIST*
D10*
%TO.C,J2*%
X137096500Y-58547000D02*
X137096500Y-57277000D01*
X132016500Y-58547000D02*
X132016500Y-57277000D01*
X137096500Y-58547000D02*
X132016500Y-58547000D01*
X137096500Y-57277000D02*
X137096500Y-54737000D01*
X132016500Y-57277000D02*
X132016500Y-54737000D01*
X137096500Y-57277000D02*
X132016500Y-57277000D01*
X132016500Y-54737000D02*
X137096500Y-54737000D01*
D11*
%TO.C,U1*%
X135620000Y-75505000D02*
G75*
G02*
X133620000Y-75505000I-1000000J0D01*
G01*
X133620000Y-75505000D02*
X132370000Y-75505000D01*
X132370000Y-75505000D02*
X132370000Y-85785000D01*
X132370000Y-85785000D02*
X136870000Y-85785000D01*
X136870000Y-85785000D02*
X136870000Y-75505000D01*
X136870000Y-75505000D02*
X135620000Y-75505000D01*
X129370000Y-75445000D02*
X129370000Y-85845000D01*
X129370000Y-85845000D02*
X139870000Y-85845000D01*
X139870000Y-85845000D02*
X139870000Y-75445000D01*
X139870000Y-75445000D02*
X129370000Y-75445000D01*
D10*
%TO.C,RV2*%
X131381500Y-65420000D02*
X123253500Y-65420000D01*
X123253500Y-65420000D02*
X123253500Y-67960000D01*
X123253500Y-67960000D02*
X131381500Y-67960000D01*
X131381500Y-67960000D02*
X131381500Y-65420000D01*
%TO.C,RV1*%
X145859500Y-65420000D02*
X137731500Y-65420000D01*
X137731500Y-65420000D02*
X137731500Y-67960000D01*
X137731500Y-67960000D02*
X145859500Y-67960000D01*
X145859500Y-67960000D02*
X145859500Y-65420000D01*
D11*
%TO.C,R9*%
X131387600Y-74217200D02*
X131387600Y-73887200D01*
X124847600Y-74217200D02*
X131387600Y-74217200D01*
X124847600Y-73887200D02*
X124847600Y-74217200D01*
X131387600Y-71477200D02*
X131387600Y-71807200D01*
X124847600Y-71477200D02*
X131387600Y-71477200D01*
X124847600Y-71807200D02*
X124847600Y-71477200D01*
%TO.C,R8*%
X124847600Y-68429200D02*
X124847600Y-68759200D01*
X131387600Y-68429200D02*
X124847600Y-68429200D01*
X131387600Y-68759200D02*
X131387600Y-68429200D01*
X124847600Y-71169200D02*
X124847600Y-70839200D01*
X131387600Y-71169200D02*
X124847600Y-71169200D01*
X131387600Y-70839200D02*
X131387600Y-71169200D01*
%TO.C,R7*%
X144367000Y-71220000D02*
X144367000Y-70890000D01*
X137827000Y-71220000D02*
X144367000Y-71220000D01*
X137827000Y-70890000D02*
X137827000Y-71220000D01*
X144367000Y-68480000D02*
X144367000Y-68810000D01*
X137827000Y-68480000D02*
X144367000Y-68480000D01*
X137827000Y-68810000D02*
X137827000Y-68480000D01*
%TO.C,R6*%
X146145000Y-89063500D02*
X146145000Y-88733500D01*
X139605000Y-89063500D02*
X146145000Y-89063500D01*
X139605000Y-88733500D02*
X139605000Y-89063500D01*
X146145000Y-86323500D02*
X146145000Y-86653500D01*
X139605000Y-86323500D02*
X146145000Y-86323500D01*
X139605000Y-86653500D02*
X139605000Y-86323500D01*
%TO.C,R5*%
X126020500Y-76105000D02*
X125690500Y-76105000D01*
X126020500Y-82645000D02*
X126020500Y-76105000D01*
X125690500Y-82645000D02*
X126020500Y-82645000D01*
X123280500Y-76105000D02*
X123610500Y-76105000D01*
X123280500Y-82645000D02*
X123280500Y-76105000D01*
X123610500Y-82645000D02*
X123280500Y-82645000D01*
%TO.C,R4*%
X126341200Y-82645000D02*
X126671200Y-82645000D01*
X126341200Y-76105000D02*
X126341200Y-82645000D01*
X126671200Y-76105000D02*
X126341200Y-76105000D01*
X129081200Y-82645000D02*
X128751200Y-82645000D01*
X129081200Y-76105000D02*
X129081200Y-82645000D01*
X128751200Y-76105000D02*
X129081200Y-76105000D01*
%TO.C,R3*%
X142911500Y-76041500D02*
X142581500Y-76041500D01*
X142911500Y-82581500D02*
X142911500Y-76041500D01*
X142581500Y-82581500D02*
X142911500Y-82581500D01*
X140171500Y-76041500D02*
X140501500Y-76041500D01*
X140171500Y-82581500D02*
X140171500Y-76041500D01*
X140501500Y-82581500D02*
X140171500Y-82581500D01*
%TO.C,R2*%
X143219500Y-82581500D02*
X143549500Y-82581500D01*
X143219500Y-76041500D02*
X143219500Y-82581500D01*
X143549500Y-76041500D02*
X143219500Y-76041500D01*
X145959500Y-82581500D02*
X145629500Y-82581500D01*
X145959500Y-76041500D02*
X145959500Y-82581500D01*
X145629500Y-76041500D02*
X145959500Y-76041500D01*
%TO.C,R1*%
X146145000Y-92111500D02*
X146145000Y-91781500D01*
X139605000Y-92111500D02*
X146145000Y-92111500D01*
X139605000Y-91781500D02*
X139605000Y-92111500D01*
X146145000Y-89371500D02*
X146145000Y-89701500D01*
X139605000Y-89371500D02*
X146145000Y-89371500D01*
X139605000Y-89701500D02*
X139605000Y-89371500D01*
D10*
%TO.C,J1*%
X129540000Y-93535500D02*
X139700000Y-93535500D01*
X139700000Y-96075500D02*
X129540000Y-96075500D01*
X129540000Y-96075500D02*
X129540000Y-93535500D01*
X139700000Y-96075500D02*
X139700000Y-93535500D01*
X139700000Y-92265500D02*
X129540000Y-92265500D01*
X129540000Y-93535500D02*
X129540000Y-92265500D01*
X139700000Y-93535500D02*
X139700000Y-92265500D01*
D11*
%TO.C,D4*%
X133150000Y-70665000D02*
X136090000Y-70665000D01*
X136090000Y-70665000D02*
X136090000Y-65225000D01*
X136090000Y-65225000D02*
X133150000Y-65225000D01*
X133150000Y-65225000D02*
X133150000Y-70665000D01*
X134620000Y-71685000D02*
X134620000Y-70665000D01*
X134620000Y-64205000D02*
X134620000Y-65225000D01*
X133150000Y-69765000D02*
X136090000Y-69765000D01*
X133150000Y-69645000D02*
X136090000Y-69645000D01*
X133150000Y-69885000D02*
X136090000Y-69885000D01*
%TO.C,D2*%
X128720000Y-87376462D02*
G75*
G03*
X123170000Y-85831170I-2990000J462D01*
G01*
X128720000Y-87375538D02*
G75*
G02*
X123170000Y-88920830I-2990000J-462D01*
G01*
X128230000Y-87376000D02*
G75*
G03*
X128230000Y-87376000I-2500000J0D01*
G01*
X123170000Y-85831000D02*
X123170000Y-88921000D01*
%TO.C,D1*%
X128720000Y-93726462D02*
G75*
G03*
X123170000Y-92181170I-2990000J462D01*
G01*
X128720000Y-93725538D02*
G75*
G02*
X123170000Y-95270830I-2990000J-462D01*
G01*
X128230000Y-93726000D02*
G75*
G03*
X128230000Y-93726000I-2500000J0D01*
G01*
X123170000Y-92181000D02*
X123170000Y-95271000D01*
%TO.C,C7*%
X130607500Y-61531500D02*
G75*
G03*
X130607500Y-61531500I-3270000J0D01*
G01*
X127337500Y-64761500D02*
X127337500Y-58301500D01*
X127297500Y-64761500D02*
X127297500Y-58301500D01*
X127257500Y-64761500D02*
X127257500Y-58301500D01*
X127217500Y-64759500D02*
X127217500Y-58303500D01*
X127177500Y-64758500D02*
X127177500Y-58304500D01*
X127137500Y-64755500D02*
X127137500Y-58307500D01*
X127097500Y-64753500D02*
X127097500Y-62571500D01*
X127097500Y-60491500D02*
X127097500Y-58309500D01*
X127057500Y-64749500D02*
X127057500Y-62571500D01*
X127057500Y-60491500D02*
X127057500Y-58313500D01*
X127017500Y-64746500D02*
X127017500Y-62571500D01*
X127017500Y-60491500D02*
X127017500Y-58316500D01*
X126977500Y-64742500D02*
X126977500Y-62571500D01*
X126977500Y-60491500D02*
X126977500Y-58320500D01*
X126937500Y-64737500D02*
X126937500Y-62571500D01*
X126937500Y-60491500D02*
X126937500Y-58325500D01*
X126897500Y-64732500D02*
X126897500Y-62571500D01*
X126897500Y-60491500D02*
X126897500Y-58330500D01*
X126857500Y-64726500D02*
X126857500Y-62571500D01*
X126857500Y-60491500D02*
X126857500Y-58336500D01*
X126817500Y-64720500D02*
X126817500Y-62571500D01*
X126817500Y-60491500D02*
X126817500Y-58342500D01*
X126777500Y-64713500D02*
X126777500Y-62571500D01*
X126777500Y-60491500D02*
X126777500Y-58349500D01*
X126737500Y-64706500D02*
X126737500Y-62571500D01*
X126737500Y-60491500D02*
X126737500Y-58356500D01*
X126697500Y-64698500D02*
X126697500Y-62571500D01*
X126697500Y-60491500D02*
X126697500Y-58364500D01*
X126657500Y-64690500D02*
X126657500Y-62571500D01*
X126657500Y-60491500D02*
X126657500Y-58372500D01*
X126616500Y-64681500D02*
X126616500Y-62571500D01*
X126616500Y-60491500D02*
X126616500Y-58381500D01*
X126576500Y-64672500D02*
X126576500Y-62571500D01*
X126576500Y-60491500D02*
X126576500Y-58390500D01*
X126536500Y-64662500D02*
X126536500Y-62571500D01*
X126536500Y-60491500D02*
X126536500Y-58400500D01*
X126496500Y-64652500D02*
X126496500Y-62571500D01*
X126496500Y-60491500D02*
X126496500Y-58410500D01*
X126456500Y-64641500D02*
X126456500Y-62571500D01*
X126456500Y-60491500D02*
X126456500Y-58421500D01*
X126416500Y-64629500D02*
X126416500Y-62571500D01*
X126416500Y-60491500D02*
X126416500Y-58433500D01*
X126376500Y-64617500D02*
X126376500Y-62571500D01*
X126376500Y-60491500D02*
X126376500Y-58445500D01*
X126336500Y-64605500D02*
X126336500Y-62571500D01*
X126336500Y-60491500D02*
X126336500Y-58457500D01*
X126296500Y-64592500D02*
X126296500Y-62571500D01*
X126296500Y-60491500D02*
X126296500Y-58470500D01*
X126256500Y-64578500D02*
X126256500Y-62571500D01*
X126256500Y-60491500D02*
X126256500Y-58484500D01*
X126216500Y-64564500D02*
X126216500Y-62571500D01*
X126216500Y-60491500D02*
X126216500Y-58498500D01*
X126176500Y-64549500D02*
X126176500Y-62571500D01*
X126176500Y-60491500D02*
X126176500Y-58513500D01*
X126136500Y-64533500D02*
X126136500Y-62571500D01*
X126136500Y-60491500D02*
X126136500Y-58529500D01*
X126096500Y-64517500D02*
X126096500Y-62571500D01*
X126096500Y-60491500D02*
X126096500Y-58545500D01*
X126056500Y-64501500D02*
X126056500Y-62571500D01*
X126056500Y-60491500D02*
X126056500Y-58561500D01*
X126016500Y-64483500D02*
X126016500Y-62571500D01*
X126016500Y-60491500D02*
X126016500Y-58579500D01*
X125976500Y-64465500D02*
X125976500Y-62571500D01*
X125976500Y-60491500D02*
X125976500Y-58597500D01*
X125936500Y-64447500D02*
X125936500Y-62571500D01*
X125936500Y-60491500D02*
X125936500Y-58615500D01*
X125896500Y-64427500D02*
X125896500Y-62571500D01*
X125896500Y-60491500D02*
X125896500Y-58635500D01*
X125856500Y-64407500D02*
X125856500Y-62571500D01*
X125856500Y-60491500D02*
X125856500Y-58655500D01*
X125816500Y-64387500D02*
X125816500Y-62571500D01*
X125816500Y-60491500D02*
X125816500Y-58675500D01*
X125776500Y-64365500D02*
X125776500Y-62571500D01*
X125776500Y-60491500D02*
X125776500Y-58697500D01*
X125736500Y-64343500D02*
X125736500Y-62571500D01*
X125736500Y-60491500D02*
X125736500Y-58719500D01*
X125696500Y-64321500D02*
X125696500Y-62571500D01*
X125696500Y-60491500D02*
X125696500Y-58741500D01*
X125656500Y-64297500D02*
X125656500Y-62571500D01*
X125656500Y-60491500D02*
X125656500Y-58765500D01*
X125616500Y-64273500D02*
X125616500Y-62571500D01*
X125616500Y-60491500D02*
X125616500Y-58789500D01*
X125576500Y-64247500D02*
X125576500Y-62571500D01*
X125576500Y-60491500D02*
X125576500Y-58815500D01*
X125536500Y-64221500D02*
X125536500Y-62571500D01*
X125536500Y-60491500D02*
X125536500Y-58841500D01*
X125496500Y-64195500D02*
X125496500Y-62571500D01*
X125496500Y-60491500D02*
X125496500Y-58867500D01*
X125456500Y-64167500D02*
X125456500Y-62571500D01*
X125456500Y-60491500D02*
X125456500Y-58895500D01*
X125416500Y-64138500D02*
X125416500Y-62571500D01*
X125416500Y-60491500D02*
X125416500Y-58924500D01*
X125376500Y-64109500D02*
X125376500Y-62571500D01*
X125376500Y-60491500D02*
X125376500Y-58953500D01*
X125336500Y-64079500D02*
X125336500Y-62571500D01*
X125336500Y-60491500D02*
X125336500Y-58983500D01*
X125296500Y-64047500D02*
X125296500Y-62571500D01*
X125296500Y-60491500D02*
X125296500Y-59015500D01*
X125256500Y-64015500D02*
X125256500Y-62571500D01*
X125256500Y-60491500D02*
X125256500Y-59047500D01*
X125216500Y-63981500D02*
X125216500Y-62571500D01*
X125216500Y-60491500D02*
X125216500Y-59081500D01*
X125176500Y-63947500D02*
X125176500Y-62571500D01*
X125176500Y-60491500D02*
X125176500Y-59115500D01*
X125136500Y-63911500D02*
X125136500Y-62571500D01*
X125136500Y-60491500D02*
X125136500Y-59151500D01*
X125096500Y-63874500D02*
X125096500Y-62571500D01*
X125096500Y-60491500D02*
X125096500Y-59188500D01*
X125056500Y-63836500D02*
X125056500Y-62571500D01*
X125056500Y-60491500D02*
X125056500Y-59226500D01*
X125016500Y-63796500D02*
X125016500Y-59266500D01*
X124976500Y-63755500D02*
X124976500Y-59307500D01*
X124936500Y-63713500D02*
X124936500Y-59349500D01*
X124896500Y-63668500D02*
X124896500Y-59394500D01*
X124856500Y-63623500D02*
X124856500Y-59439500D01*
X124816500Y-63575500D02*
X124816500Y-59487500D01*
X124776500Y-63526500D02*
X124776500Y-59536500D01*
X124736500Y-63475500D02*
X124736500Y-59587500D01*
X124696500Y-63421500D02*
X124696500Y-59641500D01*
X124656500Y-63365500D02*
X124656500Y-59697500D01*
X124616500Y-63307500D02*
X124616500Y-59755500D01*
X124576500Y-63245500D02*
X124576500Y-59817500D01*
X124536500Y-63181500D02*
X124536500Y-59881500D01*
X124496500Y-63112500D02*
X124496500Y-59950500D01*
X124456500Y-63040500D02*
X124456500Y-60022500D01*
X124416500Y-62963500D02*
X124416500Y-60099500D01*
X124376500Y-62881500D02*
X124376500Y-60181500D01*
X124336500Y-62793500D02*
X124336500Y-60269500D01*
X124296500Y-62696500D02*
X124296500Y-60366500D01*
X124256500Y-62590500D02*
X124256500Y-60472500D01*
X124216500Y-62471500D02*
X124216500Y-60591500D01*
X124176500Y-62333500D02*
X124176500Y-60729500D01*
X124136500Y-62164500D02*
X124136500Y-60898500D01*
X124096500Y-61933500D02*
X124096500Y-61129500D01*
X130837741Y-63370500D02*
X130207741Y-63370500D01*
X130522741Y-63685500D02*
X130522741Y-63055500D01*
%TO.C,C6*%
X145085500Y-61595000D02*
G75*
G03*
X145085500Y-61595000I-3270000J0D01*
G01*
X141815500Y-64825000D02*
X141815500Y-58365000D01*
X141775500Y-64825000D02*
X141775500Y-58365000D01*
X141735500Y-64825000D02*
X141735500Y-58365000D01*
X141695500Y-64823000D02*
X141695500Y-58367000D01*
X141655500Y-64822000D02*
X141655500Y-58368000D01*
X141615500Y-64819000D02*
X141615500Y-58371000D01*
X141575500Y-64817000D02*
X141575500Y-62635000D01*
X141575500Y-60555000D02*
X141575500Y-58373000D01*
X141535500Y-64813000D02*
X141535500Y-62635000D01*
X141535500Y-60555000D02*
X141535500Y-58377000D01*
X141495500Y-64810000D02*
X141495500Y-62635000D01*
X141495500Y-60555000D02*
X141495500Y-58380000D01*
X141455500Y-64806000D02*
X141455500Y-62635000D01*
X141455500Y-60555000D02*
X141455500Y-58384000D01*
X141415500Y-64801000D02*
X141415500Y-62635000D01*
X141415500Y-60555000D02*
X141415500Y-58389000D01*
X141375500Y-64796000D02*
X141375500Y-62635000D01*
X141375500Y-60555000D02*
X141375500Y-58394000D01*
X141335500Y-64790000D02*
X141335500Y-62635000D01*
X141335500Y-60555000D02*
X141335500Y-58400000D01*
X141295500Y-64784000D02*
X141295500Y-62635000D01*
X141295500Y-60555000D02*
X141295500Y-58406000D01*
X141255500Y-64777000D02*
X141255500Y-62635000D01*
X141255500Y-60555000D02*
X141255500Y-58413000D01*
X141215500Y-64770000D02*
X141215500Y-62635000D01*
X141215500Y-60555000D02*
X141215500Y-58420000D01*
X141175500Y-64762000D02*
X141175500Y-62635000D01*
X141175500Y-60555000D02*
X141175500Y-58428000D01*
X141135500Y-64754000D02*
X141135500Y-62635000D01*
X141135500Y-60555000D02*
X141135500Y-58436000D01*
X141094500Y-64745000D02*
X141094500Y-62635000D01*
X141094500Y-60555000D02*
X141094500Y-58445000D01*
X141054500Y-64736000D02*
X141054500Y-62635000D01*
X141054500Y-60555000D02*
X141054500Y-58454000D01*
X141014500Y-64726000D02*
X141014500Y-62635000D01*
X141014500Y-60555000D02*
X141014500Y-58464000D01*
X140974500Y-64716000D02*
X140974500Y-62635000D01*
X140974500Y-60555000D02*
X140974500Y-58474000D01*
X140934500Y-64705000D02*
X140934500Y-62635000D01*
X140934500Y-60555000D02*
X140934500Y-58485000D01*
X140894500Y-64693000D02*
X140894500Y-62635000D01*
X140894500Y-60555000D02*
X140894500Y-58497000D01*
X140854500Y-64681000D02*
X140854500Y-62635000D01*
X140854500Y-60555000D02*
X140854500Y-58509000D01*
X140814500Y-64669000D02*
X140814500Y-62635000D01*
X140814500Y-60555000D02*
X140814500Y-58521000D01*
X140774500Y-64656000D02*
X140774500Y-62635000D01*
X140774500Y-60555000D02*
X140774500Y-58534000D01*
X140734500Y-64642000D02*
X140734500Y-62635000D01*
X140734500Y-60555000D02*
X140734500Y-58548000D01*
X140694500Y-64628000D02*
X140694500Y-62635000D01*
X140694500Y-60555000D02*
X140694500Y-58562000D01*
X140654500Y-64613000D02*
X140654500Y-62635000D01*
X140654500Y-60555000D02*
X140654500Y-58577000D01*
X140614500Y-64597000D02*
X140614500Y-62635000D01*
X140614500Y-60555000D02*
X140614500Y-58593000D01*
X140574500Y-64581000D02*
X140574500Y-62635000D01*
X140574500Y-60555000D02*
X140574500Y-58609000D01*
X140534500Y-64565000D02*
X140534500Y-62635000D01*
X140534500Y-60555000D02*
X140534500Y-58625000D01*
X140494500Y-64547000D02*
X140494500Y-62635000D01*
X140494500Y-60555000D02*
X140494500Y-58643000D01*
X140454500Y-64529000D02*
X140454500Y-62635000D01*
X140454500Y-60555000D02*
X140454500Y-58661000D01*
X140414500Y-64511000D02*
X140414500Y-62635000D01*
X140414500Y-60555000D02*
X140414500Y-58679000D01*
X140374500Y-64491000D02*
X140374500Y-62635000D01*
X140374500Y-60555000D02*
X140374500Y-58699000D01*
X140334500Y-64471000D02*
X140334500Y-62635000D01*
X140334500Y-60555000D02*
X140334500Y-58719000D01*
X140294500Y-64451000D02*
X140294500Y-62635000D01*
X140294500Y-60555000D02*
X140294500Y-58739000D01*
X140254500Y-64429000D02*
X140254500Y-62635000D01*
X140254500Y-60555000D02*
X140254500Y-58761000D01*
X140214500Y-64407000D02*
X140214500Y-62635000D01*
X140214500Y-60555000D02*
X140214500Y-58783000D01*
X140174500Y-64385000D02*
X140174500Y-62635000D01*
X140174500Y-60555000D02*
X140174500Y-58805000D01*
X140134500Y-64361000D02*
X140134500Y-62635000D01*
X140134500Y-60555000D02*
X140134500Y-58829000D01*
X140094500Y-64337000D02*
X140094500Y-62635000D01*
X140094500Y-60555000D02*
X140094500Y-58853000D01*
X140054500Y-64311000D02*
X140054500Y-62635000D01*
X140054500Y-60555000D02*
X140054500Y-58879000D01*
X140014500Y-64285000D02*
X140014500Y-62635000D01*
X140014500Y-60555000D02*
X140014500Y-58905000D01*
X139974500Y-64259000D02*
X139974500Y-62635000D01*
X139974500Y-60555000D02*
X139974500Y-58931000D01*
X139934500Y-64231000D02*
X139934500Y-62635000D01*
X139934500Y-60555000D02*
X139934500Y-58959000D01*
X139894500Y-64202000D02*
X139894500Y-62635000D01*
X139894500Y-60555000D02*
X139894500Y-58988000D01*
X139854500Y-64173000D02*
X139854500Y-62635000D01*
X139854500Y-60555000D02*
X139854500Y-59017000D01*
X139814500Y-64143000D02*
X139814500Y-62635000D01*
X139814500Y-60555000D02*
X139814500Y-59047000D01*
X139774500Y-64111000D02*
X139774500Y-62635000D01*
X139774500Y-60555000D02*
X139774500Y-59079000D01*
X139734500Y-64079000D02*
X139734500Y-62635000D01*
X139734500Y-60555000D02*
X139734500Y-59111000D01*
X139694500Y-64045000D02*
X139694500Y-62635000D01*
X139694500Y-60555000D02*
X139694500Y-59145000D01*
X139654500Y-64011000D02*
X139654500Y-62635000D01*
X139654500Y-60555000D02*
X139654500Y-59179000D01*
X139614500Y-63975000D02*
X139614500Y-62635000D01*
X139614500Y-60555000D02*
X139614500Y-59215000D01*
X139574500Y-63938000D02*
X139574500Y-62635000D01*
X139574500Y-60555000D02*
X139574500Y-59252000D01*
X139534500Y-63900000D02*
X139534500Y-62635000D01*
X139534500Y-60555000D02*
X139534500Y-59290000D01*
X139494500Y-63860000D02*
X139494500Y-59330000D01*
X139454500Y-63819000D02*
X139454500Y-59371000D01*
X139414500Y-63777000D02*
X139414500Y-59413000D01*
X139374500Y-63732000D02*
X139374500Y-59458000D01*
X139334500Y-63687000D02*
X139334500Y-59503000D01*
X139294500Y-63639000D02*
X139294500Y-59551000D01*
X139254500Y-63590000D02*
X139254500Y-59600000D01*
X139214500Y-63539000D02*
X139214500Y-59651000D01*
X139174500Y-63485000D02*
X139174500Y-59705000D01*
X139134500Y-63429000D02*
X139134500Y-59761000D01*
X139094500Y-63371000D02*
X139094500Y-59819000D01*
X139054500Y-63309000D02*
X139054500Y-59881000D01*
X139014500Y-63245000D02*
X139014500Y-59945000D01*
X138974500Y-63176000D02*
X138974500Y-60014000D01*
X138934500Y-63104000D02*
X138934500Y-60086000D01*
X138894500Y-63027000D02*
X138894500Y-60163000D01*
X138854500Y-62945000D02*
X138854500Y-60245000D01*
X138814500Y-62857000D02*
X138814500Y-60333000D01*
X138774500Y-62760000D02*
X138774500Y-60430000D01*
X138734500Y-62654000D02*
X138734500Y-60536000D01*
X138694500Y-62535000D02*
X138694500Y-60655000D01*
X138654500Y-62397000D02*
X138654500Y-60793000D01*
X138614500Y-62228000D02*
X138614500Y-60962000D01*
X138574500Y-61997000D02*
X138574500Y-61193000D01*
X145315741Y-63434000D02*
X144685741Y-63434000D01*
X145000741Y-63749000D02*
X145000741Y-63119000D01*
%TO.C,C5*%
X120346800Y-64900000D02*
X123086800Y-64900000D01*
X120346800Y-72340000D02*
X123086800Y-72340000D01*
X123086800Y-72340000D02*
X123086800Y-64900000D01*
X120346800Y-72340000D02*
X120346800Y-64900000D01*
%TO.C,C4*%
X120296000Y-75885500D02*
X123036000Y-75885500D01*
X120296000Y-83325500D02*
X123036000Y-83325500D01*
X123036000Y-83325500D02*
X123036000Y-75885500D01*
X120296000Y-83325500D02*
X120296000Y-75885500D01*
%TO.C,C3*%
X136655000Y-74268000D02*
X136655000Y-71528000D01*
X144095000Y-74268000D02*
X144095000Y-71528000D01*
X144095000Y-71528000D02*
X136655000Y-71528000D01*
X144095000Y-74268000D02*
X136655000Y-74268000D01*
%TO.C,C2*%
X146267500Y-75568000D02*
X149007500Y-75568000D01*
X146267500Y-83008000D02*
X149007500Y-83008000D01*
X149007500Y-83008000D02*
X149007500Y-75568000D01*
X146267500Y-83008000D02*
X146267500Y-75568000D01*
%TO.C,C1*%
X147380500Y-92483000D02*
X147380500Y-95223000D01*
X139940500Y-92483000D02*
X139940500Y-95223000D01*
X139940500Y-95223000D02*
X147380500Y-95223000D01*
X139940500Y-92483000D02*
X147380500Y-92483000D01*
%TO.C,J2*%
D12*
X135089976Y-57498500D02*
X135013785Y-57465166D01*
X134899500Y-57465166D01*
X134785214Y-57498500D01*
X134709023Y-57565166D01*
X134670928Y-57631833D01*
X134632833Y-57765166D01*
X134632833Y-57865166D01*
X134670928Y-57998500D01*
X134709023Y-58065166D01*
X134785214Y-58131833D01*
X134899500Y-58165166D01*
X134975690Y-58165166D01*
X135089976Y-58131833D01*
X135128071Y-58098500D01*
X135128071Y-57865166D01*
X134975690Y-57865166D01*
X135470928Y-58165166D02*
X135470928Y-57465166D01*
X135928071Y-58165166D01*
X135928071Y-57465166D01*
X136309023Y-58165166D02*
X136309023Y-57465166D01*
X136499500Y-57465166D01*
X136613785Y-57498500D01*
X136689976Y-57565166D01*
X136728071Y-57631833D01*
X136766166Y-57765166D01*
X136766166Y-57865166D01*
X136728071Y-57998500D01*
X136689976Y-58065166D01*
X136613785Y-58131833D01*
X136499500Y-58165166D01*
X136309023Y-58165166D01*
X132524595Y-57465166D02*
X132791261Y-58165166D01*
X133057928Y-57465166D01*
X133324595Y-57898500D02*
X133934119Y-57898500D01*
X133629357Y-58165166D02*
X133629357Y-57631833D01*
%TO.C,U1*%
X133858095Y-80097380D02*
X133858095Y-80906904D01*
X133905714Y-81002142D01*
X133953333Y-81049761D01*
X134048571Y-81097380D01*
X134239047Y-81097380D01*
X134334285Y-81049761D01*
X134381904Y-81002142D01*
X134429523Y-80906904D01*
X134429523Y-80097380D01*
X135429523Y-81097380D02*
X134858095Y-81097380D01*
X135143809Y-81097380D02*
X135143809Y-80097380D01*
X135048571Y-80240238D01*
X134953333Y-80335476D01*
X134858095Y-80383095D01*
%TO.C,RV2*%
D13*
X123875930Y-64686302D02*
X124234433Y-64686302D01*
X124041393Y-64906920D01*
X124124124Y-64906920D01*
X124179279Y-64934497D01*
X124206856Y-64962074D01*
X124234433Y-65017228D01*
X124234433Y-65155114D01*
X124206856Y-65210268D01*
X124179279Y-65237845D01*
X124124124Y-65265422D01*
X123958662Y-65265422D01*
X123903507Y-65237845D01*
X123875930Y-65210268D01*
%TO.C,RV1*%
X138353930Y-64686302D02*
X138712433Y-64686302D01*
X138519393Y-64906920D01*
X138602124Y-64906920D01*
X138657279Y-64934497D01*
X138684856Y-64962074D01*
X138712433Y-65017228D01*
X138712433Y-65155114D01*
X138684856Y-65210268D01*
X138657279Y-65237845D01*
X138602124Y-65265422D01*
X138436662Y-65265422D01*
X138381507Y-65237845D01*
X138353930Y-65210268D01*
%TO.C,R9*%
D12*
X127950933Y-73299580D02*
X127617600Y-72823390D01*
X127379504Y-73299580D02*
X127379504Y-72299580D01*
X127760457Y-72299580D01*
X127855695Y-72347200D01*
X127903314Y-72394819D01*
X127950933Y-72490057D01*
X127950933Y-72632914D01*
X127903314Y-72728152D01*
X127855695Y-72775771D01*
X127760457Y-72823390D01*
X127379504Y-72823390D01*
X128427123Y-73299580D02*
X128617600Y-73299580D01*
X128712838Y-73251961D01*
X128760457Y-73204342D01*
X128855695Y-73061485D01*
X128903314Y-72871009D01*
X128903314Y-72490057D01*
X128855695Y-72394819D01*
X128808076Y-72347200D01*
X128712838Y-72299580D01*
X128522361Y-72299580D01*
X128427123Y-72347200D01*
X128379504Y-72394819D01*
X128331885Y-72490057D01*
X128331885Y-72728152D01*
X128379504Y-72823390D01*
X128427123Y-72871009D01*
X128522361Y-72918628D01*
X128712838Y-72918628D01*
X128808076Y-72871009D01*
X128855695Y-72823390D01*
X128903314Y-72728152D01*
%TO.C,R8*%
X127950933Y-70251580D02*
X127617600Y-69775390D01*
X127379504Y-70251580D02*
X127379504Y-69251580D01*
X127760457Y-69251580D01*
X127855695Y-69299200D01*
X127903314Y-69346819D01*
X127950933Y-69442057D01*
X127950933Y-69584914D01*
X127903314Y-69680152D01*
X127855695Y-69727771D01*
X127760457Y-69775390D01*
X127379504Y-69775390D01*
X128522361Y-69680152D02*
X128427123Y-69632533D01*
X128379504Y-69584914D01*
X128331885Y-69489676D01*
X128331885Y-69442057D01*
X128379504Y-69346819D01*
X128427123Y-69299200D01*
X128522361Y-69251580D01*
X128712838Y-69251580D01*
X128808076Y-69299200D01*
X128855695Y-69346819D01*
X128903314Y-69442057D01*
X128903314Y-69489676D01*
X128855695Y-69584914D01*
X128808076Y-69632533D01*
X128712838Y-69680152D01*
X128522361Y-69680152D01*
X128427123Y-69727771D01*
X128379504Y-69775390D01*
X128331885Y-69870628D01*
X128331885Y-70061104D01*
X128379504Y-70156342D01*
X128427123Y-70203961D01*
X128522361Y-70251580D01*
X128712838Y-70251580D01*
X128808076Y-70203961D01*
X128855695Y-70156342D01*
X128903314Y-70061104D01*
X128903314Y-69870628D01*
X128855695Y-69775390D01*
X128808076Y-69727771D01*
X128712838Y-69680152D01*
%TO.C,R7*%
X140930333Y-70302380D02*
X140597000Y-69826190D01*
X140358904Y-70302380D02*
X140358904Y-69302380D01*
X140739857Y-69302380D01*
X140835095Y-69350000D01*
X140882714Y-69397619D01*
X140930333Y-69492857D01*
X140930333Y-69635714D01*
X140882714Y-69730952D01*
X140835095Y-69778571D01*
X140739857Y-69826190D01*
X140358904Y-69826190D01*
X141263666Y-69302380D02*
X141930333Y-69302380D01*
X141501761Y-70302380D01*
%TO.C,R6*%
X142708333Y-88145880D02*
X142375000Y-87669690D01*
X142136904Y-88145880D02*
X142136904Y-87145880D01*
X142517857Y-87145880D01*
X142613095Y-87193500D01*
X142660714Y-87241119D01*
X142708333Y-87336357D01*
X142708333Y-87479214D01*
X142660714Y-87574452D01*
X142613095Y-87622071D01*
X142517857Y-87669690D01*
X142136904Y-87669690D01*
X143565476Y-87145880D02*
X143375000Y-87145880D01*
X143279761Y-87193500D01*
X143232142Y-87241119D01*
X143136904Y-87383976D01*
X143089285Y-87574452D01*
X143089285Y-87955404D01*
X143136904Y-88050642D01*
X143184523Y-88098261D01*
X143279761Y-88145880D01*
X143470238Y-88145880D01*
X143565476Y-88098261D01*
X143613095Y-88050642D01*
X143660714Y-87955404D01*
X143660714Y-87717309D01*
X143613095Y-87622071D01*
X143565476Y-87574452D01*
X143470238Y-87526833D01*
X143279761Y-87526833D01*
X143184523Y-87574452D01*
X143136904Y-87622071D01*
X143089285Y-87717309D01*
%TO.C,R5*%
X125102880Y-79541666D02*
X124626690Y-79875000D01*
X125102880Y-80113095D02*
X124102880Y-80113095D01*
X124102880Y-79732142D01*
X124150500Y-79636904D01*
X124198119Y-79589285D01*
X124293357Y-79541666D01*
X124436214Y-79541666D01*
X124531452Y-79589285D01*
X124579071Y-79636904D01*
X124626690Y-79732142D01*
X124626690Y-80113095D01*
X124102880Y-78636904D02*
X124102880Y-79113095D01*
X124579071Y-79160714D01*
X124531452Y-79113095D01*
X124483833Y-79017857D01*
X124483833Y-78779761D01*
X124531452Y-78684523D01*
X124579071Y-78636904D01*
X124674309Y-78589285D01*
X124912404Y-78589285D01*
X125007642Y-78636904D01*
X125055261Y-78684523D01*
X125102880Y-78779761D01*
X125102880Y-79017857D01*
X125055261Y-79113095D01*
X125007642Y-79160714D01*
%TO.C,R4*%
X128163580Y-79541666D02*
X127687390Y-79875000D01*
X128163580Y-80113095D02*
X127163580Y-80113095D01*
X127163580Y-79732142D01*
X127211200Y-79636904D01*
X127258819Y-79589285D01*
X127354057Y-79541666D01*
X127496914Y-79541666D01*
X127592152Y-79589285D01*
X127639771Y-79636904D01*
X127687390Y-79732142D01*
X127687390Y-80113095D01*
X127496914Y-78684523D02*
X128163580Y-78684523D01*
X127115961Y-78922619D02*
X127830247Y-79160714D01*
X127830247Y-78541666D01*
%TO.C,R3*%
X141993880Y-79478166D02*
X141517690Y-79811500D01*
X141993880Y-80049595D02*
X140993880Y-80049595D01*
X140993880Y-79668642D01*
X141041500Y-79573404D01*
X141089119Y-79525785D01*
X141184357Y-79478166D01*
X141327214Y-79478166D01*
X141422452Y-79525785D01*
X141470071Y-79573404D01*
X141517690Y-79668642D01*
X141517690Y-80049595D01*
X140993880Y-79144833D02*
X140993880Y-78525785D01*
X141374833Y-78859119D01*
X141374833Y-78716261D01*
X141422452Y-78621023D01*
X141470071Y-78573404D01*
X141565309Y-78525785D01*
X141803404Y-78525785D01*
X141898642Y-78573404D01*
X141946261Y-78621023D01*
X141993880Y-78716261D01*
X141993880Y-79001976D01*
X141946261Y-79097214D01*
X141898642Y-79144833D01*
%TO.C,R2*%
X145041880Y-79478166D02*
X144565690Y-79811500D01*
X145041880Y-80049595D02*
X144041880Y-80049595D01*
X144041880Y-79668642D01*
X144089500Y-79573404D01*
X144137119Y-79525785D01*
X144232357Y-79478166D01*
X144375214Y-79478166D01*
X144470452Y-79525785D01*
X144518071Y-79573404D01*
X144565690Y-79668642D01*
X144565690Y-80049595D01*
X144137119Y-79097214D02*
X144089500Y-79049595D01*
X144041880Y-78954357D01*
X144041880Y-78716261D01*
X144089500Y-78621023D01*
X144137119Y-78573404D01*
X144232357Y-78525785D01*
X144327595Y-78525785D01*
X144470452Y-78573404D01*
X145041880Y-79144833D01*
X145041880Y-78525785D01*
%TO.C,R1*%
X142708333Y-91193880D02*
X142375000Y-90717690D01*
X142136904Y-91193880D02*
X142136904Y-90193880D01*
X142517857Y-90193880D01*
X142613095Y-90241500D01*
X142660714Y-90289119D01*
X142708333Y-90384357D01*
X142708333Y-90527214D01*
X142660714Y-90622452D01*
X142613095Y-90670071D01*
X142517857Y-90717690D01*
X142136904Y-90717690D01*
X143660714Y-91193880D02*
X143089285Y-91193880D01*
X143375000Y-91193880D02*
X143375000Y-90193880D01*
X143279761Y-90336738D01*
X143184523Y-90431976D01*
X143089285Y-90479595D01*
%TO.C,J1*%
X130390952Y-93262404D02*
X130390952Y-92462404D01*
X130771904Y-93262404D02*
X130771904Y-92462404D01*
X131229047Y-93262404D01*
X131229047Y-92462404D01*
X132740476Y-92500500D02*
X132664285Y-92462404D01*
X132550000Y-92462404D01*
X132435714Y-92500500D01*
X132359523Y-92576690D01*
X132321428Y-92652880D01*
X132283333Y-92805261D01*
X132283333Y-92919547D01*
X132321428Y-93071928D01*
X132359523Y-93148119D01*
X132435714Y-93224309D01*
X132550000Y-93262404D01*
X132626190Y-93262404D01*
X132740476Y-93224309D01*
X132778571Y-93186214D01*
X132778571Y-92919547D01*
X132626190Y-92919547D01*
X133121428Y-93262404D02*
X133121428Y-92462404D01*
X133578571Y-93262404D01*
X133578571Y-92462404D01*
X133959523Y-93262404D02*
X133959523Y-92462404D01*
X134150000Y-92462404D01*
X134264285Y-92500500D01*
X134340476Y-92576690D01*
X134378571Y-92652880D01*
X134416666Y-92805261D01*
X134416666Y-92919547D01*
X134378571Y-93071928D01*
X134340476Y-93148119D01*
X134264285Y-93224309D01*
X134150000Y-93262404D01*
X133959523Y-93262404D01*
X135204285Y-93224309D02*
X135318571Y-93262404D01*
X135509047Y-93262404D01*
X135585238Y-93224309D01*
X135623333Y-93186214D01*
X135661428Y-93110023D01*
X135661428Y-93033833D01*
X135623333Y-92957642D01*
X135585238Y-92919547D01*
X135509047Y-92881452D01*
X135356666Y-92843357D01*
X135280476Y-92805261D01*
X135242380Y-92767166D01*
X135204285Y-92690976D01*
X135204285Y-92614785D01*
X135242380Y-92538595D01*
X135280476Y-92500500D01*
X135356666Y-92462404D01*
X135547142Y-92462404D01*
X135661428Y-92500500D01*
X135928095Y-92462404D02*
X136118571Y-93262404D01*
X136270952Y-92690976D01*
X136423333Y-93262404D01*
X136613809Y-92462404D01*
X137630000Y-92462404D02*
X137782380Y-92462404D01*
X137858571Y-92500500D01*
X137934761Y-92576690D01*
X137972857Y-92729071D01*
X137972857Y-92995738D01*
X137934761Y-93148119D01*
X137858571Y-93224309D01*
X137782380Y-93262404D01*
X137630000Y-93262404D01*
X137553809Y-93224309D01*
X137477619Y-93148119D01*
X137439523Y-92995738D01*
X137439523Y-92729071D01*
X137477619Y-92576690D01*
X137553809Y-92500500D01*
X137630000Y-92462404D01*
X138315714Y-92462404D02*
X138315714Y-93110023D01*
X138353809Y-93186214D01*
X138391904Y-93224309D01*
X138468095Y-93262404D01*
X138620476Y-93262404D01*
X138696666Y-93224309D01*
X138734761Y-93186214D01*
X138772857Y-93110023D01*
X138772857Y-92462404D01*
X139039523Y-92462404D02*
X139496666Y-92462404D01*
X139268095Y-93262404D02*
X139268095Y-92462404D01*
%TO.C,D4*%
X135072380Y-68302095D02*
X134072380Y-68302095D01*
X134072380Y-68064000D01*
X134120000Y-67921142D01*
X134215238Y-67825904D01*
X134310476Y-67778285D01*
X134500952Y-67730666D01*
X134643809Y-67730666D01*
X134834285Y-67778285D01*
X134929523Y-67825904D01*
X135024761Y-67921142D01*
X135072380Y-68064000D01*
X135072380Y-68302095D01*
X134405714Y-66873523D02*
X135072380Y-66873523D01*
X134024761Y-67111619D02*
X134739047Y-67349714D01*
X134739047Y-66730666D01*
X133167380Y-74683904D02*
X132167380Y-74683904D01*
X133167380Y-74112476D02*
X132595952Y-74541047D01*
X132167380Y-74112476D02*
X132738809Y-74683904D01*
%TO.C,D2*%
X121308904Y-87955380D02*
X121308904Y-86955380D01*
X121547000Y-86955380D01*
X121689857Y-87003000D01*
X121785095Y-87098238D01*
X121832714Y-87193476D01*
X121880333Y-87383952D01*
X121880333Y-87526809D01*
X121832714Y-87717285D01*
X121785095Y-87812523D01*
X121689857Y-87907761D01*
X121547000Y-87955380D01*
X121308904Y-87955380D01*
X122261285Y-87050619D02*
X122308904Y-87003000D01*
X122404142Y-86955380D01*
X122642238Y-86955380D01*
X122737476Y-87003000D01*
X122785095Y-87050619D01*
X122832714Y-87145857D01*
X122832714Y-87241095D01*
X122785095Y-87383952D01*
X122213666Y-87955380D01*
X122832714Y-87955380D01*
%TO.C,D1*%
X121308904Y-94305380D02*
X121308904Y-93305380D01*
X121547000Y-93305380D01*
X121689857Y-93353000D01*
X121785095Y-93448238D01*
X121832714Y-93543476D01*
X121880333Y-93733952D01*
X121880333Y-93876809D01*
X121832714Y-94067285D01*
X121785095Y-94162523D01*
X121689857Y-94257761D01*
X121547000Y-94305380D01*
X121308904Y-94305380D01*
X122832714Y-94305380D02*
X122261285Y-94305380D01*
X122547000Y-94305380D02*
X122547000Y-93305380D01*
X122451761Y-93448238D01*
X122356523Y-93543476D01*
X122261285Y-93591095D01*
%TO.C,C7*%
X127214333Y-57761142D02*
X127166714Y-57808761D01*
X127023857Y-57856380D01*
X126928619Y-57856380D01*
X126785761Y-57808761D01*
X126690523Y-57713523D01*
X126642904Y-57618285D01*
X126595285Y-57427809D01*
X126595285Y-57284952D01*
X126642904Y-57094476D01*
X126690523Y-56999238D01*
X126785761Y-56904000D01*
X126928619Y-56856380D01*
X127023857Y-56856380D01*
X127166714Y-56904000D01*
X127214333Y-56951619D01*
X127547666Y-56856380D02*
X128214333Y-56856380D01*
X127785761Y-57856380D01*
%TO.C,C6*%
X141692333Y-57824642D02*
X141644714Y-57872261D01*
X141501857Y-57919880D01*
X141406619Y-57919880D01*
X141263761Y-57872261D01*
X141168523Y-57777023D01*
X141120904Y-57681785D01*
X141073285Y-57491309D01*
X141073285Y-57348452D01*
X141120904Y-57157976D01*
X141168523Y-57062738D01*
X141263761Y-56967500D01*
X141406619Y-56919880D01*
X141501857Y-56919880D01*
X141644714Y-56967500D01*
X141692333Y-57015119D01*
X142549476Y-56919880D02*
X142359000Y-56919880D01*
X142263761Y-56967500D01*
X142216142Y-57015119D01*
X142120904Y-57157976D01*
X142073285Y-57348452D01*
X142073285Y-57729404D01*
X142120904Y-57824642D01*
X142168523Y-57872261D01*
X142263761Y-57919880D01*
X142454238Y-57919880D01*
X142549476Y-57872261D01*
X142597095Y-57824642D01*
X142644714Y-57729404D01*
X142644714Y-57491309D01*
X142597095Y-57396071D01*
X142549476Y-57348452D01*
X142454238Y-57300833D01*
X142263761Y-57300833D01*
X142168523Y-57348452D01*
X142120904Y-57396071D01*
X142073285Y-57491309D01*
%TO.C,C5*%
X122073942Y-68786666D02*
X122121561Y-68834285D01*
X122169180Y-68977142D01*
X122169180Y-69072380D01*
X122121561Y-69215238D01*
X122026323Y-69310476D01*
X121931085Y-69358095D01*
X121740609Y-69405714D01*
X121597752Y-69405714D01*
X121407276Y-69358095D01*
X121312038Y-69310476D01*
X121216800Y-69215238D01*
X121169180Y-69072380D01*
X121169180Y-68977142D01*
X121216800Y-68834285D01*
X121264419Y-68786666D01*
X121169180Y-67881904D02*
X121169180Y-68358095D01*
X121645371Y-68405714D01*
X121597752Y-68358095D01*
X121550133Y-68262857D01*
X121550133Y-68024761D01*
X121597752Y-67929523D01*
X121645371Y-67881904D01*
X121740609Y-67834285D01*
X121978704Y-67834285D01*
X122073942Y-67881904D01*
X122121561Y-67929523D01*
X122169180Y-68024761D01*
X122169180Y-68262857D01*
X122121561Y-68358095D01*
X122073942Y-68405714D01*
%TO.C,C4*%
X122023142Y-79772166D02*
X122070761Y-79819785D01*
X122118380Y-79962642D01*
X122118380Y-80057880D01*
X122070761Y-80200738D01*
X121975523Y-80295976D01*
X121880285Y-80343595D01*
X121689809Y-80391214D01*
X121546952Y-80391214D01*
X121356476Y-80343595D01*
X121261238Y-80295976D01*
X121166000Y-80200738D01*
X121118380Y-80057880D01*
X121118380Y-79962642D01*
X121166000Y-79819785D01*
X121213619Y-79772166D01*
X121451714Y-78915023D02*
X122118380Y-78915023D01*
X121070761Y-79153119D02*
X121785047Y-79391214D01*
X121785047Y-78772166D01*
%TO.C,C3*%
X140208333Y-73255142D02*
X140160714Y-73302761D01*
X140017857Y-73350380D01*
X139922619Y-73350380D01*
X139779761Y-73302761D01*
X139684523Y-73207523D01*
X139636904Y-73112285D01*
X139589285Y-72921809D01*
X139589285Y-72778952D01*
X139636904Y-72588476D01*
X139684523Y-72493238D01*
X139779761Y-72398000D01*
X139922619Y-72350380D01*
X140017857Y-72350380D01*
X140160714Y-72398000D01*
X140208333Y-72445619D01*
X140541666Y-72350380D02*
X141160714Y-72350380D01*
X140827380Y-72731333D01*
X140970238Y-72731333D01*
X141065476Y-72778952D01*
X141113095Y-72826571D01*
X141160714Y-72921809D01*
X141160714Y-73159904D01*
X141113095Y-73255142D01*
X141065476Y-73302761D01*
X140970238Y-73350380D01*
X140684523Y-73350380D01*
X140589285Y-73302761D01*
X140541666Y-73255142D01*
%TO.C,C2*%
X147994642Y-79454666D02*
X148042261Y-79502285D01*
X148089880Y-79645142D01*
X148089880Y-79740380D01*
X148042261Y-79883238D01*
X147947023Y-79978476D01*
X147851785Y-80026095D01*
X147661309Y-80073714D01*
X147518452Y-80073714D01*
X147327976Y-80026095D01*
X147232738Y-79978476D01*
X147137500Y-79883238D01*
X147089880Y-79740380D01*
X147089880Y-79645142D01*
X147137500Y-79502285D01*
X147185119Y-79454666D01*
X147185119Y-79073714D02*
X147137500Y-79026095D01*
X147089880Y-78930857D01*
X147089880Y-78692761D01*
X147137500Y-78597523D01*
X147185119Y-78549904D01*
X147280357Y-78502285D01*
X147375595Y-78502285D01*
X147518452Y-78549904D01*
X148089880Y-79121333D01*
X148089880Y-78502285D01*
%TO.C,C1*%
X143493833Y-94210142D02*
X143446214Y-94257761D01*
X143303357Y-94305380D01*
X143208119Y-94305380D01*
X143065261Y-94257761D01*
X142970023Y-94162523D01*
X142922404Y-94067285D01*
X142874785Y-93876809D01*
X142874785Y-93733952D01*
X142922404Y-93543476D01*
X142970023Y-93448238D01*
X143065261Y-93353000D01*
X143208119Y-93305380D01*
X143303357Y-93305380D01*
X143446214Y-93353000D01*
X143493833Y-93400619D01*
X144446214Y-94305380D02*
X143874785Y-94305380D01*
X144160500Y-94305380D02*
X144160500Y-93305380D01*
X144065261Y-93448238D01*
X143970023Y-93543476D01*
X143874785Y-93591095D01*
%TD*%
M02*
