%TF.GenerationSoftware,KiCad,Pcbnew,(5.99.0-1252-g0c2d08192)*%
%TF.CreationDate,2020-04-08T11:52:56+03:00*%
%TF.ProjectId,orkman,6f726b6d-616e-42e6-9b69-6361645f7063,rev?*%
%TF.SameCoordinates,Original*%
%TF.FileFunction,Legend,Bot*%
%TF.FilePolarity,Positive*%
%FSLAX46Y46*%
G04 Gerber Fmt 4.6, Leading zero omitted, Abs format (unit mm)*
G04 Created by KiCad (PCBNEW (5.99.0-1252-g0c2d08192)) date 2020-04-08 11:52:56*
%MOMM*%
%LPD*%
G01*
G04 APERTURE LIST*
%ADD10C,0.100000*%
%ADD11C,0.150000*%
%ADD12C,0.127000*%
%ADD13C,0.120000*%
%ADD14C,0.081280*%
G04 APERTURE END LIST*
D10*
X123170928Y-95185500D02*
X122523309Y-95185500D01*
X122447119Y-95223595D01*
X122409023Y-95261690D01*
X122370928Y-95337880D01*
X122370928Y-95452166D01*
X122409023Y-95528357D01*
X122675690Y-95185500D02*
X122637595Y-95261690D01*
X122637595Y-95414071D01*
X122675690Y-95490261D01*
X122713785Y-95528357D01*
X122789976Y-95566452D01*
X123018547Y-95566452D01*
X123094738Y-95528357D01*
X123132833Y-95490261D01*
X123170928Y-95414071D01*
X123170928Y-95261690D01*
X123132833Y-95185500D01*
X122637595Y-94804547D02*
X123170928Y-94804547D01*
X123437595Y-94804547D02*
X123399500Y-94842642D01*
X123361404Y-94804547D01*
X123399500Y-94766452D01*
X123437595Y-94804547D01*
X123361404Y-94804547D01*
X123170928Y-94537880D02*
X123170928Y-94233119D01*
X123437595Y-94423595D02*
X122751880Y-94423595D01*
X122675690Y-94385500D01*
X122637595Y-94309309D01*
X122637595Y-94233119D01*
X122637595Y-93966452D02*
X123437595Y-93966452D01*
X122637595Y-93623595D02*
X123056642Y-93623595D01*
X123132833Y-93661690D01*
X123170928Y-93737880D01*
X123170928Y-93852166D01*
X123132833Y-93928357D01*
X123094738Y-93966452D01*
X123170928Y-92899785D02*
X122637595Y-92899785D01*
X123170928Y-93242642D02*
X122751880Y-93242642D01*
X122675690Y-93204547D01*
X122637595Y-93128357D01*
X122637595Y-93014071D01*
X122675690Y-92937880D01*
X122713785Y-92899785D01*
X122637595Y-92518833D02*
X123437595Y-92518833D01*
X123132833Y-92518833D02*
X123170928Y-92442642D01*
X123170928Y-92290261D01*
X123132833Y-92214071D01*
X123094738Y-92175976D01*
X123018547Y-92137880D01*
X122789976Y-92137880D01*
X122713785Y-92175976D01*
X122675690Y-92214071D01*
X122637595Y-92290261D01*
X122637595Y-92442642D01*
X122675690Y-92518833D01*
X122713785Y-91795023D02*
X122675690Y-91756928D01*
X122637595Y-91795023D01*
X122675690Y-91833119D01*
X122713785Y-91795023D01*
X122637595Y-91795023D01*
X122675690Y-91071214D02*
X122637595Y-91147404D01*
X122637595Y-91299785D01*
X122675690Y-91375976D01*
X122713785Y-91414071D01*
X122789976Y-91452166D01*
X123018547Y-91452166D01*
X123094738Y-91414071D01*
X123132833Y-91375976D01*
X123170928Y-91299785D01*
X123170928Y-91147404D01*
X123132833Y-91071214D01*
X122637595Y-90614071D02*
X122675690Y-90690261D01*
X122713785Y-90728357D01*
X122789976Y-90766452D01*
X123018547Y-90766452D01*
X123094738Y-90728357D01*
X123132833Y-90690261D01*
X123170928Y-90614071D01*
X123170928Y-90499785D01*
X123132833Y-90423595D01*
X123094738Y-90385500D01*
X123018547Y-90347404D01*
X122789976Y-90347404D01*
X122713785Y-90385500D01*
X122675690Y-90423595D01*
X122637595Y-90499785D01*
X122637595Y-90614071D01*
X122637595Y-90004547D02*
X123170928Y-90004547D01*
X123094738Y-90004547D02*
X123132833Y-89966452D01*
X123170928Y-89890261D01*
X123170928Y-89775976D01*
X123132833Y-89699785D01*
X123056642Y-89661690D01*
X122637595Y-89661690D01*
X123056642Y-89661690D02*
X123132833Y-89623595D01*
X123170928Y-89547404D01*
X123170928Y-89433119D01*
X123132833Y-89356928D01*
X123056642Y-89318833D01*
X122637595Y-89318833D01*
X123475690Y-88366452D02*
X122447119Y-89052166D01*
X122637595Y-88099785D02*
X123170928Y-88099785D01*
X123018547Y-88099785D02*
X123094738Y-88061690D01*
X123132833Y-88023595D01*
X123170928Y-87947404D01*
X123170928Y-87871214D01*
X122637595Y-87490261D02*
X122675690Y-87566452D01*
X122713785Y-87604547D01*
X122789976Y-87642642D01*
X123018547Y-87642642D01*
X123094738Y-87604547D01*
X123132833Y-87566452D01*
X123170928Y-87490261D01*
X123170928Y-87375976D01*
X123132833Y-87299785D01*
X123094738Y-87261690D01*
X123018547Y-87223595D01*
X122789976Y-87223595D01*
X122713785Y-87261690D01*
X122675690Y-87299785D01*
X122637595Y-87375976D01*
X122637595Y-87490261D01*
X122675690Y-86537880D02*
X122637595Y-86614071D01*
X122637595Y-86766452D01*
X122675690Y-86842642D01*
X122713785Y-86880738D01*
X122789976Y-86918833D01*
X123018547Y-86918833D01*
X123094738Y-86880738D01*
X123132833Y-86842642D01*
X123170928Y-86766452D01*
X123170928Y-86614071D01*
X123132833Y-86537880D01*
X122637595Y-86195023D02*
X123437595Y-86195023D01*
X122942357Y-86118833D02*
X122637595Y-85890261D01*
X123170928Y-85890261D02*
X122866166Y-86195023D01*
X122637595Y-85433119D02*
X122675690Y-85509309D01*
X122713785Y-85547404D01*
X122789976Y-85585500D01*
X123018547Y-85585500D01*
X123094738Y-85547404D01*
X123132833Y-85509309D01*
X123170928Y-85433119D01*
X123170928Y-85318833D01*
X123132833Y-85242642D01*
X123094738Y-85204547D01*
X123018547Y-85166452D01*
X122789976Y-85166452D01*
X122713785Y-85204547D01*
X122675690Y-85242642D01*
X122637595Y-85318833D01*
X122637595Y-85433119D01*
X122637595Y-84709309D02*
X122675690Y-84785500D01*
X122751880Y-84823595D01*
X123437595Y-84823595D01*
X122637595Y-84061690D02*
X123056642Y-84061690D01*
X123132833Y-84099785D01*
X123170928Y-84175976D01*
X123170928Y-84328357D01*
X123132833Y-84404547D01*
X122675690Y-84061690D02*
X122637595Y-84137880D01*
X122637595Y-84328357D01*
X122675690Y-84404547D01*
X122751880Y-84442642D01*
X122828071Y-84442642D01*
X122904261Y-84404547D01*
X122942357Y-84328357D01*
X122942357Y-84137880D01*
X122980452Y-84061690D01*
X123475690Y-83109309D02*
X122447119Y-83795023D01*
X122637595Y-82728357D02*
X122675690Y-82804547D01*
X122713785Y-82842642D01*
X122789976Y-82880738D01*
X123018547Y-82880738D01*
X123094738Y-82842642D01*
X123132833Y-82804547D01*
X123170928Y-82728357D01*
X123170928Y-82614071D01*
X123132833Y-82537880D01*
X123094738Y-82499785D01*
X123018547Y-82461690D01*
X122789976Y-82461690D01*
X122713785Y-82499785D01*
X122675690Y-82537880D01*
X122637595Y-82614071D01*
X122637595Y-82728357D01*
X122637595Y-82118833D02*
X123170928Y-82118833D01*
X123018547Y-82118833D02*
X123094738Y-82080738D01*
X123132833Y-82042642D01*
X123170928Y-81966452D01*
X123170928Y-81890261D01*
X122637595Y-81623595D02*
X123437595Y-81623595D01*
X122942357Y-81547404D02*
X122637595Y-81318833D01*
X123170928Y-81318833D02*
X122866166Y-81623595D01*
X122637595Y-80975976D02*
X123170928Y-80975976D01*
X123094738Y-80975976D02*
X123132833Y-80937880D01*
X123170928Y-80861690D01*
X123170928Y-80747404D01*
X123132833Y-80671214D01*
X123056642Y-80633119D01*
X122637595Y-80633119D01*
X123056642Y-80633119D02*
X123132833Y-80595023D01*
X123170928Y-80518833D01*
X123170928Y-80404547D01*
X123132833Y-80328357D01*
X123056642Y-80290261D01*
X122637595Y-80290261D01*
X122637595Y-79566452D02*
X123056642Y-79566452D01*
X123132833Y-79604547D01*
X123170928Y-79680738D01*
X123170928Y-79833119D01*
X123132833Y-79909309D01*
X122675690Y-79566452D02*
X122637595Y-79642642D01*
X122637595Y-79833119D01*
X122675690Y-79909309D01*
X122751880Y-79947404D01*
X122828071Y-79947404D01*
X122904261Y-79909309D01*
X122942357Y-79833119D01*
X122942357Y-79642642D01*
X122980452Y-79566452D01*
X123170928Y-79185500D02*
X122637595Y-79185500D01*
X123094738Y-79185500D02*
X123132833Y-79147404D01*
X123170928Y-79071214D01*
X123170928Y-78956928D01*
X123132833Y-78880738D01*
X123056642Y-78842642D01*
X122637595Y-78842642D01*
X144671690Y-62846000D02*
X144747880Y-62807904D01*
X144862166Y-62807904D01*
X144976452Y-62846000D01*
X145052642Y-62922190D01*
X145090738Y-62998380D01*
X145128833Y-63150761D01*
X145128833Y-63265047D01*
X145090738Y-63417428D01*
X145052642Y-63493619D01*
X144976452Y-63569809D01*
X144862166Y-63607904D01*
X144785976Y-63607904D01*
X144671690Y-63569809D01*
X144633595Y-63531714D01*
X144633595Y-63265047D01*
X144785976Y-63265047D01*
X143947880Y-63607904D02*
X143947880Y-63188857D01*
X143985976Y-63112666D01*
X144062166Y-63074571D01*
X144214547Y-63074571D01*
X144290738Y-63112666D01*
X143947880Y-63569809D02*
X144024071Y-63607904D01*
X144214547Y-63607904D01*
X144290738Y-63569809D01*
X144328833Y-63493619D01*
X144328833Y-63417428D01*
X144290738Y-63341238D01*
X144214547Y-63303142D01*
X144024071Y-63303142D01*
X143947880Y-63265047D01*
X143566928Y-63607904D02*
X143566928Y-63074571D01*
X143566928Y-62807904D02*
X143605023Y-62846000D01*
X143566928Y-62884095D01*
X143528833Y-62846000D01*
X143566928Y-62807904D01*
X143566928Y-62884095D01*
X143185976Y-63074571D02*
X143185976Y-63607904D01*
X143185976Y-63150761D02*
X143147880Y-63112666D01*
X143071690Y-63074571D01*
X142957404Y-63074571D01*
X142881214Y-63112666D01*
X142843119Y-63188857D01*
X142843119Y-63607904D01*
X141585976Y-63188857D02*
X141471690Y-63226952D01*
X141433595Y-63265047D01*
X141395500Y-63341238D01*
X141395500Y-63455523D01*
X141433595Y-63531714D01*
X141471690Y-63569809D01*
X141547880Y-63607904D01*
X141852642Y-63607904D01*
X141852642Y-62807904D01*
X141585976Y-62807904D01*
X141509785Y-62846000D01*
X141471690Y-62884095D01*
X141433595Y-62960285D01*
X141433595Y-63036476D01*
X141471690Y-63112666D01*
X141509785Y-63150761D01*
X141585976Y-63188857D01*
X141852642Y-63188857D01*
X140633595Y-63607904D02*
X141090738Y-63607904D01*
X140862166Y-63607904D02*
X140862166Y-62807904D01*
X140938357Y-62922190D01*
X141014547Y-62998380D01*
X141090738Y-63036476D01*
X140138357Y-62807904D02*
X140062166Y-62807904D01*
X139985976Y-62846000D01*
X139947880Y-62884095D01*
X139909785Y-62960285D01*
X139871690Y-63112666D01*
X139871690Y-63303142D01*
X139909785Y-63455523D01*
X139947880Y-63531714D01*
X139985976Y-63569809D01*
X140062166Y-63607904D01*
X140138357Y-63607904D01*
X140214547Y-63569809D01*
X140252642Y-63531714D01*
X140290738Y-63455523D01*
X140328833Y-63303142D01*
X140328833Y-63112666D01*
X140290738Y-62960285D01*
X140252642Y-62884095D01*
X140214547Y-62846000D01*
X140138357Y-62807904D01*
X139376452Y-62807904D02*
X139300261Y-62807904D01*
X139224071Y-62846000D01*
X139185976Y-62884095D01*
X139147880Y-62960285D01*
X139109785Y-63112666D01*
X139109785Y-63303142D01*
X139147880Y-63455523D01*
X139185976Y-63531714D01*
X139224071Y-63569809D01*
X139300261Y-63607904D01*
X139376452Y-63607904D01*
X139452642Y-63569809D01*
X139490738Y-63531714D01*
X139528833Y-63455523D01*
X139566928Y-63303142D01*
X139566928Y-63112666D01*
X139528833Y-62960285D01*
X139490738Y-62884095D01*
X139452642Y-62846000D01*
X139376452Y-62807904D01*
X138766928Y-63607904D02*
X138766928Y-62807904D01*
X138690738Y-63303142D02*
X138462166Y-63607904D01*
X138462166Y-63074571D02*
X138766928Y-63379333D01*
X130269880Y-62934904D02*
X130003214Y-63734904D01*
X129736547Y-62934904D01*
X129355595Y-63734904D02*
X129431785Y-63696809D01*
X129469880Y-63658714D01*
X129507976Y-63582523D01*
X129507976Y-63353952D01*
X129469880Y-63277761D01*
X129431785Y-63239666D01*
X129355595Y-63201571D01*
X129241309Y-63201571D01*
X129165119Y-63239666D01*
X129127023Y-63277761D01*
X129088928Y-63353952D01*
X129088928Y-63582523D01*
X129127023Y-63658714D01*
X129165119Y-63696809D01*
X129241309Y-63734904D01*
X129355595Y-63734904D01*
X128631785Y-63734904D02*
X128707976Y-63696809D01*
X128746071Y-63620619D01*
X128746071Y-62934904D01*
X127755595Y-63506333D02*
X127374642Y-63506333D01*
X127831785Y-63734904D02*
X127565119Y-62934904D01*
X127298452Y-63734904D01*
X126612738Y-63734904D02*
X127069880Y-63734904D01*
X126841309Y-63734904D02*
X126841309Y-62934904D01*
X126917500Y-63049190D01*
X126993690Y-63125380D01*
X127069880Y-63163476D01*
X126117500Y-62934904D02*
X126041309Y-62934904D01*
X125965119Y-62973000D01*
X125927023Y-63011095D01*
X125888928Y-63087285D01*
X125850833Y-63239666D01*
X125850833Y-63430142D01*
X125888928Y-63582523D01*
X125927023Y-63658714D01*
X125965119Y-63696809D01*
X126041309Y-63734904D01*
X126117500Y-63734904D01*
X126193690Y-63696809D01*
X126231785Y-63658714D01*
X126269880Y-63582523D01*
X126307976Y-63430142D01*
X126307976Y-63239666D01*
X126269880Y-63087285D01*
X126231785Y-63011095D01*
X126193690Y-62973000D01*
X126117500Y-62934904D01*
X125355595Y-62934904D02*
X125279404Y-62934904D01*
X125203214Y-62973000D01*
X125165119Y-63011095D01*
X125127023Y-63087285D01*
X125088928Y-63239666D01*
X125088928Y-63430142D01*
X125127023Y-63582523D01*
X125165119Y-63658714D01*
X125203214Y-63696809D01*
X125279404Y-63734904D01*
X125355595Y-63734904D01*
X125431785Y-63696809D01*
X125469880Y-63658714D01*
X125507976Y-63582523D01*
X125546071Y-63430142D01*
X125546071Y-63239666D01*
X125507976Y-63087285D01*
X125469880Y-63011095D01*
X125431785Y-62973000D01*
X125355595Y-62934904D01*
X124746071Y-63734904D02*
X124746071Y-62934904D01*
X124669880Y-63430142D02*
X124441309Y-63734904D01*
X124441309Y-63201571D02*
X124746071Y-63506333D01*
D11*
X139254904Y-73771261D02*
X138873952Y-73771261D01*
X138683476Y-73866500D01*
X138493000Y-74056976D01*
X138397761Y-74437928D01*
X138397761Y-75104595D01*
X138493000Y-75485547D01*
X138683476Y-75676023D01*
X138873952Y-75771261D01*
X139254904Y-75771261D01*
X139445380Y-75676023D01*
X139635857Y-75485547D01*
X139731095Y-75104595D01*
X139731095Y-74437928D01*
X139635857Y-74056976D01*
X139445380Y-73866500D01*
X139254904Y-73771261D01*
X137540619Y-75771261D02*
X137540619Y-74437928D01*
X137540619Y-74818880D02*
X137445380Y-74628404D01*
X137350142Y-74533166D01*
X137159666Y-74437928D01*
X136969190Y-74437928D01*
X136302523Y-75771261D02*
X136302523Y-73771261D01*
X136112047Y-75009357D02*
X135540619Y-75771261D01*
X135540619Y-74437928D02*
X136302523Y-75199833D01*
X134683476Y-75771261D02*
X134683476Y-74437928D01*
X134683476Y-74628404D02*
X134588238Y-74533166D01*
X134397761Y-74437928D01*
X134112047Y-74437928D01*
X133921571Y-74533166D01*
X133826333Y-74723642D01*
X133826333Y-75771261D01*
X133826333Y-74723642D02*
X133731095Y-74533166D01*
X133540619Y-74437928D01*
X133254904Y-74437928D01*
X133064428Y-74533166D01*
X132969190Y-74723642D01*
X132969190Y-75771261D01*
X131159666Y-75771261D02*
X131159666Y-74723642D01*
X131254904Y-74533166D01*
X131445380Y-74437928D01*
X131826333Y-74437928D01*
X132016809Y-74533166D01*
X131159666Y-75676023D02*
X131350142Y-75771261D01*
X131826333Y-75771261D01*
X132016809Y-75676023D01*
X132112047Y-75485547D01*
X132112047Y-75295071D01*
X132016809Y-75104595D01*
X131826333Y-75009357D01*
X131350142Y-75009357D01*
X131159666Y-74914119D01*
X130207285Y-74437928D02*
X130207285Y-75771261D01*
X130207285Y-74628404D02*
X130112047Y-74533166D01*
X129921571Y-74437928D01*
X129635857Y-74437928D01*
X129445380Y-74533166D01*
X129350142Y-74723642D01*
X129350142Y-75771261D01*
D12*
%TO.C,J2*%
X132016500Y-58547000D02*
X132016500Y-57277000D01*
X137096500Y-58547000D02*
X137096500Y-57277000D01*
X132016500Y-58547000D02*
X137096500Y-58547000D01*
X132016500Y-57277000D02*
X132016500Y-54737000D01*
X137096500Y-57277000D02*
X137096500Y-54737000D01*
X132016500Y-57277000D02*
X137096500Y-57277000D01*
X137096500Y-54737000D02*
X132016500Y-54737000D01*
%TO.C,RV2*%
X131762500Y-55895000D02*
G75*
G03*
X131762500Y-55895000I-635000J0D01*
G01*
X124142500Y-55895000D02*
G75*
G03*
X124142500Y-55895000I-635000J0D01*
G01*
X122872500Y-54625000D02*
X131762500Y-54625000D01*
X131762500Y-54625000D02*
X132397500Y-55260000D01*
X122237500Y-55260000D02*
X122872500Y-54625000D01*
X122237500Y-64404000D02*
X123253500Y-65420000D01*
X126952500Y-59690000D02*
X127682500Y-59690000D01*
X127317500Y-59325000D02*
X127317500Y-60055000D01*
X125817500Y-64190000D02*
X128817500Y-64190000D01*
X123253500Y-65420000D02*
X131381500Y-65420000D01*
X131381500Y-65420000D02*
X131381500Y-67960000D01*
X131381500Y-67960000D02*
X123253500Y-67960000D01*
X123253500Y-67960000D02*
X123253500Y-65420000D01*
X127952500Y-59705000D02*
G75*
G03*
X127952500Y-59705000I-635000J0D01*
G01*
X122237500Y-55260000D02*
X122237500Y-57800000D01*
X132397500Y-55260000D02*
X132397500Y-57800000D01*
X122237500Y-64404000D02*
X122237500Y-61610000D01*
X132397500Y-64404000D02*
X132397500Y-61610000D01*
X131381500Y-65420000D02*
X132397500Y-64404000D01*
X124142500Y-64150000D02*
G75*
G03*
X124142500Y-64150000I-635000J0D01*
G01*
X131762500Y-64150000D02*
G75*
G03*
X131762500Y-64150000I-635000J0D01*
G01*
X129022172Y-61721553D02*
X129430344Y-62207991D01*
X130317500Y-59690000D02*
G75*
G03*
X130317500Y-59690000I-3000000J0D01*
G01*
%TO.C,RV1*%
X146240500Y-55895000D02*
G75*
G03*
X146240500Y-55895000I-635000J0D01*
G01*
X138620500Y-55895000D02*
G75*
G03*
X138620500Y-55895000I-635000J0D01*
G01*
X137350500Y-54625000D02*
X146240500Y-54625000D01*
X146240500Y-54625000D02*
X146875500Y-55260000D01*
X136715500Y-55260000D02*
X137350500Y-54625000D01*
X136715500Y-64404000D02*
X137731500Y-65420000D01*
X141430500Y-59690000D02*
X142160500Y-59690000D01*
X141795500Y-59325000D02*
X141795500Y-60055000D01*
X140295500Y-64190000D02*
X143295500Y-64190000D01*
X137731500Y-65420000D02*
X145859500Y-65420000D01*
X145859500Y-65420000D02*
X145859500Y-67960000D01*
X145859500Y-67960000D02*
X137731500Y-67960000D01*
X137731500Y-67960000D02*
X137731500Y-65420000D01*
X142430500Y-59705000D02*
G75*
G03*
X142430500Y-59705000I-635000J0D01*
G01*
X136715500Y-55260000D02*
X136715500Y-57800000D01*
X146875500Y-55260000D02*
X146875500Y-57800000D01*
X136715500Y-64404000D02*
X136715500Y-61610000D01*
X146875500Y-64404000D02*
X146875500Y-61610000D01*
X145859500Y-65420000D02*
X146875500Y-64404000D01*
X138620500Y-64150000D02*
G75*
G03*
X138620500Y-64150000I-635000J0D01*
G01*
X146240500Y-64150000D02*
G75*
G03*
X146240500Y-64150000I-635000J0D01*
G01*
X143500172Y-61721553D02*
X143908344Y-62207991D01*
X144795500Y-59690000D02*
G75*
G03*
X144795500Y-59690000I-3000000J0D01*
G01*
%TO.C,J1*%
X139700000Y-93535500D02*
X129540000Y-93535500D01*
X129540000Y-96075500D02*
X139700000Y-96075500D01*
X139700000Y-96075500D02*
X139700000Y-93535500D01*
X129540000Y-96075500D02*
X129540000Y-93535500D01*
X129540000Y-92265500D02*
X139700000Y-92265500D01*
X139700000Y-93535500D02*
X139700000Y-92265500D01*
X129540000Y-93535500D02*
X129540000Y-92265500D01*
D13*
%TO.C,D3*%
X137610000Y-89407538D02*
G75*
G02*
X132060000Y-90952830I-2990000J-462D01*
G01*
X137610000Y-89408462D02*
G75*
G03*
X132060000Y-87863170I-2990000J462D01*
G01*
X137120000Y-89408000D02*
G75*
G03*
X137120000Y-89408000I-2500000J0D01*
G01*
X132060000Y-90953000D02*
X132060000Y-87863000D01*
%TO.C,J2*%
D10*
X135915333Y-57498500D02*
X135982000Y-57465166D01*
X136082000Y-57465166D01*
X136182000Y-57498500D01*
X136248666Y-57565166D01*
X136282000Y-57631833D01*
X136315333Y-57765166D01*
X136315333Y-57865166D01*
X136282000Y-57998500D01*
X136248666Y-58065166D01*
X136182000Y-58131833D01*
X136082000Y-58165166D01*
X136015333Y-58165166D01*
X135915333Y-58131833D01*
X135882000Y-58098500D01*
X135882000Y-57865166D01*
X136015333Y-57865166D01*
X135582000Y-58165166D02*
X135582000Y-57465166D01*
X135182000Y-58165166D01*
X135182000Y-57465166D01*
X134848666Y-58165166D02*
X134848666Y-57465166D01*
X134682000Y-57465166D01*
X134582000Y-57498500D01*
X134515333Y-57565166D01*
X134482000Y-57631833D01*
X134448666Y-57765166D01*
X134448666Y-57865166D01*
X134482000Y-57998500D01*
X134515333Y-58065166D01*
X134582000Y-58131833D01*
X134682000Y-58165166D01*
X134848666Y-58165166D01*
X134016666Y-57465166D02*
X133783333Y-58165166D01*
X133550000Y-57465166D01*
X133316666Y-57898500D02*
X132783333Y-57898500D01*
X133050000Y-58165166D02*
X133050000Y-57631833D01*
%TO.C,RV2*%
D14*
X127892023Y-65221638D02*
X128213757Y-64762019D01*
X128443566Y-65221638D02*
X128443566Y-64256438D01*
X128075871Y-64256438D01*
X127983947Y-64302400D01*
X127937985Y-64348361D01*
X127892023Y-64440285D01*
X127892023Y-64578171D01*
X127937985Y-64670095D01*
X127983947Y-64716057D01*
X128075871Y-64762019D01*
X128443566Y-64762019D01*
X127616252Y-64256438D02*
X127294519Y-65221638D01*
X126972785Y-64256438D01*
X126697014Y-64348361D02*
X126651052Y-64302400D01*
X126559128Y-64256438D01*
X126329319Y-64256438D01*
X126237395Y-64302400D01*
X126191433Y-64348361D01*
X126145471Y-64440285D01*
X126145471Y-64532209D01*
X126191433Y-64670095D01*
X126742976Y-65221638D01*
X126145471Y-65221638D01*
%TO.C,RV1*%
X142370023Y-65221638D02*
X142691757Y-64762019D01*
X142921566Y-65221638D02*
X142921566Y-64256438D01*
X142553871Y-64256438D01*
X142461947Y-64302400D01*
X142415985Y-64348361D01*
X142370023Y-64440285D01*
X142370023Y-64578171D01*
X142415985Y-64670095D01*
X142461947Y-64716057D01*
X142553871Y-64762019D01*
X142921566Y-64762019D01*
X142094252Y-64256438D02*
X141772519Y-65221638D01*
X141450785Y-64256438D01*
X140623471Y-65221638D02*
X141175014Y-65221638D01*
X140899242Y-65221638D02*
X140899242Y-64256438D01*
X140991166Y-64394323D01*
X141083090Y-64486247D01*
X141175014Y-64532209D01*
%TO.C,J1*%
D11*
X131229047Y-93262404D02*
X131229047Y-92462404D01*
X130848095Y-93262404D02*
X130848095Y-92462404D01*
X130390952Y-93262404D01*
X130390952Y-92462404D01*
X133959523Y-92500500D02*
X134035714Y-92462404D01*
X134150000Y-92462404D01*
X134264285Y-92500500D01*
X134340476Y-92576690D01*
X134378571Y-92652880D01*
X134416666Y-92805261D01*
X134416666Y-92919547D01*
X134378571Y-93071928D01*
X134340476Y-93148119D01*
X134264285Y-93224309D01*
X134150000Y-93262404D01*
X134073809Y-93262404D01*
X133959523Y-93224309D01*
X133921428Y-93186214D01*
X133921428Y-92919547D01*
X134073809Y-92919547D01*
X133578571Y-93262404D02*
X133578571Y-92462404D01*
X133121428Y-93262404D01*
X133121428Y-92462404D01*
X132740476Y-93262404D02*
X132740476Y-92462404D01*
X132550000Y-92462404D01*
X132435714Y-92500500D01*
X132359523Y-92576690D01*
X132321428Y-92652880D01*
X132283333Y-92805261D01*
X132283333Y-92919547D01*
X132321428Y-93071928D01*
X132359523Y-93148119D01*
X132435714Y-93224309D01*
X132550000Y-93262404D01*
X132740476Y-93262404D01*
X136575714Y-93224309D02*
X136461428Y-93262404D01*
X136270952Y-93262404D01*
X136194761Y-93224309D01*
X136156666Y-93186214D01*
X136118571Y-93110023D01*
X136118571Y-93033833D01*
X136156666Y-92957642D01*
X136194761Y-92919547D01*
X136270952Y-92881452D01*
X136423333Y-92843357D01*
X136499523Y-92805261D01*
X136537619Y-92767166D01*
X136575714Y-92690976D01*
X136575714Y-92614785D01*
X136537619Y-92538595D01*
X136499523Y-92500500D01*
X136423333Y-92462404D01*
X136232857Y-92462404D01*
X136118571Y-92500500D01*
X135851904Y-92462404D02*
X135661428Y-93262404D01*
X135509047Y-92690976D01*
X135356666Y-93262404D01*
X135166190Y-92462404D01*
X139230000Y-92462404D02*
X139077619Y-92462404D01*
X139001428Y-92500500D01*
X138925238Y-92576690D01*
X138887142Y-92729071D01*
X138887142Y-92995738D01*
X138925238Y-93148119D01*
X139001428Y-93224309D01*
X139077619Y-93262404D01*
X139230000Y-93262404D01*
X139306190Y-93224309D01*
X139382380Y-93148119D01*
X139420476Y-92995738D01*
X139420476Y-92729071D01*
X139382380Y-92576690D01*
X139306190Y-92500500D01*
X139230000Y-92462404D01*
X138544285Y-92462404D02*
X138544285Y-93110023D01*
X138506190Y-93186214D01*
X138468095Y-93224309D01*
X138391904Y-93262404D01*
X138239523Y-93262404D01*
X138163333Y-93224309D01*
X138125238Y-93186214D01*
X138087142Y-93110023D01*
X138087142Y-92462404D01*
X137820476Y-92462404D02*
X137363333Y-92462404D01*
X137591904Y-93262404D02*
X137591904Y-92462404D01*
%TO.C,D3*%
X135421595Y-85923380D02*
X135421595Y-84923380D01*
X135183500Y-84923380D01*
X135040642Y-84971000D01*
X134945404Y-85066238D01*
X134897785Y-85161476D01*
X134850166Y-85351952D01*
X134850166Y-85494809D01*
X134897785Y-85685285D01*
X134945404Y-85780523D01*
X135040642Y-85875761D01*
X135183500Y-85923380D01*
X135421595Y-85923380D01*
X134516833Y-84923380D02*
X133897785Y-84923380D01*
X134231119Y-85304333D01*
X134088261Y-85304333D01*
X133993023Y-85351952D01*
X133945404Y-85399571D01*
X133897785Y-85494809D01*
X133897785Y-85732904D01*
X133945404Y-85828142D01*
X133993023Y-85875761D01*
X134088261Y-85923380D01*
X134373976Y-85923380D01*
X134469214Y-85875761D01*
X134516833Y-85828142D01*
%TD*%
M02*
