%TF.GenerationSoftware,KiCad,Pcbnew,(5.99.0-1252-g0c2d08192)*%
%TF.CreationDate,2020-04-08T11:52:56+03:00*%
%TF.ProjectId,orkman,6f726b6d-616e-42e6-9b69-6361645f7063,rev?*%
%TF.SameCoordinates,Original*%
%TF.FileFunction,Copper,L2,Bot*%
%TF.FilePolarity,Positive*%
%FSLAX46Y46*%
G04 Gerber Fmt 4.6, Leading zero omitted, Abs format (unit mm)*
G04 Created by KiCad (PCBNEW (5.99.0-1252-g0c2d08192)) date 2020-04-08 11:52:56*
%MOMM*%
%LPD*%
G01*
G04 APERTURE LIST*
%TA.AperFunction,NonConductor*%
%ADD10C,0.130000*%
%TD*%
%TA.AperFunction,ComponentPad*%
%ADD11O,1.930400X1.930400*%
%TD*%
%TA.AperFunction,ComponentPad*%
%ADD12R,1.930400X1.930400*%
%TD*%
%TA.AperFunction,ComponentPad*%
%ADD13O,2.400000X1.600000*%
%TD*%
%TA.AperFunction,ComponentPad*%
%ADD14R,2.400000X1.600000*%
%TD*%
%TA.AperFunction,ComponentPad*%
%ADD15O,3.000000X3.000000*%
%TD*%
%TA.AperFunction,ComponentPad*%
%ADD16O,1.600000X1.600000*%
%TD*%
%TA.AperFunction,ComponentPad*%
%ADD17C,1.600000*%
%TD*%
%TA.AperFunction,ComponentPad*%
%ADD18O,2.200000X2.200000*%
%TD*%
%TA.AperFunction,ComponentPad*%
%ADD19R,2.200000X2.200000*%
%TD*%
%TA.AperFunction,ComponentPad*%
%ADD20C,1.800000*%
%TD*%
%TA.AperFunction,ComponentPad*%
%ADD21R,1.800000X1.800000*%
%TD*%
%TA.AperFunction,ComponentPad*%
%ADD22R,1.600000X1.600000*%
%TD*%
%TA.AperFunction,Conductor*%
%ADD23C,0.609600*%
%TD*%
%TA.AperFunction,Conductor*%
%ADD24C,0.381000*%
%TD*%
%TA.AperFunction,Conductor*%
%ADD25C,0.254000*%
%TD*%
G04 APERTURE END LIST*
D10*
X127666642Y-69923571D02*
X127523785Y-70456904D01*
X127380928Y-69923571D01*
X127038071Y-69656904D02*
X126980928Y-69656904D01*
X126923785Y-69695000D01*
X126895214Y-69733095D01*
X126866642Y-69809285D01*
X126838071Y-69961666D01*
X126838071Y-70152142D01*
X126866642Y-70304523D01*
X126895214Y-70380714D01*
X126923785Y-70418809D01*
X126980928Y-70456904D01*
X127038071Y-70456904D01*
X127095214Y-70418809D01*
X127123785Y-70380714D01*
X127152357Y-70304523D01*
X127180928Y-70152142D01*
X127180928Y-69961666D01*
X127152357Y-69809285D01*
X127123785Y-69733095D01*
X127095214Y-69695000D01*
X127038071Y-69656904D01*
X126580928Y-70380714D02*
X126552357Y-70418809D01*
X126580928Y-70456904D01*
X126609500Y-70418809D01*
X126580928Y-70380714D01*
X126580928Y-70456904D01*
X125980928Y-70456904D02*
X126323785Y-70456904D01*
X126152357Y-70456904D02*
X126152357Y-69656904D01*
X126209500Y-69771190D01*
X126266642Y-69847380D01*
X126323785Y-69885476D01*
X129723785Y-71021095D02*
X129695214Y-70983000D01*
X129638071Y-70944904D01*
X129495214Y-70944904D01*
X129438071Y-70983000D01*
X129409500Y-71021095D01*
X129380928Y-71097285D01*
X129380928Y-71173476D01*
X129409500Y-71287761D01*
X129752357Y-71744904D01*
X129380928Y-71744904D01*
X129009500Y-70944904D02*
X128952357Y-70944904D01*
X128895214Y-70983000D01*
X128866642Y-71021095D01*
X128838071Y-71097285D01*
X128809500Y-71249666D01*
X128809500Y-71440142D01*
X128838071Y-71592523D01*
X128866642Y-71668714D01*
X128895214Y-71706809D01*
X128952357Y-71744904D01*
X129009500Y-71744904D01*
X129066642Y-71706809D01*
X129095214Y-71668714D01*
X129123785Y-71592523D01*
X129152357Y-71440142D01*
X129152357Y-71249666D01*
X129123785Y-71097285D01*
X129095214Y-71021095D01*
X129066642Y-70983000D01*
X129009500Y-70944904D01*
X128580928Y-71021095D02*
X128552357Y-70983000D01*
X128495214Y-70944904D01*
X128352357Y-70944904D01*
X128295214Y-70983000D01*
X128266642Y-71021095D01*
X128238071Y-71097285D01*
X128238071Y-71173476D01*
X128266642Y-71287761D01*
X128609500Y-71744904D01*
X128238071Y-71744904D01*
X127866642Y-70944904D02*
X127809500Y-70944904D01*
X127752357Y-70983000D01*
X127723785Y-71021095D01*
X127695214Y-71097285D01*
X127666642Y-71249666D01*
X127666642Y-71440142D01*
X127695214Y-71592523D01*
X127723785Y-71668714D01*
X127752357Y-71706809D01*
X127809500Y-71744904D01*
X127866642Y-71744904D01*
X127923785Y-71706809D01*
X127952357Y-71668714D01*
X127980928Y-71592523D01*
X128009500Y-71440142D01*
X128009500Y-71249666D01*
X127980928Y-71097285D01*
X127952357Y-71021095D01*
X127923785Y-70983000D01*
X127866642Y-70944904D01*
X127409500Y-71440142D02*
X126952357Y-71440142D01*
X126552357Y-70944904D02*
X126495214Y-70944904D01*
X126438071Y-70983000D01*
X126409500Y-71021095D01*
X126380928Y-71097285D01*
X126352357Y-71249666D01*
X126352357Y-71440142D01*
X126380928Y-71592523D01*
X126409500Y-71668714D01*
X126438071Y-71706809D01*
X126495214Y-71744904D01*
X126552357Y-71744904D01*
X126609500Y-71706809D01*
X126638071Y-71668714D01*
X126666642Y-71592523D01*
X126695214Y-71440142D01*
X126695214Y-71249666D01*
X126666642Y-71097285D01*
X126638071Y-71021095D01*
X126609500Y-70983000D01*
X126552357Y-70944904D01*
X125838071Y-71211571D02*
X125838071Y-71744904D01*
X125980928Y-70906809D02*
X126123785Y-71478238D01*
X125752357Y-71478238D01*
X125523785Y-71440142D02*
X125066642Y-71440142D01*
X124666642Y-70944904D02*
X124609500Y-70944904D01*
X124552357Y-70983000D01*
X124523785Y-71021095D01*
X124495214Y-71097285D01*
X124466642Y-71249666D01*
X124466642Y-71440142D01*
X124495214Y-71592523D01*
X124523785Y-71668714D01*
X124552357Y-71706809D01*
X124609500Y-71744904D01*
X124666642Y-71744904D01*
X124723785Y-71706809D01*
X124752357Y-71668714D01*
X124780928Y-71592523D01*
X124809500Y-71440142D01*
X124809500Y-71249666D01*
X124780928Y-71097285D01*
X124752357Y-71021095D01*
X124723785Y-70983000D01*
X124666642Y-70944904D01*
X124123785Y-71287761D02*
X124180928Y-71249666D01*
X124209500Y-71211571D01*
X124238071Y-71135380D01*
X124238071Y-71097285D01*
X124209500Y-71021095D01*
X124180928Y-70983000D01*
X124123785Y-70944904D01*
X124009500Y-70944904D01*
X123952357Y-70983000D01*
X123923785Y-71021095D01*
X123895214Y-71097285D01*
X123895214Y-71135380D01*
X123923785Y-71211571D01*
X123952357Y-71249666D01*
X124009500Y-71287761D01*
X124123785Y-71287761D01*
X124180928Y-71325857D01*
X124209500Y-71363952D01*
X124238071Y-71440142D01*
X124238071Y-71592523D01*
X124209500Y-71668714D01*
X124180928Y-71706809D01*
X124123785Y-71744904D01*
X124009500Y-71744904D01*
X123952357Y-71706809D01*
X123923785Y-71668714D01*
X123895214Y-71592523D01*
X123895214Y-71440142D01*
X123923785Y-71363952D01*
X123952357Y-71325857D01*
X124009500Y-71287761D01*
D11*
%TO.P,J2,2,GND*%
%TO.N,GND*%
X135826500Y-56007000D03*
D12*
%TO.P,J2,1,PWR*%
%TO.N,VIN*%
X133286500Y-56007000D03*
%TD*%
D13*
%TO.P,U1,8,V+*%
%TO.N,GND*%
X138430000Y-76835000D03*
%TO.P,U1,4,V-*%
%TO.N,+9V*%
X130810000Y-84455000D03*
%TO.P,U1,7*%
%TO.N,Net-(C2-Pad2)*%
X138430000Y-79375000D03*
%TO.P,U1,3,+*%
%TO.N,VREF*%
X130810000Y-81915000D03*
%TO.P,U1,6,-*%
%TO.N,Net-(C2-Pad1)*%
X138430000Y-81915000D03*
%TO.P,U1,2,-*%
%TO.N,Net-(C4-Pad1)*%
X130810000Y-79375000D03*
%TO.P,U1,5,+*%
%TO.N,VREF*%
X138430000Y-84455000D03*
D14*
%TO.P,U1,1*%
%TO.N,Net-(C4-Pad2)*%
X130810000Y-76835000D03*
%TD*%
D15*
%TO.P,RV2,*%
%TO.N,*%
X132317500Y-59690000D03*
X122317500Y-59690000D03*
D11*
%TO.P,RV2,3,3*%
%TO.N,Net-(C5-Pad2)*%
X124777500Y-66690000D03*
%TO.P,RV2,2,2*%
%TO.N,OUT*%
X127317500Y-66690000D03*
D12*
%TO.P,RV2,1,1*%
%TO.N,GND*%
X129857500Y-66690000D03*
%TD*%
D15*
%TO.P,RV1,*%
%TO.N,*%
X146795500Y-59690000D03*
X136795500Y-59690000D03*
D11*
%TO.P,RV1,3,3*%
%TO.N,Net-(R2-Pad1)*%
X139255500Y-66690000D03*
%TO.P,RV1,2,2*%
X141795500Y-66690000D03*
D12*
%TO.P,RV1,1,1*%
%TO.N,Net-(C1-Pad2)*%
X144335500Y-66690000D03*
%TD*%
D16*
%TO.P,R9,2*%
%TO.N,GND*%
X131927600Y-72847200D03*
D17*
%TO.P,R9,1*%
%TO.N,VREF*%
X124307600Y-72847200D03*
%TD*%
D16*
%TO.P,R8,2*%
%TO.N,VREF*%
X124307600Y-69799200D03*
D17*
%TO.P,R8,1*%
%TO.N,+9V*%
X131927600Y-69799200D03*
%TD*%
D16*
%TO.P,R7,2*%
%TO.N,+9V*%
X144907000Y-69850000D03*
D17*
%TO.P,R7,1*%
%TO.N,Net-(D4-Pad1)*%
X137287000Y-69850000D03*
%TD*%
D16*
%TO.P,R6,2*%
%TO.N,VIN*%
X146685000Y-87693500D03*
D17*
%TO.P,R6,1*%
%TO.N,Net-(D3-Pad2)*%
X139065000Y-87693500D03*
%TD*%
D16*
%TO.P,R5,2*%
%TO.N,Net-(C4-Pad2)*%
X124650500Y-75565000D03*
D17*
%TO.P,R5,1*%
%TO.N,Net-(C4-Pad1)*%
X124650500Y-83185000D03*
%TD*%
D16*
%TO.P,R4,2*%
%TO.N,Net-(C4-Pad1)*%
X127711200Y-83185000D03*
D17*
%TO.P,R4,1*%
%TO.N,Net-(C3-Pad2)*%
X127711200Y-75565000D03*
%TD*%
D16*
%TO.P,R3,2*%
%TO.N,Net-(C2-Pad2)*%
X141541500Y-75501500D03*
D17*
%TO.P,R3,1*%
%TO.N,Net-(C2-Pad1)*%
X141541500Y-83121500D03*
%TD*%
D16*
%TO.P,R2,2*%
%TO.N,Net-(C2-Pad1)*%
X144589500Y-83121500D03*
D17*
%TO.P,R2,1*%
%TO.N,Net-(R2-Pad1)*%
X144589500Y-75501500D03*
%TD*%
D16*
%TO.P,R1,2*%
%TO.N,GND*%
X146685000Y-90741500D03*
D17*
%TO.P,R1,1*%
%TO.N,IN*%
X139065000Y-90741500D03*
%TD*%
D11*
%TO.P,J1,4,OUT*%
%TO.N,OUT*%
X138430000Y-94805500D03*
%TO.P,J1,3,SW*%
%TO.N,LED-*%
X135890000Y-94805500D03*
%TO.P,J1,2,GND*%
%TO.N,GND*%
X133350000Y-94805500D03*
D12*
%TO.P,J1,1,IN*%
%TO.N,IN*%
X130810000Y-94805500D03*
%TD*%
D18*
%TO.P,D4,2,A*%
%TO.N,VIN*%
X134620000Y-62865000D03*
D19*
%TO.P,D4,1,K*%
%TO.N,Net-(D4-Pad1)*%
X134620000Y-73025000D03*
%TD*%
D20*
%TO.P,D3,2,A*%
%TO.N,Net-(D3-Pad2)*%
X135890000Y-89408000D03*
D21*
%TO.P,D3,1,K*%
%TO.N,LED-*%
X133350000Y-89408000D03*
%TD*%
D20*
%TO.P,D2,2,A*%
%TO.N,Net-(C4-Pad1)*%
X127000000Y-87376000D03*
D21*
%TO.P,D2,1,K*%
%TO.N,Net-(C4-Pad2)*%
X124460000Y-87376000D03*
%TD*%
D20*
%TO.P,D1,2,A*%
%TO.N,Net-(C4-Pad2)*%
X127000000Y-93726000D03*
D21*
%TO.P,D1,1,K*%
%TO.N,Net-(C4-Pad1)*%
X124460000Y-93726000D03*
%TD*%
D17*
%TO.P,C7,2*%
%TO.N,GND*%
X126087500Y-61531500D03*
D22*
%TO.P,C7,1*%
%TO.N,VREF*%
X128587500Y-61531500D03*
%TD*%
D17*
%TO.P,C6,2*%
%TO.N,GND*%
X140565500Y-61595000D03*
D22*
%TO.P,C6,1*%
%TO.N,+9V*%
X143065500Y-61595000D03*
%TD*%
D17*
%TO.P,C5,2*%
%TO.N,Net-(C5-Pad2)*%
X121716800Y-66120000D03*
%TO.P,C5,1*%
%TO.N,Net-(C4-Pad2)*%
X121716800Y-71120000D03*
%TD*%
%TO.P,C4,2*%
%TO.N,Net-(C4-Pad2)*%
X121666000Y-77105500D03*
%TO.P,C4,1*%
%TO.N,Net-(C4-Pad1)*%
X121666000Y-82105500D03*
%TD*%
%TO.P,C3,2*%
%TO.N,Net-(C3-Pad2)*%
X137875000Y-72898000D03*
%TO.P,C3,1*%
%TO.N,Net-(C2-Pad2)*%
X142875000Y-72898000D03*
%TD*%
%TO.P,C2,2*%
%TO.N,Net-(C2-Pad2)*%
X147637500Y-76788000D03*
%TO.P,C2,1*%
%TO.N,Net-(C2-Pad1)*%
X147637500Y-81788000D03*
%TD*%
%TO.P,C1,2*%
%TO.N,Net-(C1-Pad2)*%
X146160500Y-93853000D03*
%TO.P,C1,1*%
%TO.N,IN*%
X141160500Y-93853000D03*
%TD*%
D23*
%TO.N,VIN*%
X146685000Y-87693500D02*
X143284699Y-84293199D01*
X143284699Y-84293199D02*
X143284699Y-75212699D01*
X143284699Y-75212699D02*
X138591801Y-70519801D01*
X138591801Y-70519801D02*
X138591801Y-68160001D01*
X134620000Y-64188200D02*
X134620000Y-62865000D01*
X138591801Y-68160001D02*
X134620000Y-64188200D01*
D24*
%TO.N,Net-(C2-Pad2)*%
X147637500Y-76788000D02*
X143747500Y-72898000D01*
X143747500Y-72898000D02*
X142875000Y-72898000D01*
%TO.N,Net-(C4-Pad2)*%
X127000000Y-93726000D02*
X125709499Y-95016501D01*
X125709499Y-95016501D02*
X123247599Y-95016501D01*
X123247599Y-95016501D02*
X123169499Y-94938401D01*
X123169499Y-94938401D02*
X123169499Y-88666501D01*
X123169499Y-88666501D02*
X124460000Y-87376000D01*
X124460000Y-87376000D02*
X125841001Y-85994999D01*
X125841001Y-85994999D02*
X125841001Y-81280501D01*
X125841001Y-81280501D02*
X121666000Y-77105500D01*
D23*
%TO.N,+9V*%
X143065500Y-61595000D02*
X145805501Y-64335001D01*
X145805501Y-64335001D02*
X145805501Y-68951499D01*
X145805501Y-68951499D02*
X144907000Y-69850000D01*
%TO.N,VREF*%
X124307600Y-69799200D02*
X125107599Y-68999201D01*
X125107599Y-68999201D02*
X130387341Y-68999201D01*
X130387341Y-68999201D02*
X131327501Y-68059041D01*
X131327501Y-68059041D02*
X131327501Y-64271501D01*
X131327501Y-64271501D02*
X128587500Y-61531500D01*
D24*
%TO.N,OUT*%
X123117099Y-66661463D02*
X123117099Y-67046599D01*
X125961799Y-65334299D02*
X124126763Y-65334299D01*
X123117099Y-67046599D02*
X123117099Y-71700901D01*
X124126763Y-65334299D02*
X123117099Y-66343963D01*
X123117099Y-66343963D02*
X123117099Y-67046599D01*
D23*
%TO.N,VIN*%
X134620000Y-62865000D02*
X134620000Y-57277000D01*
X134620000Y-57277000D02*
X133350000Y-56007000D01*
D24*
%TO.N,OUT*%
X131209549Y-89770451D02*
X133831598Y-92392500D01*
X133831598Y-92392500D02*
X136017000Y-92392500D01*
X136017000Y-92392500D02*
X138430000Y-94805500D01*
%TO.N,Net-(D3-Pad2)*%
X135890000Y-89408000D02*
X137350500Y-89408000D01*
X137350500Y-89408000D02*
X139065000Y-87693500D01*
%TO.N,Net-(C2-Pad1)*%
X144589500Y-83121500D02*
X146304000Y-83121500D01*
X146304000Y-83121500D02*
X147637500Y-81788000D01*
%TO.N,OUT*%
X131209549Y-89770451D02*
X131209549Y-86950049D01*
X129219490Y-82931348D02*
X129219490Y-83759510D01*
X131209549Y-86950049D02*
X129219490Y-84959990D01*
X129219490Y-84959990D02*
X129219490Y-83759510D01*
%TO.N,Net-(C4-Pad2)*%
X124650500Y-75565000D02*
X123519130Y-75565000D01*
X123519130Y-75565000D02*
X121716800Y-73762670D01*
X121716800Y-73762670D02*
X121716800Y-71120000D01*
%TO.N,OUT*%
X126522071Y-80233929D02*
X129219490Y-82931348D01*
X123736159Y-74037701D02*
X123117099Y-73418641D01*
X126522071Y-80233929D02*
X126520699Y-80232557D01*
X126520699Y-80232557D02*
X126520699Y-75679359D01*
X124879041Y-74037701D02*
X123736159Y-74037701D01*
X126520699Y-75679359D02*
X124879041Y-74037701D01*
X123117099Y-73418641D02*
X123117099Y-71700901D01*
X127635000Y-66690000D02*
X126279299Y-65334299D01*
X126279299Y-65334299D02*
X124444263Y-65334299D01*
%TO.N,Net-(C4-Pad2)*%
X121666000Y-77105500D02*
X123110000Y-77105500D01*
X123110000Y-77105500D02*
X124650500Y-75565000D01*
D23*
%TO.N,VREF*%
X130810000Y-81915000D02*
X129105199Y-80210199D01*
X129105199Y-75027893D02*
X126924506Y-72847200D01*
X126924506Y-72847200D02*
X124307600Y-72847200D01*
X129105199Y-80210199D02*
X129105199Y-75027893D01*
%TO.N,+9V*%
X131927600Y-69799200D02*
X130622799Y-71104001D01*
X132514810Y-82750190D02*
X130810000Y-84455000D01*
X130622799Y-71104001D02*
X130622799Y-73929999D01*
X132514810Y-75822010D02*
X132514810Y-82750190D01*
X130622799Y-73929999D02*
X132514810Y-75822010D01*
%TD*%
%TO.N,GND*%
G36*
X120836119Y-78281101D02*
G01*
X120845132Y-78287412D01*
X121052868Y-78407348D01*
X121062840Y-78411998D01*
X121288247Y-78494040D01*
X121298874Y-78496887D01*
X121535103Y-78538541D01*
X121546064Y-78539500D01*
X121785936Y-78539500D01*
X121796897Y-78538541D01*
X121910215Y-78518560D01*
X125014502Y-81622848D01*
X125014502Y-81793062D01*
X124781397Y-81751959D01*
X124770436Y-81751000D01*
X124530564Y-81751000D01*
X124519603Y-81751959D01*
X124283374Y-81793613D01*
X124272747Y-81796460D01*
X124047340Y-81878502D01*
X124037368Y-81883152D01*
X123829632Y-82003088D01*
X123820619Y-82009399D01*
X123636866Y-82163587D01*
X123629087Y-82171366D01*
X123474899Y-82355119D01*
X123468588Y-82364132D01*
X123348652Y-82571868D01*
X123344002Y-82581840D01*
X123261960Y-82807247D01*
X123259113Y-82817874D01*
X123217459Y-83054103D01*
X123216500Y-83065064D01*
X123216500Y-83304936D01*
X123217459Y-83315897D01*
X123259113Y-83552126D01*
X123261960Y-83562753D01*
X123344002Y-83788160D01*
X123348652Y-83798132D01*
X123468588Y-84005868D01*
X123474899Y-84014881D01*
X123629087Y-84198634D01*
X123636866Y-84206413D01*
X123820619Y-84360601D01*
X123829632Y-84366912D01*
X124037368Y-84486848D01*
X124047340Y-84491498D01*
X124272747Y-84573540D01*
X124283374Y-84576387D01*
X124519603Y-84618041D01*
X124530564Y-84619000D01*
X124770436Y-84619000D01*
X124781397Y-84618041D01*
X125014501Y-84576938D01*
X125014501Y-85652651D01*
X124832990Y-85834163D01*
X123551742Y-85834163D01*
X123535366Y-85836319D01*
X123256142Y-85911137D01*
X123231662Y-85923880D01*
X123075410Y-86054990D01*
X123061239Y-86071879D01*
X122960641Y-86246120D01*
X122953100Y-86266837D01*
X122919122Y-86459538D01*
X122918163Y-86470499D01*
X122918163Y-87748992D01*
X122650553Y-88016602D01*
X122635997Y-88025786D01*
X122622325Y-88037422D01*
X122566326Y-88100829D01*
X122546342Y-88120812D01*
X122540470Y-88127585D01*
X122527993Y-88144232D01*
X122477613Y-88201277D01*
X122467756Y-88216283D01*
X122457295Y-88238563D01*
X122442531Y-88258263D01*
X122433909Y-88274011D01*
X122407190Y-88345284D01*
X122374768Y-88414341D01*
X122369460Y-88431895D01*
X122365971Y-88455236D01*
X122357172Y-88478710D01*
X122353317Y-88496244D01*
X122346862Y-88583103D01*
X122343693Y-88604306D01*
X122343000Y-88613629D01*
X122343000Y-88635076D01*
X122337117Y-88714250D01*
X122338338Y-88732161D01*
X122343000Y-88754000D01*
X122342999Y-94845810D01*
X122339202Y-94862591D01*
X122337762Y-94880487D01*
X122342999Y-94964896D01*
X122342999Y-94993178D01*
X122343636Y-95002120D01*
X122346587Y-95022726D01*
X122351299Y-95098675D01*
X122354939Y-95116254D01*
X122363297Y-95139407D01*
X122366787Y-95163777D01*
X122371826Y-95181009D01*
X122403330Y-95250298D01*
X122429235Y-95322057D01*
X122437895Y-95338224D01*
X122451934Y-95357196D01*
X122462307Y-95380012D01*
X122471980Y-95395137D01*
X122528829Y-95461115D01*
X122541587Y-95478355D01*
X122547690Y-95485438D01*
X122562851Y-95500598D01*
X122614679Y-95560747D01*
X122628205Y-95572548D01*
X122629563Y-95573428D01*
X122681936Y-95619683D01*
X122701910Y-95639658D01*
X122708685Y-95645531D01*
X122725323Y-95658001D01*
X122782374Y-95708387D01*
X122797379Y-95718244D01*
X122819666Y-95728708D01*
X122839363Y-95743470D01*
X122855110Y-95752091D01*
X122926360Y-95778800D01*
X122995438Y-95811233D01*
X123012993Y-95816541D01*
X123036342Y-95820031D01*
X123059808Y-95828827D01*
X123077342Y-95832682D01*
X123164168Y-95839135D01*
X123185400Y-95842308D01*
X123194726Y-95843001D01*
X123216191Y-95843001D01*
X123295347Y-95848883D01*
X123313258Y-95847662D01*
X123335093Y-95843001D01*
X125616908Y-95843001D01*
X125633689Y-95846798D01*
X125651585Y-95848238D01*
X125735994Y-95843001D01*
X125764277Y-95843001D01*
X125773218Y-95842364D01*
X125793824Y-95839414D01*
X125869773Y-95834701D01*
X125887353Y-95831060D01*
X125910500Y-95822704D01*
X125934875Y-95819213D01*
X125952108Y-95814174D01*
X126021395Y-95782670D01*
X126093154Y-95756765D01*
X126109322Y-95748105D01*
X126128291Y-95734068D01*
X126151111Y-95723693D01*
X126166236Y-95714020D01*
X126232216Y-95657168D01*
X126249453Y-95644413D01*
X126256536Y-95638310D01*
X126271693Y-95623152D01*
X126331846Y-95571321D01*
X126343647Y-95557794D01*
X126355798Y-95539048D01*
X126666782Y-95228064D01*
X126907417Y-95262312D01*
X126918072Y-95262917D01*
X127167593Y-95255948D01*
X127178198Y-95254749D01*
X127422977Y-95205837D01*
X127433228Y-95202868D01*
X127666267Y-95113413D01*
X127675871Y-95108760D01*
X127890506Y-94981319D01*
X127899188Y-94975114D01*
X128089283Y-94813331D01*
X128096796Y-94805752D01*
X128256914Y-94614254D01*
X128263042Y-94605517D01*
X128388606Y-94389779D01*
X128393175Y-94380134D01*
X128480593Y-94146323D01*
X128483471Y-94136046D01*
X128530302Y-93890553D01*
X128531417Y-93879330D01*
X128534078Y-93602098D01*
X128533179Y-93590856D01*
X128491070Y-93344508D01*
X128488389Y-93334178D01*
X128405476Y-93098732D01*
X128401092Y-93089001D01*
X128279694Y-92870892D01*
X128273734Y-92862039D01*
X128117322Y-92667502D01*
X128109956Y-92659780D01*
X127923003Y-92494378D01*
X127914440Y-92488007D01*
X127702291Y-92356470D01*
X127692778Y-92351633D01*
X127461500Y-92257721D01*
X127451308Y-92254556D01*
X127207513Y-92200954D01*
X127196934Y-92199552D01*
X126947592Y-92187794D01*
X126936928Y-92188194D01*
X126689170Y-92218614D01*
X126678725Y-92220806D01*
X126439635Y-92292537D01*
X126429709Y-92296457D01*
X126206123Y-92407446D01*
X126197000Y-92412982D01*
X125995311Y-92560056D01*
X125987250Y-92567051D01*
X125947774Y-92607645D01*
X125924863Y-92522142D01*
X125912120Y-92497662D01*
X125781010Y-92341410D01*
X125764121Y-92327239D01*
X125589880Y-92226641D01*
X125569163Y-92219100D01*
X125376462Y-92185122D01*
X125365501Y-92184163D01*
X123995999Y-92184163D01*
X123995999Y-89008846D01*
X124087008Y-88917837D01*
X125368258Y-88917837D01*
X125384634Y-88915681D01*
X125663859Y-88840863D01*
X125688339Y-88828120D01*
X125844590Y-88697010D01*
X125858761Y-88680121D01*
X125958221Y-88507850D01*
X125965187Y-88515294D01*
X125973112Y-88522442D01*
X126171941Y-88673361D01*
X126180957Y-88679071D01*
X126402371Y-88794332D01*
X126412220Y-88798442D01*
X126649889Y-88874749D01*
X126660290Y-88877140D01*
X126907417Y-88912312D01*
X126918072Y-88912917D01*
X127167593Y-88905948D01*
X127178198Y-88904749D01*
X127422977Y-88855837D01*
X127433228Y-88852868D01*
X127666267Y-88763413D01*
X127675871Y-88758760D01*
X127890506Y-88631319D01*
X127899188Y-88625114D01*
X128089283Y-88463331D01*
X128096796Y-88455752D01*
X128256914Y-88264254D01*
X128263042Y-88255517D01*
X128388606Y-88039779D01*
X128393175Y-88030134D01*
X128480593Y-87796323D01*
X128483471Y-87786046D01*
X128530302Y-87540553D01*
X128531417Y-87529330D01*
X128534078Y-87252098D01*
X128533179Y-87240856D01*
X128491070Y-86994508D01*
X128488389Y-86984178D01*
X128405476Y-86748732D01*
X128401092Y-86739001D01*
X128279694Y-86520892D01*
X128273734Y-86512039D01*
X128117322Y-86317502D01*
X128109956Y-86309780D01*
X127923003Y-86144378D01*
X127914440Y-86138007D01*
X127702291Y-86006470D01*
X127692778Y-86001633D01*
X127461500Y-85907721D01*
X127451308Y-85904556D01*
X127207513Y-85850954D01*
X127196934Y-85849552D01*
X126947592Y-85837794D01*
X126936928Y-85838194D01*
X126689170Y-85868614D01*
X126678726Y-85870806D01*
X126667501Y-85874174D01*
X126667501Y-84172075D01*
X126689787Y-84198634D01*
X126697566Y-84206413D01*
X126881319Y-84360601D01*
X126890332Y-84366912D01*
X127098068Y-84486848D01*
X127108040Y-84491498D01*
X127333447Y-84573540D01*
X127344074Y-84576387D01*
X127580303Y-84618041D01*
X127591264Y-84619000D01*
X127831136Y-84619000D01*
X127842097Y-84618041D01*
X128078326Y-84576387D01*
X128088953Y-84573540D01*
X128314360Y-84491498D01*
X128324332Y-84486848D01*
X128392991Y-84447208D01*
X128392990Y-84867400D01*
X128389193Y-84884181D01*
X128387753Y-84902076D01*
X128392990Y-84986485D01*
X128392990Y-85014767D01*
X128393627Y-85023709D01*
X128396578Y-85044315D01*
X128401290Y-85120264D01*
X128404930Y-85137843D01*
X128413288Y-85160996D01*
X128416778Y-85185366D01*
X128421817Y-85202598D01*
X128453321Y-85271887D01*
X128479226Y-85343646D01*
X128487886Y-85359813D01*
X128501925Y-85378785D01*
X128512298Y-85401601D01*
X128521971Y-85416726D01*
X128578820Y-85482704D01*
X128591578Y-85499944D01*
X128597681Y-85507027D01*
X128612842Y-85522187D01*
X128664670Y-85582337D01*
X128678199Y-85594139D01*
X128696944Y-85606289D01*
X130383050Y-87292396D01*
X130383049Y-89677861D01*
X130379252Y-89694642D01*
X130377812Y-89712537D01*
X130383049Y-89796946D01*
X130383049Y-89825228D01*
X130383686Y-89834170D01*
X130386637Y-89854776D01*
X130391349Y-89930725D01*
X130394989Y-89948304D01*
X130403347Y-89971457D01*
X130406837Y-89995827D01*
X130411876Y-90013059D01*
X130443380Y-90082348D01*
X130469285Y-90154107D01*
X130477945Y-90170274D01*
X130491984Y-90189246D01*
X130502357Y-90212062D01*
X130512030Y-90227187D01*
X130568879Y-90293165D01*
X130581637Y-90310405D01*
X130587740Y-90317488D01*
X130602901Y-90332648D01*
X130654729Y-90392798D01*
X130668258Y-90404600D01*
X130687003Y-90416750D01*
X133181700Y-92911448D01*
X133190884Y-92926004D01*
X133202519Y-92939675D01*
X133265926Y-92995674D01*
X133285909Y-93015658D01*
X133292684Y-93021532D01*
X133309326Y-93034003D01*
X133366373Y-93084386D01*
X133381379Y-93094243D01*
X133403663Y-93104705D01*
X133423359Y-93119467D01*
X133439107Y-93128089D01*
X133510363Y-93154802D01*
X133579438Y-93187232D01*
X133596992Y-93192540D01*
X133620340Y-93196030D01*
X133643806Y-93204826D01*
X133661339Y-93208681D01*
X133748167Y-93215134D01*
X133769403Y-93218307D01*
X133778726Y-93219000D01*
X133800190Y-93219000D01*
X133879346Y-93224882D01*
X133897258Y-93223661D01*
X133919092Y-93219000D01*
X135651987Y-93219000D01*
X135642229Y-93220493D01*
X135396513Y-93279031D01*
X135386683Y-93282243D01*
X135153827Y-93380127D01*
X135144654Y-93384902D01*
X134930912Y-93519503D01*
X134922642Y-93525712D01*
X134733754Y-93693414D01*
X134726609Y-93700891D01*
X134619627Y-93833003D01*
X134540031Y-93729646D01*
X134533072Y-93721997D01*
X134348337Y-93549729D01*
X134340221Y-93543319D01*
X134129832Y-93403536D01*
X134120778Y-93398538D01*
X133890383Y-93294995D01*
X133880634Y-93291543D01*
X133636423Y-93227019D01*
X133626242Y-93225206D01*
X133560402Y-93218982D01*
X133478000Y-93293961D01*
X133478000Y-94933500D01*
X133222000Y-94933500D01*
X133222000Y-93290457D01*
X133126184Y-93214786D01*
X132856513Y-93279031D01*
X132846683Y-93282243D01*
X132613827Y-93380127D01*
X132604654Y-93384902D01*
X132390912Y-93519503D01*
X132382642Y-93525712D01*
X132345923Y-93558312D01*
X132340063Y-93536442D01*
X132327320Y-93511962D01*
X132196210Y-93355710D01*
X132179321Y-93341539D01*
X132005080Y-93240941D01*
X131984363Y-93233400D01*
X131791662Y-93199422D01*
X131780701Y-93198463D01*
X129836542Y-93198463D01*
X129820166Y-93200619D01*
X129540942Y-93275437D01*
X129516462Y-93288180D01*
X129360210Y-93419290D01*
X129346039Y-93436179D01*
X129245441Y-93610420D01*
X129237900Y-93631137D01*
X129203922Y-93823838D01*
X129202963Y-93834799D01*
X129202963Y-95778958D01*
X129205119Y-95795334D01*
X129279937Y-96074559D01*
X129280947Y-96076500D01*
X120763491Y-96076500D01*
X120767368Y-83223412D01*
X120836119Y-83281101D01*
X120845132Y-83287412D01*
X121052868Y-83407348D01*
X121062840Y-83411998D01*
X121288247Y-83494040D01*
X121298874Y-83496887D01*
X121535103Y-83538541D01*
X121546064Y-83539500D01*
X121785936Y-83539500D01*
X121796897Y-83538541D01*
X122033126Y-83496887D01*
X122043753Y-83494040D01*
X122269160Y-83411998D01*
X122279132Y-83407348D01*
X122486868Y-83287412D01*
X122495881Y-83281101D01*
X122679634Y-83126913D01*
X122687413Y-83119134D01*
X122841601Y-82935381D01*
X122847912Y-82926368D01*
X122967848Y-82718632D01*
X122972498Y-82708660D01*
X123054540Y-82483253D01*
X123057387Y-82472626D01*
X123099041Y-82236397D01*
X123100000Y-82225436D01*
X123100000Y-81985564D01*
X123099041Y-81974603D01*
X123057387Y-81738374D01*
X123054540Y-81727747D01*
X122972498Y-81502340D01*
X122967848Y-81492368D01*
X122847912Y-81284632D01*
X122841601Y-81275619D01*
X122687413Y-81091866D01*
X122679634Y-81084087D01*
X122495881Y-80929899D01*
X122486868Y-80923588D01*
X122279132Y-80803652D01*
X122269160Y-80799002D01*
X122043753Y-80716960D01*
X122033126Y-80714113D01*
X121796897Y-80672459D01*
X121785936Y-80671500D01*
X121546064Y-80671500D01*
X121535103Y-80672459D01*
X121298874Y-80714113D01*
X121288247Y-80716960D01*
X121062840Y-80799002D01*
X121052868Y-80803652D01*
X120845132Y-80923588D01*
X120836119Y-80929899D01*
X120768043Y-80987022D01*
X120768876Y-78224677D01*
X120836119Y-78281101D01*
G37*
D25*
X120836119Y-78281101D02*
X120845132Y-78287412D01*
X121052868Y-78407348D01*
X121062840Y-78411998D01*
X121288247Y-78494040D01*
X121298874Y-78496887D01*
X121535103Y-78538541D01*
X121546064Y-78539500D01*
X121785936Y-78539500D01*
X121796897Y-78538541D01*
X121910215Y-78518560D01*
X125014502Y-81622848D01*
X125014502Y-81793062D01*
X124781397Y-81751959D01*
X124770436Y-81751000D01*
X124530564Y-81751000D01*
X124519603Y-81751959D01*
X124283374Y-81793613D01*
X124272747Y-81796460D01*
X124047340Y-81878502D01*
X124037368Y-81883152D01*
X123829632Y-82003088D01*
X123820619Y-82009399D01*
X123636866Y-82163587D01*
X123629087Y-82171366D01*
X123474899Y-82355119D01*
X123468588Y-82364132D01*
X123348652Y-82571868D01*
X123344002Y-82581840D01*
X123261960Y-82807247D01*
X123259113Y-82817874D01*
X123217459Y-83054103D01*
X123216500Y-83065064D01*
X123216500Y-83304936D01*
X123217459Y-83315897D01*
X123259113Y-83552126D01*
X123261960Y-83562753D01*
X123344002Y-83788160D01*
X123348652Y-83798132D01*
X123468588Y-84005868D01*
X123474899Y-84014881D01*
X123629087Y-84198634D01*
X123636866Y-84206413D01*
X123820619Y-84360601D01*
X123829632Y-84366912D01*
X124037368Y-84486848D01*
X124047340Y-84491498D01*
X124272747Y-84573540D01*
X124283374Y-84576387D01*
X124519603Y-84618041D01*
X124530564Y-84619000D01*
X124770436Y-84619000D01*
X124781397Y-84618041D01*
X125014501Y-84576938D01*
X125014501Y-85652651D01*
X124832990Y-85834163D01*
X123551742Y-85834163D01*
X123535366Y-85836319D01*
X123256142Y-85911137D01*
X123231662Y-85923880D01*
X123075410Y-86054990D01*
X123061239Y-86071879D01*
X122960641Y-86246120D01*
X122953100Y-86266837D01*
X122919122Y-86459538D01*
X122918163Y-86470499D01*
X122918163Y-87748992D01*
X122650553Y-88016602D01*
X122635997Y-88025786D01*
X122622325Y-88037422D01*
X122566326Y-88100829D01*
X122546342Y-88120812D01*
X122540470Y-88127585D01*
X122527993Y-88144232D01*
X122477613Y-88201277D01*
X122467756Y-88216283D01*
X122457295Y-88238563D01*
X122442531Y-88258263D01*
X122433909Y-88274011D01*
X122407190Y-88345284D01*
X122374768Y-88414341D01*
X122369460Y-88431895D01*
X122365971Y-88455236D01*
X122357172Y-88478710D01*
X122353317Y-88496244D01*
X122346862Y-88583103D01*
X122343693Y-88604306D01*
X122343000Y-88613629D01*
X122343000Y-88635076D01*
X122337117Y-88714250D01*
X122338338Y-88732161D01*
X122343000Y-88754000D01*
X122342999Y-94845810D01*
X122339202Y-94862591D01*
X122337762Y-94880487D01*
X122342999Y-94964896D01*
X122342999Y-94993178D01*
X122343636Y-95002120D01*
X122346587Y-95022726D01*
X122351299Y-95098675D01*
X122354939Y-95116254D01*
X122363297Y-95139407D01*
X122366787Y-95163777D01*
X122371826Y-95181009D01*
X122403330Y-95250298D01*
X122429235Y-95322057D01*
X122437895Y-95338224D01*
X122451934Y-95357196D01*
X122462307Y-95380012D01*
X122471980Y-95395137D01*
X122528829Y-95461115D01*
X122541587Y-95478355D01*
X122547690Y-95485438D01*
X122562851Y-95500598D01*
X122614679Y-95560747D01*
X122628205Y-95572548D01*
X122629563Y-95573428D01*
X122681936Y-95619683D01*
X122701910Y-95639658D01*
X122708685Y-95645531D01*
X122725323Y-95658001D01*
X122782374Y-95708387D01*
X122797379Y-95718244D01*
X122819666Y-95728708D01*
X122839363Y-95743470D01*
X122855110Y-95752091D01*
X122926360Y-95778800D01*
X122995438Y-95811233D01*
X123012993Y-95816541D01*
X123036342Y-95820031D01*
X123059808Y-95828827D01*
X123077342Y-95832682D01*
X123164168Y-95839135D01*
X123185400Y-95842308D01*
X123194726Y-95843001D01*
X123216191Y-95843001D01*
X123295347Y-95848883D01*
X123313258Y-95847662D01*
X123335093Y-95843001D01*
X125616908Y-95843001D01*
X125633689Y-95846798D01*
X125651585Y-95848238D01*
X125735994Y-95843001D01*
X125764277Y-95843001D01*
X125773218Y-95842364D01*
X125793824Y-95839414D01*
X125869773Y-95834701D01*
X125887353Y-95831060D01*
X125910500Y-95822704D01*
X125934875Y-95819213D01*
X125952108Y-95814174D01*
X126021395Y-95782670D01*
X126093154Y-95756765D01*
X126109322Y-95748105D01*
X126128291Y-95734068D01*
X126151111Y-95723693D01*
X126166236Y-95714020D01*
X126232216Y-95657168D01*
X126249453Y-95644413D01*
X126256536Y-95638310D01*
X126271693Y-95623152D01*
X126331846Y-95571321D01*
X126343647Y-95557794D01*
X126355798Y-95539048D01*
X126666782Y-95228064D01*
X126907417Y-95262312D01*
X126918072Y-95262917D01*
X127167593Y-95255948D01*
X127178198Y-95254749D01*
X127422977Y-95205837D01*
X127433228Y-95202868D01*
X127666267Y-95113413D01*
X127675871Y-95108760D01*
X127890506Y-94981319D01*
X127899188Y-94975114D01*
X128089283Y-94813331D01*
X128096796Y-94805752D01*
X128256914Y-94614254D01*
X128263042Y-94605517D01*
X128388606Y-94389779D01*
X128393175Y-94380134D01*
X128480593Y-94146323D01*
X128483471Y-94136046D01*
X128530302Y-93890553D01*
X128531417Y-93879330D01*
X128534078Y-93602098D01*
X128533179Y-93590856D01*
X128491070Y-93344508D01*
X128488389Y-93334178D01*
X128405476Y-93098732D01*
X128401092Y-93089001D01*
X128279694Y-92870892D01*
X128273734Y-92862039D01*
X128117322Y-92667502D01*
X128109956Y-92659780D01*
X127923003Y-92494378D01*
X127914440Y-92488007D01*
X127702291Y-92356470D01*
X127692778Y-92351633D01*
X127461500Y-92257721D01*
X127451308Y-92254556D01*
X127207513Y-92200954D01*
X127196934Y-92199552D01*
X126947592Y-92187794D01*
X126936928Y-92188194D01*
X126689170Y-92218614D01*
X126678725Y-92220806D01*
X126439635Y-92292537D01*
X126429709Y-92296457D01*
X126206123Y-92407446D01*
X126197000Y-92412982D01*
X125995311Y-92560056D01*
X125987250Y-92567051D01*
X125947774Y-92607645D01*
X125924863Y-92522142D01*
X125912120Y-92497662D01*
X125781010Y-92341410D01*
X125764121Y-92327239D01*
X125589880Y-92226641D01*
X125569163Y-92219100D01*
X125376462Y-92185122D01*
X125365501Y-92184163D01*
X123995999Y-92184163D01*
X123995999Y-89008846D01*
X124087008Y-88917837D01*
X125368258Y-88917837D01*
X125384634Y-88915681D01*
X125663859Y-88840863D01*
X125688339Y-88828120D01*
X125844590Y-88697010D01*
X125858761Y-88680121D01*
X125958221Y-88507850D01*
X125965187Y-88515294D01*
X125973112Y-88522442D01*
X126171941Y-88673361D01*
X126180957Y-88679071D01*
X126402371Y-88794332D01*
X126412220Y-88798442D01*
X126649889Y-88874749D01*
X126660290Y-88877140D01*
X126907417Y-88912312D01*
X126918072Y-88912917D01*
X127167593Y-88905948D01*
X127178198Y-88904749D01*
X127422977Y-88855837D01*
X127433228Y-88852868D01*
X127666267Y-88763413D01*
X127675871Y-88758760D01*
X127890506Y-88631319D01*
X127899188Y-88625114D01*
X128089283Y-88463331D01*
X128096796Y-88455752D01*
X128256914Y-88264254D01*
X128263042Y-88255517D01*
X128388606Y-88039779D01*
X128393175Y-88030134D01*
X128480593Y-87796323D01*
X128483471Y-87786046D01*
X128530302Y-87540553D01*
X128531417Y-87529330D01*
X128534078Y-87252098D01*
X128533179Y-87240856D01*
X128491070Y-86994508D01*
X128488389Y-86984178D01*
X128405476Y-86748732D01*
X128401092Y-86739001D01*
X128279694Y-86520892D01*
X128273734Y-86512039D01*
X128117322Y-86317502D01*
X128109956Y-86309780D01*
X127923003Y-86144378D01*
X127914440Y-86138007D01*
X127702291Y-86006470D01*
X127692778Y-86001633D01*
X127461500Y-85907721D01*
X127451308Y-85904556D01*
X127207513Y-85850954D01*
X127196934Y-85849552D01*
X126947592Y-85837794D01*
X126936928Y-85838194D01*
X126689170Y-85868614D01*
X126678726Y-85870806D01*
X126667501Y-85874174D01*
X126667501Y-84172075D01*
X126689787Y-84198634D01*
X126697566Y-84206413D01*
X126881319Y-84360601D01*
X126890332Y-84366912D01*
X127098068Y-84486848D01*
X127108040Y-84491498D01*
X127333447Y-84573540D01*
X127344074Y-84576387D01*
X127580303Y-84618041D01*
X127591264Y-84619000D01*
X127831136Y-84619000D01*
X127842097Y-84618041D01*
X128078326Y-84576387D01*
X128088953Y-84573540D01*
X128314360Y-84491498D01*
X128324332Y-84486848D01*
X128392991Y-84447208D01*
X128392990Y-84867400D01*
X128389193Y-84884181D01*
X128387753Y-84902076D01*
X128392990Y-84986485D01*
X128392990Y-85014767D01*
X128393627Y-85023709D01*
X128396578Y-85044315D01*
X128401290Y-85120264D01*
X128404930Y-85137843D01*
X128413288Y-85160996D01*
X128416778Y-85185366D01*
X128421817Y-85202598D01*
X128453321Y-85271887D01*
X128479226Y-85343646D01*
X128487886Y-85359813D01*
X128501925Y-85378785D01*
X128512298Y-85401601D01*
X128521971Y-85416726D01*
X128578820Y-85482704D01*
X128591578Y-85499944D01*
X128597681Y-85507027D01*
X128612842Y-85522187D01*
X128664670Y-85582337D01*
X128678199Y-85594139D01*
X128696944Y-85606289D01*
X130383050Y-87292396D01*
X130383049Y-89677861D01*
X130379252Y-89694642D01*
X130377812Y-89712537D01*
X130383049Y-89796946D01*
X130383049Y-89825228D01*
X130383686Y-89834170D01*
X130386637Y-89854776D01*
X130391349Y-89930725D01*
X130394989Y-89948304D01*
X130403347Y-89971457D01*
X130406837Y-89995827D01*
X130411876Y-90013059D01*
X130443380Y-90082348D01*
X130469285Y-90154107D01*
X130477945Y-90170274D01*
X130491984Y-90189246D01*
X130502357Y-90212062D01*
X130512030Y-90227187D01*
X130568879Y-90293165D01*
X130581637Y-90310405D01*
X130587740Y-90317488D01*
X130602901Y-90332648D01*
X130654729Y-90392798D01*
X130668258Y-90404600D01*
X130687003Y-90416750D01*
X133181700Y-92911448D01*
X133190884Y-92926004D01*
X133202519Y-92939675D01*
X133265926Y-92995674D01*
X133285909Y-93015658D01*
X133292684Y-93021532D01*
X133309326Y-93034003D01*
X133366373Y-93084386D01*
X133381379Y-93094243D01*
X133403663Y-93104705D01*
X133423359Y-93119467D01*
X133439107Y-93128089D01*
X133510363Y-93154802D01*
X133579438Y-93187232D01*
X133596992Y-93192540D01*
X133620340Y-93196030D01*
X133643806Y-93204826D01*
X133661339Y-93208681D01*
X133748167Y-93215134D01*
X133769403Y-93218307D01*
X133778726Y-93219000D01*
X133800190Y-93219000D01*
X133879346Y-93224882D01*
X133897258Y-93223661D01*
X133919092Y-93219000D01*
X135651987Y-93219000D01*
X135642229Y-93220493D01*
X135396513Y-93279031D01*
X135386683Y-93282243D01*
X135153827Y-93380127D01*
X135144654Y-93384902D01*
X134930912Y-93519503D01*
X134922642Y-93525712D01*
X134733754Y-93693414D01*
X134726609Y-93700891D01*
X134619627Y-93833003D01*
X134540031Y-93729646D01*
X134533072Y-93721997D01*
X134348337Y-93549729D01*
X134340221Y-93543319D01*
X134129832Y-93403536D01*
X134120778Y-93398538D01*
X133890383Y-93294995D01*
X133880634Y-93291543D01*
X133636423Y-93227019D01*
X133626242Y-93225206D01*
X133560402Y-93218982D01*
X133478000Y-93293961D01*
X133478000Y-94933500D01*
X133222000Y-94933500D01*
X133222000Y-93290457D01*
X133126184Y-93214786D01*
X132856513Y-93279031D01*
X132846683Y-93282243D01*
X132613827Y-93380127D01*
X132604654Y-93384902D01*
X132390912Y-93519503D01*
X132382642Y-93525712D01*
X132345923Y-93558312D01*
X132340063Y-93536442D01*
X132327320Y-93511962D01*
X132196210Y-93355710D01*
X132179321Y-93341539D01*
X132005080Y-93240941D01*
X131984363Y-93233400D01*
X131791662Y-93199422D01*
X131780701Y-93198463D01*
X129836542Y-93198463D01*
X129820166Y-93200619D01*
X129540942Y-93275437D01*
X129516462Y-93288180D01*
X129360210Y-93419290D01*
X129346039Y-93436179D01*
X129245441Y-93610420D01*
X129237900Y-93631137D01*
X129203922Y-93823838D01*
X129202963Y-93834799D01*
X129202963Y-95778958D01*
X129205119Y-95795334D01*
X129279937Y-96074559D01*
X129280947Y-96076500D01*
X120763491Y-96076500D01*
X120767368Y-83223412D01*
X120836119Y-83281101D01*
X120845132Y-83287412D01*
X121052868Y-83407348D01*
X121062840Y-83411998D01*
X121288247Y-83494040D01*
X121298874Y-83496887D01*
X121535103Y-83538541D01*
X121546064Y-83539500D01*
X121785936Y-83539500D01*
X121796897Y-83538541D01*
X122033126Y-83496887D01*
X122043753Y-83494040D01*
X122269160Y-83411998D01*
X122279132Y-83407348D01*
X122486868Y-83287412D01*
X122495881Y-83281101D01*
X122679634Y-83126913D01*
X122687413Y-83119134D01*
X122841601Y-82935381D01*
X122847912Y-82926368D01*
X122967848Y-82718632D01*
X122972498Y-82708660D01*
X123054540Y-82483253D01*
X123057387Y-82472626D01*
X123099041Y-82236397D01*
X123100000Y-82225436D01*
X123100000Y-81985564D01*
X123099041Y-81974603D01*
X123057387Y-81738374D01*
X123054540Y-81727747D01*
X122972498Y-81502340D01*
X122967848Y-81492368D01*
X122847912Y-81284632D01*
X122841601Y-81275619D01*
X122687413Y-81091866D01*
X122679634Y-81084087D01*
X122495881Y-80929899D01*
X122486868Y-80923588D01*
X122279132Y-80803652D01*
X122269160Y-80799002D01*
X122043753Y-80716960D01*
X122033126Y-80714113D01*
X121796897Y-80672459D01*
X121785936Y-80671500D01*
X121546064Y-80671500D01*
X121535103Y-80672459D01*
X121298874Y-80714113D01*
X121288247Y-80716960D01*
X121062840Y-80799002D01*
X121052868Y-80803652D01*
X120845132Y-80923588D01*
X120836119Y-80929899D01*
X120768043Y-80987022D01*
X120768876Y-78224677D01*
X120836119Y-78281101D01*
G36*
X131679463Y-56980458D02*
G01*
X131681619Y-56996834D01*
X131756437Y-57276059D01*
X131769180Y-57300539D01*
X131900290Y-57456790D01*
X131917179Y-57470961D01*
X132086216Y-57568554D01*
X131950416Y-57582828D01*
X131941750Y-57584356D01*
X131660728Y-57654422D01*
X131652358Y-57657142D01*
X131383821Y-57765638D01*
X131375911Y-57769496D01*
X131125088Y-57914309D01*
X131117793Y-57919230D01*
X130889564Y-58097542D01*
X130883025Y-58103430D01*
X130681834Y-58311769D01*
X130676177Y-58318510D01*
X130505939Y-58552823D01*
X130501275Y-58560286D01*
X130365305Y-58816011D01*
X130361726Y-58824050D01*
X130262667Y-59096209D01*
X130260241Y-59104668D01*
X130200025Y-59387965D01*
X130198800Y-59396680D01*
X130178597Y-59685600D01*
X130178597Y-59694400D01*
X130198800Y-59983320D01*
X130200025Y-59992035D01*
X130260241Y-60275332D01*
X130262667Y-60283791D01*
X130361726Y-60555950D01*
X130365305Y-60563989D01*
X130501275Y-60819714D01*
X130505939Y-60827177D01*
X130676177Y-61061490D01*
X130681834Y-61068231D01*
X130883025Y-61276570D01*
X130889564Y-61282458D01*
X131117793Y-61460770D01*
X131125088Y-61465691D01*
X131375911Y-61610504D01*
X131383821Y-61614362D01*
X131652358Y-61722858D01*
X131660728Y-61725578D01*
X131941750Y-61795644D01*
X131950416Y-61797172D01*
X132238456Y-61827447D01*
X132247251Y-61827754D01*
X132536701Y-61817646D01*
X132545453Y-61816726D01*
X132830678Y-61766433D01*
X132839216Y-61764304D01*
X133114668Y-61674804D01*
X133122827Y-61671508D01*
X133383141Y-61544544D01*
X133390763Y-61540144D01*
X133630873Y-61378187D01*
X133637808Y-61372769D01*
X133679200Y-61335499D01*
X133679200Y-61405189D01*
X133494392Y-61539460D01*
X133486863Y-61545890D01*
X133300890Y-61731863D01*
X133294460Y-61739392D01*
X133139869Y-61952168D01*
X133134696Y-61960610D01*
X133015294Y-62194950D01*
X133011505Y-62204098D01*
X132930232Y-62454231D01*
X132927921Y-62463859D01*
X132886777Y-62723627D01*
X132886000Y-62733497D01*
X132886000Y-62996503D01*
X132886777Y-63006373D01*
X132927921Y-63266141D01*
X132930232Y-63275769D01*
X133011505Y-63525902D01*
X133015294Y-63535050D01*
X133134696Y-63769390D01*
X133139869Y-63777832D01*
X133294460Y-63990608D01*
X133300890Y-63998137D01*
X133486863Y-64184110D01*
X133494392Y-64190540D01*
X133690111Y-64332739D01*
X133702329Y-64425538D01*
X133706604Y-64441492D01*
X133795025Y-64654962D01*
X133803284Y-64669266D01*
X133943943Y-64852578D01*
X133955622Y-64864257D01*
X133998366Y-64897056D01*
X137539755Y-68438446D01*
X137417897Y-68416959D01*
X137406936Y-68416000D01*
X137167064Y-68416000D01*
X137156103Y-68416959D01*
X136919874Y-68458613D01*
X136909247Y-68461460D01*
X136683840Y-68543502D01*
X136673868Y-68548152D01*
X136466132Y-68668088D01*
X136457119Y-68674399D01*
X136273366Y-68828587D01*
X136265587Y-68836366D01*
X136111399Y-69020119D01*
X136105088Y-69029132D01*
X135985152Y-69236868D01*
X135980502Y-69246840D01*
X135898460Y-69472247D01*
X135895613Y-69482874D01*
X135853959Y-69719103D01*
X135853000Y-69730064D01*
X135853000Y-69969936D01*
X135853959Y-69980897D01*
X135895613Y-70217126D01*
X135898460Y-70227753D01*
X135980502Y-70453160D01*
X135985152Y-70463132D01*
X136105088Y-70670868D01*
X136111399Y-70679881D01*
X136265587Y-70863634D01*
X136273366Y-70871413D01*
X136457119Y-71025601D01*
X136466132Y-71031912D01*
X136673868Y-71151848D01*
X136683840Y-71156498D01*
X136909247Y-71238540D01*
X136919874Y-71241387D01*
X137156103Y-71283041D01*
X137167064Y-71284000D01*
X137406936Y-71284000D01*
X137417897Y-71283041D01*
X137654126Y-71241387D01*
X137664753Y-71238540D01*
X137890160Y-71156498D01*
X137893359Y-71155006D01*
X137915744Y-71184179D01*
X137927423Y-71195858D01*
X137970167Y-71228657D01*
X138250318Y-71508808D01*
X138242126Y-71506613D01*
X138005897Y-71464959D01*
X137994936Y-71464000D01*
X137755064Y-71464000D01*
X137744103Y-71464959D01*
X137507874Y-71506613D01*
X137497247Y-71509460D01*
X137271840Y-71591502D01*
X137261868Y-71596152D01*
X137054132Y-71716088D01*
X137045119Y-71722399D01*
X136861366Y-71876587D01*
X136853587Y-71884366D01*
X136699399Y-72068119D01*
X136693088Y-72077132D01*
X136573152Y-72284868D01*
X136568502Y-72294840D01*
X136486460Y-72520247D01*
X136483613Y-72530874D01*
X136441959Y-72767103D01*
X136441000Y-72778064D01*
X136441000Y-73017936D01*
X136441959Y-73028897D01*
X136483613Y-73265126D01*
X136486460Y-73275753D01*
X136568502Y-73501160D01*
X136573152Y-73511132D01*
X136693088Y-73718868D01*
X136699399Y-73727881D01*
X136853587Y-73911634D01*
X136861366Y-73919413D01*
X137045119Y-74073601D01*
X137054132Y-74079912D01*
X137261868Y-74199848D01*
X137271840Y-74204498D01*
X137497247Y-74286540D01*
X137507874Y-74289387D01*
X137744103Y-74331041D01*
X137755064Y-74332000D01*
X137994936Y-74332000D01*
X138005897Y-74331041D01*
X138242126Y-74289387D01*
X138252753Y-74286540D01*
X138478160Y-74204498D01*
X138488132Y-74199848D01*
X138695868Y-74079912D01*
X138704881Y-74073601D01*
X138888634Y-73919413D01*
X138896413Y-73911634D01*
X139050601Y-73727881D01*
X139056912Y-73718868D01*
X139176848Y-73511132D01*
X139181498Y-73501160D01*
X139263540Y-73275753D01*
X139266387Y-73265126D01*
X139308041Y-73028897D01*
X139309000Y-73017936D01*
X139309000Y-72778064D01*
X139308041Y-72767103D01*
X139266387Y-72530874D01*
X139264192Y-72522682D01*
X140937093Y-74195583D01*
X140928368Y-74199652D01*
X140720632Y-74319588D01*
X140711619Y-74325899D01*
X140527866Y-74480087D01*
X140520087Y-74487866D01*
X140365899Y-74671619D01*
X140359588Y-74680632D01*
X140239652Y-74888368D01*
X140235002Y-74898340D01*
X140152960Y-75123747D01*
X140150113Y-75134374D01*
X140108459Y-75370603D01*
X140107500Y-75381564D01*
X140107500Y-75621436D01*
X140108459Y-75632397D01*
X140150113Y-75868626D01*
X140152960Y-75879253D01*
X140235002Y-76104660D01*
X140239652Y-76114632D01*
X140359588Y-76322368D01*
X140365899Y-76331381D01*
X140520087Y-76515134D01*
X140527866Y-76522913D01*
X140711619Y-76677101D01*
X140720632Y-76683412D01*
X140928368Y-76803348D01*
X140938340Y-76807998D01*
X141163747Y-76890040D01*
X141174374Y-76892887D01*
X141410603Y-76934541D01*
X141421564Y-76935500D01*
X141661436Y-76935500D01*
X141672397Y-76934541D01*
X141908626Y-76892887D01*
X141919253Y-76890040D01*
X142144660Y-76807998D01*
X142154632Y-76803348D01*
X142343900Y-76694074D01*
X142343899Y-81928925D01*
X142154632Y-81819652D01*
X142144660Y-81815002D01*
X141919253Y-81732960D01*
X141908626Y-81730113D01*
X141672397Y-81688459D01*
X141661436Y-81687500D01*
X141421564Y-81687500D01*
X141410603Y-81688459D01*
X141174374Y-81730113D01*
X141163747Y-81732960D01*
X140938340Y-81815002D01*
X140928368Y-81819652D01*
X140720632Y-81939588D01*
X140711619Y-81945899D01*
X140527866Y-82100087D01*
X140520087Y-82107866D01*
X140365899Y-82291619D01*
X140359588Y-82300632D01*
X140239652Y-82508368D01*
X140235002Y-82518340D01*
X140152960Y-82743747D01*
X140150113Y-82754374D01*
X140108459Y-82990603D01*
X140107500Y-83001564D01*
X140107500Y-83241436D01*
X140108459Y-83252397D01*
X140150113Y-83488626D01*
X140152960Y-83499253D01*
X140235002Y-83724660D01*
X140239652Y-83734632D01*
X140359588Y-83942368D01*
X140365899Y-83951381D01*
X140520087Y-84135134D01*
X140527866Y-84142913D01*
X140711619Y-84297101D01*
X140720632Y-84303412D01*
X140928368Y-84423348D01*
X140938340Y-84427998D01*
X141163747Y-84510040D01*
X141174374Y-84512887D01*
X141410603Y-84554541D01*
X141421564Y-84555500D01*
X141661436Y-84555500D01*
X141672397Y-84554541D01*
X141908626Y-84512887D01*
X141919253Y-84510040D01*
X142144660Y-84427998D01*
X142154632Y-84423348D01*
X142338909Y-84316956D01*
X142359833Y-84475885D01*
X142367028Y-84530537D01*
X142371303Y-84546491D01*
X142459724Y-84759961D01*
X142467983Y-84774265D01*
X142608642Y-84957577D01*
X142620321Y-84969256D01*
X142663065Y-85002055D01*
X145251000Y-87589991D01*
X145251000Y-87813436D01*
X145251959Y-87824397D01*
X145293613Y-88060626D01*
X145296460Y-88071253D01*
X145378502Y-88296660D01*
X145383152Y-88306632D01*
X145503088Y-88514368D01*
X145509399Y-88523381D01*
X145663587Y-88707134D01*
X145671366Y-88714913D01*
X145855119Y-88869101D01*
X145864132Y-88875412D01*
X146071868Y-88995348D01*
X146081840Y-88999998D01*
X146307247Y-89082040D01*
X146317874Y-89084887D01*
X146554103Y-89126541D01*
X146565064Y-89127500D01*
X146804936Y-89127500D01*
X146815897Y-89126541D01*
X147052126Y-89084887D01*
X147062753Y-89082040D01*
X147288160Y-88999998D01*
X147298132Y-88995348D01*
X147505868Y-88875412D01*
X147514881Y-88869101D01*
X147698634Y-88714913D01*
X147706413Y-88707134D01*
X147860601Y-88523381D01*
X147866912Y-88514368D01*
X147986848Y-88306632D01*
X147991498Y-88296660D01*
X148073540Y-88071253D01*
X148076387Y-88060626D01*
X148118041Y-87824397D01*
X148119000Y-87813436D01*
X148119000Y-87573564D01*
X148118041Y-87562603D01*
X148076387Y-87326374D01*
X148073540Y-87315747D01*
X147991498Y-87090340D01*
X147986848Y-87080368D01*
X147866912Y-86872632D01*
X147860601Y-86863619D01*
X147706413Y-86679866D01*
X147698634Y-86672087D01*
X147514881Y-86517899D01*
X147505868Y-86511588D01*
X147298132Y-86391652D01*
X147288160Y-86387002D01*
X147062753Y-86304960D01*
X147052126Y-86302113D01*
X146815897Y-86260459D01*
X146804936Y-86259500D01*
X146581491Y-86259500D01*
X144853127Y-84531137D01*
X144956626Y-84512887D01*
X144967253Y-84510040D01*
X145192660Y-84427998D01*
X145202632Y-84423348D01*
X145410368Y-84303412D01*
X145419381Y-84297101D01*
X145603134Y-84142913D01*
X145610913Y-84135134D01*
X145765101Y-83951381D01*
X145767468Y-83948000D01*
X146211409Y-83948000D01*
X146228190Y-83951797D01*
X146246086Y-83953237D01*
X146330495Y-83948000D01*
X146358778Y-83948000D01*
X146367719Y-83947363D01*
X146388325Y-83944413D01*
X146464274Y-83939700D01*
X146481854Y-83936059D01*
X146505001Y-83927703D01*
X146529376Y-83924212D01*
X146546609Y-83919173D01*
X146615896Y-83887669D01*
X146687655Y-83861764D01*
X146703823Y-83853104D01*
X146722792Y-83839067D01*
X146745612Y-83828692D01*
X146760737Y-83819019D01*
X146826717Y-83762167D01*
X146843954Y-83749412D01*
X146851037Y-83743309D01*
X146866195Y-83728150D01*
X146926347Y-83676319D01*
X146938149Y-83662790D01*
X146950296Y-83644050D01*
X147393286Y-83201061D01*
X147506603Y-83221041D01*
X147517564Y-83222000D01*
X147757436Y-83222000D01*
X147768397Y-83221041D01*
X148004626Y-83179387D01*
X148015253Y-83176540D01*
X148240660Y-83094498D01*
X148250632Y-83089848D01*
X148458368Y-82969912D01*
X148467381Y-82963601D01*
X148651134Y-82809413D01*
X148658697Y-82801850D01*
X148654692Y-96076500D01*
X139403716Y-96076500D01*
X139558730Y-95945503D01*
X139566055Y-95938203D01*
X139729766Y-95745844D01*
X139735801Y-95737446D01*
X139865895Y-95520931D01*
X139870477Y-95511661D01*
X139963463Y-95276806D01*
X139966470Y-95266911D01*
X140020011Y-95019269D01*
X140021418Y-95007469D01*
X140028093Y-94734358D01*
X140139087Y-94866634D01*
X140146866Y-94874413D01*
X140330619Y-95028601D01*
X140339632Y-95034912D01*
X140547368Y-95154848D01*
X140557340Y-95159498D01*
X140782747Y-95241540D01*
X140793374Y-95244387D01*
X141029603Y-95286041D01*
X141040564Y-95287000D01*
X141280436Y-95287000D01*
X141291397Y-95286041D01*
X141527626Y-95244387D01*
X141538253Y-95241540D01*
X141763660Y-95159498D01*
X141773632Y-95154848D01*
X141981368Y-95034912D01*
X141990381Y-95028601D01*
X142174134Y-94874413D01*
X142181913Y-94866634D01*
X142336101Y-94682881D01*
X142342412Y-94673868D01*
X142462348Y-94466132D01*
X142466998Y-94456160D01*
X142549040Y-94230753D01*
X142551887Y-94220126D01*
X142593541Y-93983897D01*
X142594500Y-93972936D01*
X142594500Y-93733064D01*
X144726500Y-93733064D01*
X144726500Y-93972936D01*
X144727459Y-93983897D01*
X144769113Y-94220126D01*
X144771960Y-94230753D01*
X144854002Y-94456160D01*
X144858652Y-94466132D01*
X144978588Y-94673868D01*
X144984899Y-94682881D01*
X145139087Y-94866634D01*
X145146866Y-94874413D01*
X145330619Y-95028601D01*
X145339632Y-95034912D01*
X145547368Y-95154848D01*
X145557340Y-95159498D01*
X145782747Y-95241540D01*
X145793374Y-95244387D01*
X146029603Y-95286041D01*
X146040564Y-95287000D01*
X146280436Y-95287000D01*
X146291397Y-95286041D01*
X146527626Y-95244387D01*
X146538253Y-95241540D01*
X146763660Y-95159498D01*
X146773632Y-95154848D01*
X146981368Y-95034912D01*
X146990381Y-95028601D01*
X147174134Y-94874413D01*
X147181913Y-94866634D01*
X147336101Y-94682881D01*
X147342412Y-94673868D01*
X147462348Y-94466132D01*
X147466998Y-94456160D01*
X147549040Y-94230753D01*
X147551887Y-94220126D01*
X147593541Y-93983897D01*
X147594500Y-93972936D01*
X147594500Y-93733064D01*
X147593541Y-93722103D01*
X147551887Y-93485874D01*
X147549040Y-93475247D01*
X147466998Y-93249840D01*
X147462348Y-93239868D01*
X147342412Y-93032132D01*
X147336101Y-93023119D01*
X147181913Y-92839366D01*
X147174134Y-92831587D01*
X146990381Y-92677399D01*
X146981368Y-92671088D01*
X146773632Y-92551152D01*
X146763660Y-92546502D01*
X146538253Y-92464460D01*
X146527626Y-92461613D01*
X146291397Y-92419959D01*
X146280436Y-92419000D01*
X146040564Y-92419000D01*
X146029603Y-92419959D01*
X145793374Y-92461613D01*
X145782747Y-92464460D01*
X145557340Y-92546502D01*
X145547368Y-92551152D01*
X145339632Y-92671088D01*
X145330619Y-92677399D01*
X145146866Y-92831587D01*
X145139087Y-92839366D01*
X144984899Y-93023119D01*
X144978588Y-93032132D01*
X144858652Y-93239868D01*
X144854002Y-93249840D01*
X144771960Y-93475247D01*
X144769113Y-93485874D01*
X144727459Y-93722103D01*
X144726500Y-93733064D01*
X142594500Y-93733064D01*
X142593541Y-93722103D01*
X142551887Y-93485874D01*
X142549040Y-93475247D01*
X142466998Y-93249840D01*
X142462348Y-93239868D01*
X142342412Y-93032132D01*
X142336101Y-93023119D01*
X142181913Y-92839366D01*
X142174134Y-92831587D01*
X141990381Y-92677399D01*
X141981368Y-92671088D01*
X141773632Y-92551152D01*
X141763660Y-92546502D01*
X141538253Y-92464460D01*
X141527626Y-92461613D01*
X141291397Y-92419959D01*
X141280436Y-92419000D01*
X141040564Y-92419000D01*
X141029603Y-92419959D01*
X140793374Y-92461613D01*
X140782747Y-92464460D01*
X140557340Y-92546502D01*
X140547368Y-92551152D01*
X140339632Y-92671088D01*
X140330619Y-92677399D01*
X140146866Y-92831587D01*
X140139087Y-92839366D01*
X139984899Y-93023119D01*
X139978588Y-93032132D01*
X139858652Y-93239868D01*
X139854002Y-93249840D01*
X139771960Y-93475247D01*
X139769113Y-93485874D01*
X139727459Y-93722103D01*
X139726500Y-93733064D01*
X139726500Y-93867898D01*
X139620031Y-93729646D01*
X139613072Y-93721997D01*
X139428337Y-93549729D01*
X139420221Y-93543319D01*
X139209832Y-93403536D01*
X139200778Y-93398538D01*
X138970383Y-93294995D01*
X138960634Y-93291543D01*
X138716423Y-93227019D01*
X138706242Y-93225206D01*
X138454770Y-93201435D01*
X138444429Y-93201308D01*
X138192451Y-93218929D01*
X138182229Y-93220493D01*
X138046237Y-93252891D01*
X136666901Y-91873556D01*
X136657715Y-91858997D01*
X136646079Y-91845325D01*
X136582663Y-91789318D01*
X136562689Y-91769343D01*
X136555914Y-91763470D01*
X136539276Y-91751000D01*
X136482225Y-91700614D01*
X136467220Y-91690757D01*
X136444934Y-91680293D01*
X136425237Y-91665531D01*
X136409489Y-91656910D01*
X136338231Y-91630197D01*
X136269160Y-91597768D01*
X136251604Y-91592459D01*
X136228260Y-91588971D01*
X136204792Y-91580173D01*
X136187258Y-91576318D01*
X136100413Y-91569864D01*
X136079195Y-91566693D01*
X136069872Y-91566000D01*
X136048412Y-91566000D01*
X135969252Y-91560118D01*
X135951341Y-91561339D01*
X135929506Y-91566000D01*
X134173946Y-91566000D01*
X133557782Y-90949837D01*
X134258258Y-90949837D01*
X134274634Y-90947681D01*
X134553859Y-90872863D01*
X134578339Y-90860120D01*
X134734590Y-90729010D01*
X134748761Y-90712121D01*
X134848221Y-90539850D01*
X134855187Y-90547294D01*
X134863112Y-90554442D01*
X135061941Y-90705361D01*
X135070957Y-90711071D01*
X135292371Y-90826332D01*
X135302220Y-90830442D01*
X135539889Y-90906749D01*
X135550290Y-90909140D01*
X135797417Y-90944312D01*
X135808072Y-90944917D01*
X136057593Y-90937948D01*
X136068198Y-90936749D01*
X136312977Y-90887837D01*
X136323228Y-90884868D01*
X136556267Y-90795413D01*
X136565871Y-90790760D01*
X136780506Y-90663319D01*
X136789188Y-90657114D01*
X136979283Y-90495331D01*
X136986796Y-90487752D01*
X137146914Y-90296254D01*
X137153043Y-90287517D01*
X137183899Y-90234500D01*
X137257909Y-90234500D01*
X137274690Y-90238297D01*
X137292586Y-90239737D01*
X137376995Y-90234500D01*
X137405278Y-90234500D01*
X137414219Y-90233863D01*
X137434825Y-90230913D01*
X137510774Y-90226200D01*
X137528354Y-90222559D01*
X137551501Y-90214203D01*
X137575876Y-90210712D01*
X137593109Y-90205673D01*
X137662396Y-90174169D01*
X137734155Y-90148264D01*
X137750323Y-90139604D01*
X137761911Y-90131029D01*
X137758502Y-90138340D01*
X137676460Y-90363747D01*
X137673613Y-90374374D01*
X137631959Y-90610603D01*
X137631000Y-90621564D01*
X137631000Y-90861436D01*
X137631959Y-90872397D01*
X137673613Y-91108626D01*
X137676460Y-91119253D01*
X137758502Y-91344660D01*
X137763152Y-91354632D01*
X137883088Y-91562368D01*
X137889399Y-91571381D01*
X138043587Y-91755134D01*
X138051366Y-91762913D01*
X138235119Y-91917101D01*
X138244132Y-91923412D01*
X138451868Y-92043348D01*
X138461840Y-92047998D01*
X138687247Y-92130040D01*
X138697874Y-92132887D01*
X138934103Y-92174541D01*
X138945064Y-92175500D01*
X139184936Y-92175500D01*
X139195897Y-92174541D01*
X139432126Y-92132887D01*
X139442753Y-92130040D01*
X139668160Y-92047998D01*
X139678132Y-92043348D01*
X139885868Y-91923412D01*
X139894881Y-91917101D01*
X140078634Y-91762913D01*
X140086413Y-91755134D01*
X140240601Y-91571381D01*
X140246912Y-91562368D01*
X140366848Y-91354632D01*
X140371498Y-91344660D01*
X140453540Y-91119253D01*
X140456387Y-91108626D01*
X140482679Y-90959518D01*
X145267320Y-90959518D01*
X145293613Y-91108626D01*
X145296460Y-91119253D01*
X145378502Y-91344660D01*
X145383152Y-91354632D01*
X145503088Y-91562368D01*
X145509399Y-91571381D01*
X145663587Y-91755134D01*
X145671366Y-91762913D01*
X145855119Y-91917101D01*
X145864132Y-91923412D01*
X146071868Y-92043348D01*
X146081840Y-92047998D01*
X146307247Y-92130040D01*
X146317874Y-92132887D01*
X146466982Y-92159180D01*
X146557000Y-92083646D01*
X146557000Y-90943309D01*
X146813000Y-90943309D01*
X146813000Y-92083646D01*
X146903018Y-92159180D01*
X147052126Y-92132887D01*
X147062753Y-92130040D01*
X147288160Y-92047998D01*
X147298132Y-92043348D01*
X147505868Y-91923412D01*
X147514881Y-91917101D01*
X147698634Y-91762913D01*
X147706413Y-91755134D01*
X147860601Y-91571381D01*
X147866912Y-91562368D01*
X147986848Y-91354632D01*
X147991498Y-91344660D01*
X148073540Y-91119253D01*
X148076387Y-91108626D01*
X148102680Y-90959518D01*
X148027146Y-90869500D01*
X146886809Y-90869500D01*
X146813000Y-90943309D01*
X146557000Y-90943309D01*
X146483191Y-90869500D01*
X145342854Y-90869500D01*
X145267320Y-90959518D01*
X140482679Y-90959518D01*
X140498041Y-90872397D01*
X140499000Y-90861436D01*
X140499000Y-90621564D01*
X140498041Y-90610603D01*
X140482680Y-90523482D01*
X145267320Y-90523482D01*
X145342854Y-90613500D01*
X146483191Y-90613500D01*
X146557000Y-90539691D01*
X146557000Y-89399354D01*
X146813000Y-89399354D01*
X146813000Y-90539691D01*
X146886809Y-90613500D01*
X148027146Y-90613500D01*
X148102680Y-90523482D01*
X148076387Y-90374374D01*
X148073540Y-90363747D01*
X147991498Y-90138340D01*
X147986848Y-90128368D01*
X147866912Y-89920632D01*
X147860601Y-89911619D01*
X147706413Y-89727866D01*
X147698634Y-89720087D01*
X147514881Y-89565899D01*
X147505868Y-89559588D01*
X147298132Y-89439652D01*
X147288160Y-89435002D01*
X147062753Y-89352960D01*
X147052126Y-89350113D01*
X146903018Y-89323820D01*
X146813000Y-89399354D01*
X146557000Y-89399354D01*
X146466982Y-89323820D01*
X146317874Y-89350113D01*
X146307247Y-89352960D01*
X146081840Y-89435002D01*
X146071868Y-89439652D01*
X145864132Y-89559588D01*
X145855119Y-89565899D01*
X145671366Y-89720087D01*
X145663587Y-89727866D01*
X145509399Y-89911619D01*
X145503088Y-89920632D01*
X145383152Y-90128368D01*
X145378502Y-90138340D01*
X145296460Y-90363747D01*
X145293613Y-90374374D01*
X145267320Y-90523482D01*
X140482680Y-90523482D01*
X140456387Y-90374374D01*
X140453540Y-90363747D01*
X140371498Y-90138340D01*
X140366848Y-90128368D01*
X140246912Y-89920632D01*
X140240601Y-89911619D01*
X140086413Y-89727866D01*
X140078634Y-89720087D01*
X139894881Y-89565899D01*
X139885868Y-89559588D01*
X139678132Y-89439652D01*
X139668160Y-89435002D01*
X139442753Y-89352960D01*
X139432126Y-89350113D01*
X139195897Y-89308459D01*
X139184936Y-89307500D01*
X138945064Y-89307500D01*
X138934103Y-89308459D01*
X138697874Y-89350113D01*
X138687247Y-89352960D01*
X138509801Y-89417545D01*
X138820786Y-89106561D01*
X138934103Y-89126541D01*
X138945064Y-89127500D01*
X139184936Y-89127500D01*
X139195897Y-89126541D01*
X139432126Y-89084887D01*
X139442753Y-89082040D01*
X139668160Y-88999998D01*
X139678132Y-88995348D01*
X139885868Y-88875412D01*
X139894881Y-88869101D01*
X140078634Y-88714913D01*
X140086413Y-88707134D01*
X140240601Y-88523381D01*
X140246912Y-88514368D01*
X140366848Y-88306632D01*
X140371498Y-88296660D01*
X140453540Y-88071253D01*
X140456387Y-88060626D01*
X140498041Y-87824397D01*
X140499000Y-87813436D01*
X140499000Y-87573564D01*
X140498041Y-87562603D01*
X140456387Y-87326374D01*
X140453540Y-87315747D01*
X140371498Y-87090340D01*
X140366848Y-87080368D01*
X140246912Y-86872632D01*
X140240601Y-86863619D01*
X140086413Y-86679866D01*
X140078634Y-86672087D01*
X139894881Y-86517899D01*
X139885868Y-86511588D01*
X139678132Y-86391652D01*
X139668160Y-86387002D01*
X139442753Y-86304960D01*
X139432126Y-86302113D01*
X139195897Y-86260459D01*
X139184936Y-86259500D01*
X138945064Y-86259500D01*
X138934103Y-86260459D01*
X138697874Y-86302113D01*
X138687247Y-86304960D01*
X138461840Y-86387002D01*
X138451868Y-86391652D01*
X138244132Y-86511588D01*
X138235119Y-86517899D01*
X138051366Y-86672087D01*
X138043587Y-86679866D01*
X137889399Y-86863619D01*
X137883088Y-86872632D01*
X137763152Y-87080368D01*
X137758502Y-87090340D01*
X137676460Y-87315747D01*
X137673613Y-87326374D01*
X137631959Y-87562603D01*
X137631000Y-87573564D01*
X137631000Y-87813436D01*
X137631959Y-87824397D01*
X137651939Y-87937714D01*
X137111090Y-88478564D01*
X137007322Y-88349502D01*
X136999956Y-88341780D01*
X136813003Y-88176378D01*
X136804440Y-88170007D01*
X136592291Y-88038470D01*
X136582778Y-88033633D01*
X136351500Y-87939721D01*
X136341308Y-87936556D01*
X136097513Y-87882954D01*
X136086934Y-87881552D01*
X135837592Y-87869794D01*
X135826928Y-87870194D01*
X135579170Y-87900614D01*
X135568725Y-87902806D01*
X135329635Y-87974537D01*
X135319709Y-87978457D01*
X135096123Y-88089446D01*
X135087000Y-88094982D01*
X134885311Y-88242056D01*
X134877250Y-88249051D01*
X134837774Y-88289645D01*
X134814863Y-88204142D01*
X134802120Y-88179662D01*
X134671010Y-88023410D01*
X134654121Y-88009239D01*
X134479880Y-87908641D01*
X134459163Y-87901100D01*
X134266462Y-87867122D01*
X134255501Y-87866163D01*
X132441742Y-87866163D01*
X132425366Y-87868319D01*
X132146142Y-87943137D01*
X132121662Y-87955880D01*
X132036049Y-88027717D01*
X132036049Y-87042635D01*
X132039845Y-87025859D01*
X132041285Y-87007964D01*
X132036049Y-86923564D01*
X132036049Y-86895270D01*
X132035412Y-86886328D01*
X132032461Y-86865722D01*
X132027749Y-86789775D01*
X132024109Y-86772195D01*
X132015751Y-86749043D01*
X132012261Y-86724671D01*
X132007222Y-86707440D01*
X131975720Y-86638155D01*
X131949813Y-86566392D01*
X131941153Y-86550225D01*
X131927114Y-86531251D01*
X131916740Y-86508436D01*
X131907068Y-86493311D01*
X131850224Y-86427341D01*
X131837462Y-86410094D01*
X131831358Y-86403011D01*
X131816188Y-86387841D01*
X131764369Y-86327702D01*
X131750840Y-86315900D01*
X131732105Y-86303757D01*
X131313748Y-85885401D01*
X131454461Y-85873090D01*
X131465296Y-85871180D01*
X131696996Y-85809096D01*
X131707335Y-85805333D01*
X131924734Y-85703958D01*
X131934262Y-85698457D01*
X132130755Y-85560871D01*
X132139183Y-85553798D01*
X132308798Y-85384183D01*
X132315871Y-85375755D01*
X132453457Y-85179262D01*
X132458958Y-85169734D01*
X132560333Y-84952335D01*
X132564096Y-84941996D01*
X132626180Y-84710296D01*
X132628090Y-84699461D01*
X132648996Y-84460501D01*
X132648996Y-84449499D01*
X132628090Y-84210539D01*
X132626180Y-84199704D01*
X132577492Y-84017998D01*
X133136446Y-83459044D01*
X133179187Y-83426248D01*
X133190867Y-83414568D01*
X133331526Y-83231257D01*
X133339785Y-83216953D01*
X133428206Y-83003483D01*
X133432481Y-82987529D01*
X133454532Y-82820034D01*
X133462640Y-82758449D01*
X133462640Y-82741932D01*
X133455610Y-82688535D01*
X133455610Y-79369499D01*
X136591004Y-79369499D01*
X136591004Y-79380501D01*
X136611910Y-79619461D01*
X136613820Y-79630296D01*
X136675904Y-79861996D01*
X136679667Y-79872335D01*
X136781042Y-80089734D01*
X136786543Y-80099262D01*
X136924129Y-80295755D01*
X136931202Y-80304183D01*
X137100817Y-80473798D01*
X137109245Y-80480871D01*
X137305738Y-80618457D01*
X137315266Y-80623958D01*
X137360391Y-80645000D01*
X137315266Y-80666042D01*
X137305738Y-80671543D01*
X137109245Y-80809129D01*
X137100817Y-80816202D01*
X136931202Y-80985817D01*
X136924129Y-80994245D01*
X136786543Y-81190738D01*
X136781042Y-81200266D01*
X136679667Y-81417665D01*
X136675904Y-81428004D01*
X136613820Y-81659704D01*
X136611910Y-81670539D01*
X136591004Y-81909499D01*
X136591004Y-81920501D01*
X136611910Y-82159461D01*
X136613820Y-82170296D01*
X136675904Y-82401996D01*
X136679667Y-82412335D01*
X136781042Y-82629734D01*
X136786543Y-82639262D01*
X136924129Y-82835755D01*
X136931202Y-82844183D01*
X137100817Y-83013798D01*
X137109245Y-83020871D01*
X137305738Y-83158457D01*
X137315266Y-83163958D01*
X137360391Y-83185000D01*
X137315266Y-83206042D01*
X137305738Y-83211543D01*
X137109245Y-83349129D01*
X137100817Y-83356202D01*
X136931202Y-83525817D01*
X136924129Y-83534245D01*
X136786543Y-83730738D01*
X136781042Y-83740266D01*
X136679667Y-83957665D01*
X136675904Y-83968004D01*
X136613820Y-84199704D01*
X136611910Y-84210539D01*
X136591004Y-84449499D01*
X136591004Y-84460501D01*
X136611910Y-84699461D01*
X136613820Y-84710296D01*
X136675904Y-84941996D01*
X136679667Y-84952335D01*
X136781042Y-85169734D01*
X136786543Y-85179262D01*
X136924129Y-85375755D01*
X136931202Y-85384183D01*
X137100817Y-85553798D01*
X137109245Y-85560871D01*
X137305738Y-85698457D01*
X137315266Y-85703958D01*
X137532665Y-85805333D01*
X137543004Y-85809096D01*
X137774704Y-85871180D01*
X137785539Y-85873090D01*
X137964652Y-85888760D01*
X137970146Y-85889000D01*
X138889854Y-85889000D01*
X138895348Y-85888760D01*
X139074461Y-85873090D01*
X139085296Y-85871180D01*
X139316996Y-85809096D01*
X139327335Y-85805333D01*
X139544734Y-85703958D01*
X139554262Y-85698457D01*
X139750755Y-85560871D01*
X139759183Y-85553798D01*
X139928798Y-85384183D01*
X139935871Y-85375755D01*
X140073457Y-85179262D01*
X140078958Y-85169734D01*
X140180333Y-84952335D01*
X140184096Y-84941996D01*
X140246180Y-84710296D01*
X140248090Y-84699461D01*
X140268996Y-84460501D01*
X140268996Y-84449499D01*
X140248090Y-84210539D01*
X140246180Y-84199704D01*
X140184096Y-83968004D01*
X140180333Y-83957665D01*
X140078958Y-83740266D01*
X140073457Y-83730738D01*
X139935871Y-83534245D01*
X139928798Y-83525817D01*
X139759183Y-83356202D01*
X139750755Y-83349129D01*
X139554262Y-83211543D01*
X139544734Y-83206042D01*
X139499609Y-83185000D01*
X139544734Y-83163958D01*
X139554262Y-83158457D01*
X139750755Y-83020871D01*
X139759183Y-83013798D01*
X139928798Y-82844183D01*
X139935871Y-82835755D01*
X140073457Y-82639262D01*
X140078958Y-82629734D01*
X140180333Y-82412335D01*
X140184096Y-82401996D01*
X140246180Y-82170296D01*
X140248090Y-82159461D01*
X140268996Y-81920501D01*
X140268996Y-81909499D01*
X140248090Y-81670539D01*
X140246180Y-81659704D01*
X140184096Y-81428004D01*
X140180333Y-81417665D01*
X140078958Y-81200266D01*
X140073457Y-81190738D01*
X139935871Y-80994245D01*
X139928798Y-80985817D01*
X139759183Y-80816202D01*
X139750755Y-80809129D01*
X139554262Y-80671543D01*
X139544734Y-80666042D01*
X139499609Y-80645000D01*
X139544734Y-80623958D01*
X139554262Y-80618457D01*
X139750755Y-80480871D01*
X139759183Y-80473798D01*
X139928798Y-80304183D01*
X139935871Y-80295755D01*
X140073457Y-80099262D01*
X140078958Y-80089734D01*
X140180333Y-79872335D01*
X140184096Y-79861996D01*
X140246180Y-79630296D01*
X140248090Y-79619461D01*
X140268996Y-79380501D01*
X140268996Y-79369499D01*
X140248090Y-79130539D01*
X140246180Y-79119704D01*
X140184096Y-78888004D01*
X140180333Y-78877665D01*
X140078958Y-78660266D01*
X140073457Y-78650738D01*
X139935871Y-78454245D01*
X139928798Y-78445817D01*
X139759183Y-78276202D01*
X139750755Y-78269129D01*
X139554262Y-78131543D01*
X139544734Y-78126042D01*
X139499609Y-78105000D01*
X139544734Y-78083958D01*
X139554262Y-78078457D01*
X139750755Y-77940871D01*
X139759183Y-77933798D01*
X139928798Y-77764183D01*
X139935871Y-77755755D01*
X140073457Y-77559262D01*
X140078958Y-77549734D01*
X140180333Y-77332335D01*
X140184096Y-77321996D01*
X140253871Y-77061592D01*
X140178218Y-76963000D01*
X136681782Y-76963000D01*
X136606129Y-77061592D01*
X136675904Y-77321996D01*
X136679667Y-77332335D01*
X136781042Y-77549734D01*
X136786543Y-77559262D01*
X136924129Y-77755755D01*
X136931202Y-77764183D01*
X137100817Y-77933798D01*
X137109245Y-77940871D01*
X137305738Y-78078457D01*
X137315266Y-78083958D01*
X137360391Y-78105000D01*
X137315266Y-78126042D01*
X137305738Y-78131543D01*
X137109245Y-78269129D01*
X137100817Y-78276202D01*
X136931202Y-78445817D01*
X136924129Y-78454245D01*
X136786543Y-78650738D01*
X136781042Y-78660266D01*
X136679667Y-78877665D01*
X136675904Y-78888004D01*
X136613820Y-79119704D01*
X136611910Y-79130539D01*
X136591004Y-79369499D01*
X133455610Y-79369499D01*
X133455610Y-76608408D01*
X136606129Y-76608408D01*
X136681782Y-76707000D01*
X138228191Y-76707000D01*
X138302000Y-76633191D01*
X138302000Y-75474809D01*
X138558000Y-75474809D01*
X138558000Y-76633191D01*
X138631809Y-76707000D01*
X140178218Y-76707000D01*
X140253871Y-76608408D01*
X140184096Y-76348004D01*
X140180333Y-76337665D01*
X140078958Y-76120266D01*
X140073457Y-76110738D01*
X139935871Y-75914245D01*
X139928798Y-75905817D01*
X139759183Y-75736202D01*
X139750755Y-75729129D01*
X139554262Y-75591543D01*
X139544734Y-75586042D01*
X139327335Y-75484667D01*
X139316996Y-75480904D01*
X139085296Y-75418820D01*
X139074461Y-75416910D01*
X138895348Y-75401240D01*
X138889854Y-75401000D01*
X138631809Y-75401000D01*
X138558000Y-75474809D01*
X138302000Y-75474809D01*
X138228191Y-75401000D01*
X137970146Y-75401000D01*
X137964652Y-75401240D01*
X137785539Y-75416910D01*
X137774704Y-75418820D01*
X137543004Y-75480904D01*
X137532665Y-75484667D01*
X137315266Y-75586042D01*
X137305738Y-75591543D01*
X137109245Y-75729129D01*
X137100817Y-75736202D01*
X136931202Y-75905817D01*
X136924129Y-75914245D01*
X136786543Y-76110738D01*
X136781042Y-76120266D01*
X136679667Y-76337665D01*
X136675904Y-76348004D01*
X136606129Y-76608408D01*
X133455610Y-76608408D01*
X133455610Y-75883666D01*
X133462640Y-75830269D01*
X133462640Y-75813752D01*
X133432481Y-75584670D01*
X133428206Y-75568716D01*
X133386757Y-75468648D01*
X133339784Y-75355247D01*
X133331526Y-75340943D01*
X133190867Y-75157632D01*
X133179188Y-75145953D01*
X133136449Y-75113158D01*
X132266801Y-74243511D01*
X132294726Y-74238587D01*
X132305353Y-74235740D01*
X132530760Y-74153698D01*
X132540732Y-74149048D01*
X132748468Y-74029112D01*
X132757481Y-74022801D01*
X132878163Y-73921536D01*
X132878163Y-74133258D01*
X132880319Y-74149634D01*
X132955137Y-74428859D01*
X132967880Y-74453339D01*
X133098990Y-74609590D01*
X133115879Y-74623761D01*
X133290120Y-74724359D01*
X133310837Y-74731900D01*
X133503538Y-74765878D01*
X133514499Y-74766837D01*
X135728258Y-74766837D01*
X135744634Y-74764681D01*
X136023859Y-74689863D01*
X136048339Y-74677120D01*
X136204590Y-74546010D01*
X136218761Y-74529121D01*
X136319359Y-74354880D01*
X136326900Y-74334163D01*
X136360878Y-74141462D01*
X136361837Y-74130501D01*
X136361837Y-71916742D01*
X136359681Y-71900366D01*
X136284863Y-71621142D01*
X136272120Y-71596662D01*
X136141010Y-71440410D01*
X136124121Y-71426239D01*
X135949880Y-71325641D01*
X135929163Y-71318100D01*
X135736462Y-71284122D01*
X135725501Y-71283163D01*
X133511742Y-71283163D01*
X133495366Y-71285319D01*
X133216142Y-71360137D01*
X133191662Y-71372880D01*
X133035410Y-71503990D01*
X133021239Y-71520879D01*
X132920641Y-71695120D01*
X132913100Y-71715837D01*
X132899838Y-71791051D01*
X132757481Y-71671599D01*
X132748468Y-71665288D01*
X132540732Y-71545352D01*
X132530760Y-71540702D01*
X132305353Y-71458660D01*
X132294726Y-71455813D01*
X132145618Y-71429520D01*
X132055600Y-71505054D01*
X132055600Y-72975200D01*
X131799600Y-72975200D01*
X131799600Y-71505054D01*
X131709582Y-71429520D01*
X131610257Y-71447035D01*
X131824092Y-71233200D01*
X132047536Y-71233200D01*
X132058497Y-71232241D01*
X132294726Y-71190587D01*
X132305353Y-71187740D01*
X132530760Y-71105698D01*
X132540732Y-71101048D01*
X132748468Y-70981112D01*
X132757481Y-70974801D01*
X132941234Y-70820613D01*
X132949013Y-70812834D01*
X133103201Y-70629081D01*
X133109512Y-70620068D01*
X133229448Y-70412332D01*
X133234098Y-70402360D01*
X133316140Y-70176953D01*
X133318987Y-70166326D01*
X133360641Y-69930097D01*
X133361600Y-69919136D01*
X133361600Y-69679264D01*
X133360641Y-69668303D01*
X133318987Y-69432074D01*
X133316140Y-69421447D01*
X133234098Y-69196040D01*
X133229448Y-69186068D01*
X133109512Y-68978332D01*
X133103201Y-68969319D01*
X132949013Y-68785566D01*
X132941234Y-68777787D01*
X132757481Y-68623599D01*
X132748468Y-68617288D01*
X132540732Y-68497352D01*
X132530760Y-68492702D01*
X132305353Y-68410660D01*
X132294726Y-68407813D01*
X132207705Y-68392469D01*
X132210463Y-68385809D01*
X132240897Y-68312336D01*
X132245172Y-68296381D01*
X132275331Y-68067300D01*
X132275331Y-68050784D01*
X132268301Y-67997385D01*
X132268301Y-64333157D01*
X132275331Y-64279760D01*
X132275331Y-64263243D01*
X132245172Y-64034161D01*
X132240897Y-64018207D01*
X132181938Y-63875867D01*
X132152475Y-63804738D01*
X132144217Y-63790434D01*
X132003558Y-63607123D01*
X131991879Y-63595444D01*
X131949140Y-63562649D01*
X130029337Y-61642847D01*
X130029337Y-60723242D01*
X130027181Y-60706866D01*
X129952363Y-60427642D01*
X129939620Y-60403162D01*
X129808510Y-60246910D01*
X129791621Y-60232739D01*
X129617380Y-60132141D01*
X129596663Y-60124600D01*
X129403962Y-60090622D01*
X129393001Y-60089663D01*
X127779242Y-60089663D01*
X127762866Y-60091819D01*
X127483642Y-60166637D01*
X127459162Y-60179380D01*
X127302910Y-60310490D01*
X127288739Y-60327379D01*
X127188141Y-60501620D01*
X127180600Y-60522337D01*
X127154265Y-60671694D01*
X127131344Y-60668677D01*
X126320710Y-61479309D01*
X126320710Y-61583691D01*
X127131344Y-62394323D01*
X127157142Y-62390927D01*
X127222637Y-62635359D01*
X127235380Y-62659839D01*
X127366490Y-62816090D01*
X127383379Y-62830261D01*
X127557620Y-62930859D01*
X127578337Y-62938400D01*
X127771038Y-62972378D01*
X127781999Y-62973337D01*
X128698847Y-62973337D01*
X130386702Y-64661193D01*
X130386702Y-65082963D01*
X130059309Y-65082963D01*
X129985500Y-65156772D01*
X129985500Y-66818000D01*
X129729500Y-66818000D01*
X129729500Y-65156772D01*
X129655691Y-65082963D01*
X128884042Y-65082963D01*
X128867666Y-65085119D01*
X128588442Y-65159937D01*
X128563962Y-65172680D01*
X128407710Y-65303790D01*
X128393539Y-65320679D01*
X128323731Y-65441590D01*
X128315837Y-65434229D01*
X128307721Y-65427819D01*
X128097332Y-65288036D01*
X128088278Y-65283038D01*
X127857883Y-65179495D01*
X127848134Y-65176043D01*
X127603923Y-65111519D01*
X127593742Y-65109706D01*
X127342270Y-65085935D01*
X127331929Y-65085808D01*
X127208298Y-65094453D01*
X126929200Y-64815355D01*
X126920014Y-64800796D01*
X126908378Y-64787124D01*
X126844962Y-64731117D01*
X126824988Y-64711142D01*
X126818213Y-64705269D01*
X126801575Y-64692799D01*
X126744524Y-64642413D01*
X126729519Y-64632556D01*
X126707233Y-64622092D01*
X126687536Y-64607330D01*
X126671788Y-64598709D01*
X126600530Y-64571996D01*
X126531459Y-64539567D01*
X126513903Y-64534258D01*
X126490559Y-64530770D01*
X126467091Y-64521972D01*
X126449557Y-64518117D01*
X126362712Y-64511663D01*
X126341494Y-64508492D01*
X126332171Y-64507799D01*
X126310711Y-64507799D01*
X126231551Y-64501917D01*
X126213640Y-64503138D01*
X126191805Y-64507799D01*
X124219353Y-64507799D01*
X124202572Y-64504002D01*
X124184677Y-64502562D01*
X124100268Y-64507799D01*
X124071985Y-64507799D01*
X124063043Y-64508436D01*
X124042437Y-64511387D01*
X123966488Y-64516099D01*
X123948909Y-64519739D01*
X123925756Y-64528097D01*
X123901386Y-64531587D01*
X123884154Y-64536626D01*
X123814865Y-64568130D01*
X123743107Y-64594035D01*
X123726940Y-64602694D01*
X123707968Y-64616733D01*
X123685150Y-64627108D01*
X123670025Y-64636780D01*
X123604056Y-64693623D01*
X123586809Y-64706385D01*
X123579726Y-64712489D01*
X123564555Y-64727660D01*
X123504416Y-64779479D01*
X123492614Y-64793008D01*
X123480471Y-64811743D01*
X122933254Y-65358961D01*
X122898712Y-65299132D01*
X122892401Y-65290119D01*
X122738213Y-65106366D01*
X122730434Y-65098587D01*
X122546681Y-64944399D01*
X122537668Y-64938088D01*
X122329932Y-64818152D01*
X122319960Y-64813502D01*
X122094553Y-64731460D01*
X122083926Y-64728613D01*
X121847697Y-64686959D01*
X121836736Y-64686000D01*
X121596864Y-64686000D01*
X121585903Y-64686959D01*
X121349674Y-64728613D01*
X121339047Y-64731460D01*
X121113640Y-64813502D01*
X121103668Y-64818152D01*
X120895932Y-64938088D01*
X120886919Y-64944399D01*
X120772853Y-65040113D01*
X120773596Y-62575344D01*
X125224677Y-62575344D01*
X125240897Y-62698553D01*
X125474368Y-62833348D01*
X125484340Y-62837998D01*
X125709747Y-62920040D01*
X125720374Y-62922887D01*
X125956603Y-62964541D01*
X125967564Y-62965500D01*
X126207436Y-62965500D01*
X126218397Y-62964541D01*
X126454626Y-62922887D01*
X126465253Y-62920040D01*
X126690660Y-62837998D01*
X126700632Y-62833348D01*
X126934103Y-62698553D01*
X126950323Y-62575344D01*
X126139691Y-61764710D01*
X126035309Y-61764710D01*
X125224677Y-62575344D01*
X120773596Y-62575344D01*
X120774022Y-61163694D01*
X120883025Y-61276570D01*
X120889564Y-61282458D01*
X121117793Y-61460770D01*
X121125088Y-61465691D01*
X121375911Y-61610504D01*
X121383821Y-61614362D01*
X121652358Y-61722858D01*
X121660728Y-61725578D01*
X121941750Y-61795644D01*
X121950416Y-61797172D01*
X122238456Y-61827447D01*
X122247251Y-61827754D01*
X122536701Y-61817646D01*
X122545453Y-61816726D01*
X122830678Y-61766433D01*
X122839216Y-61764304D01*
X123114668Y-61674804D01*
X123122827Y-61671508D01*
X123383141Y-61544544D01*
X123390763Y-61540144D01*
X123581389Y-61411564D01*
X124653500Y-61411564D01*
X124653500Y-61651436D01*
X124654459Y-61662397D01*
X124696113Y-61898626D01*
X124698960Y-61909253D01*
X124781002Y-62134660D01*
X124785652Y-62144632D01*
X124920447Y-62378103D01*
X125043656Y-62394323D01*
X125854290Y-61583691D01*
X125854290Y-61479309D01*
X125043656Y-60668677D01*
X124920447Y-60684897D01*
X124785652Y-60918368D01*
X124781002Y-60928340D01*
X124698960Y-61153747D01*
X124696113Y-61164374D01*
X124654459Y-61400603D01*
X124653500Y-61411564D01*
X123581389Y-61411564D01*
X123630873Y-61378187D01*
X123637808Y-61372769D01*
X123853041Y-61178972D01*
X123859154Y-61172642D01*
X124045323Y-60950776D01*
X124050495Y-60943656D01*
X124203974Y-60698039D01*
X124208105Y-60690269D01*
X124298313Y-60487656D01*
X125224677Y-60487656D01*
X126035309Y-61298290D01*
X126139691Y-61298290D01*
X126950323Y-60487656D01*
X126934103Y-60364447D01*
X126700632Y-60229652D01*
X126690660Y-60225002D01*
X126465253Y-60142960D01*
X126454626Y-60140113D01*
X126218397Y-60098459D01*
X126207436Y-60097500D01*
X125967564Y-60097500D01*
X125956603Y-60098459D01*
X125720374Y-60140113D01*
X125709747Y-60142960D01*
X125484340Y-60225002D01*
X125474368Y-60229652D01*
X125240897Y-60364447D01*
X125224677Y-60487656D01*
X124298313Y-60487656D01*
X124325906Y-60425682D01*
X124328916Y-60417413D01*
X124408748Y-60139007D01*
X124410577Y-60130399D01*
X124450886Y-59843592D01*
X124451500Y-59834813D01*
X124451500Y-59545187D01*
X124450886Y-59536408D01*
X124410577Y-59249601D01*
X124408748Y-59240993D01*
X124328916Y-58962587D01*
X124325906Y-58954318D01*
X124208105Y-58689731D01*
X124203974Y-58681961D01*
X124050495Y-58436344D01*
X124045323Y-58429224D01*
X123859154Y-58207358D01*
X123853041Y-58201028D01*
X123637808Y-58007231D01*
X123630873Y-58001813D01*
X123390763Y-57839856D01*
X123383141Y-57835456D01*
X123122827Y-57708492D01*
X123114668Y-57705196D01*
X122839216Y-57615696D01*
X122830678Y-57613567D01*
X122545453Y-57563274D01*
X122536701Y-57562354D01*
X122247251Y-57552246D01*
X122238456Y-57552553D01*
X121950416Y-57582828D01*
X121941750Y-57584356D01*
X121660728Y-57654422D01*
X121652358Y-57657142D01*
X121383821Y-57765638D01*
X121375911Y-57769496D01*
X121125088Y-57914309D01*
X121117793Y-57919230D01*
X120889564Y-58097542D01*
X120883025Y-58103430D01*
X120774911Y-58215385D01*
X120775808Y-55244000D01*
X131679463Y-55244000D01*
X131679463Y-56980458D01*
G37*
X131679463Y-56980458D02*
X131681619Y-56996834D01*
X131756437Y-57276059D01*
X131769180Y-57300539D01*
X131900290Y-57456790D01*
X131917179Y-57470961D01*
X132086216Y-57568554D01*
X131950416Y-57582828D01*
X131941750Y-57584356D01*
X131660728Y-57654422D01*
X131652358Y-57657142D01*
X131383821Y-57765638D01*
X131375911Y-57769496D01*
X131125088Y-57914309D01*
X131117793Y-57919230D01*
X130889564Y-58097542D01*
X130883025Y-58103430D01*
X130681834Y-58311769D01*
X130676177Y-58318510D01*
X130505939Y-58552823D01*
X130501275Y-58560286D01*
X130365305Y-58816011D01*
X130361726Y-58824050D01*
X130262667Y-59096209D01*
X130260241Y-59104668D01*
X130200025Y-59387965D01*
X130198800Y-59396680D01*
X130178597Y-59685600D01*
X130178597Y-59694400D01*
X130198800Y-59983320D01*
X130200025Y-59992035D01*
X130260241Y-60275332D01*
X130262667Y-60283791D01*
X130361726Y-60555950D01*
X130365305Y-60563989D01*
X130501275Y-60819714D01*
X130505939Y-60827177D01*
X130676177Y-61061490D01*
X130681834Y-61068231D01*
X130883025Y-61276570D01*
X130889564Y-61282458D01*
X131117793Y-61460770D01*
X131125088Y-61465691D01*
X131375911Y-61610504D01*
X131383821Y-61614362D01*
X131652358Y-61722858D01*
X131660728Y-61725578D01*
X131941750Y-61795644D01*
X131950416Y-61797172D01*
X132238456Y-61827447D01*
X132247251Y-61827754D01*
X132536701Y-61817646D01*
X132545453Y-61816726D01*
X132830678Y-61766433D01*
X132839216Y-61764304D01*
X133114668Y-61674804D01*
X133122827Y-61671508D01*
X133383141Y-61544544D01*
X133390763Y-61540144D01*
X133630873Y-61378187D01*
X133637808Y-61372769D01*
X133679200Y-61335499D01*
X133679200Y-61405189D01*
X133494392Y-61539460D01*
X133486863Y-61545890D01*
X133300890Y-61731863D01*
X133294460Y-61739392D01*
X133139869Y-61952168D01*
X133134696Y-61960610D01*
X133015294Y-62194950D01*
X133011505Y-62204098D01*
X132930232Y-62454231D01*
X132927921Y-62463859D01*
X132886777Y-62723627D01*
X132886000Y-62733497D01*
X132886000Y-62996503D01*
X132886777Y-63006373D01*
X132927921Y-63266141D01*
X132930232Y-63275769D01*
X133011505Y-63525902D01*
X133015294Y-63535050D01*
X133134696Y-63769390D01*
X133139869Y-63777832D01*
X133294460Y-63990608D01*
X133300890Y-63998137D01*
X133486863Y-64184110D01*
X133494392Y-64190540D01*
X133690111Y-64332739D01*
X133702329Y-64425538D01*
X133706604Y-64441492D01*
X133795025Y-64654962D01*
X133803284Y-64669266D01*
X133943943Y-64852578D01*
X133955622Y-64864257D01*
X133998366Y-64897056D01*
X137539755Y-68438446D01*
X137417897Y-68416959D01*
X137406936Y-68416000D01*
X137167064Y-68416000D01*
X137156103Y-68416959D01*
X136919874Y-68458613D01*
X136909247Y-68461460D01*
X136683840Y-68543502D01*
X136673868Y-68548152D01*
X136466132Y-68668088D01*
X136457119Y-68674399D01*
X136273366Y-68828587D01*
X136265587Y-68836366D01*
X136111399Y-69020119D01*
X136105088Y-69029132D01*
X135985152Y-69236868D01*
X135980502Y-69246840D01*
X135898460Y-69472247D01*
X135895613Y-69482874D01*
X135853959Y-69719103D01*
X135853000Y-69730064D01*
X135853000Y-69969936D01*
X135853959Y-69980897D01*
X135895613Y-70217126D01*
X135898460Y-70227753D01*
X135980502Y-70453160D01*
X135985152Y-70463132D01*
X136105088Y-70670868D01*
X136111399Y-70679881D01*
X136265587Y-70863634D01*
X136273366Y-70871413D01*
X136457119Y-71025601D01*
X136466132Y-71031912D01*
X136673868Y-71151848D01*
X136683840Y-71156498D01*
X136909247Y-71238540D01*
X136919874Y-71241387D01*
X137156103Y-71283041D01*
X137167064Y-71284000D01*
X137406936Y-71284000D01*
X137417897Y-71283041D01*
X137654126Y-71241387D01*
X137664753Y-71238540D01*
X137890160Y-71156498D01*
X137893359Y-71155006D01*
X137915744Y-71184179D01*
X137927423Y-71195858D01*
X137970167Y-71228657D01*
X138250318Y-71508808D01*
X138242126Y-71506613D01*
X138005897Y-71464959D01*
X137994936Y-71464000D01*
X137755064Y-71464000D01*
X137744103Y-71464959D01*
X137507874Y-71506613D01*
X137497247Y-71509460D01*
X137271840Y-71591502D01*
X137261868Y-71596152D01*
X137054132Y-71716088D01*
X137045119Y-71722399D01*
X136861366Y-71876587D01*
X136853587Y-71884366D01*
X136699399Y-72068119D01*
X136693088Y-72077132D01*
X136573152Y-72284868D01*
X136568502Y-72294840D01*
X136486460Y-72520247D01*
X136483613Y-72530874D01*
X136441959Y-72767103D01*
X136441000Y-72778064D01*
X136441000Y-73017936D01*
X136441959Y-73028897D01*
X136483613Y-73265126D01*
X136486460Y-73275753D01*
X136568502Y-73501160D01*
X136573152Y-73511132D01*
X136693088Y-73718868D01*
X136699399Y-73727881D01*
X136853587Y-73911634D01*
X136861366Y-73919413D01*
X137045119Y-74073601D01*
X137054132Y-74079912D01*
X137261868Y-74199848D01*
X137271840Y-74204498D01*
X137497247Y-74286540D01*
X137507874Y-74289387D01*
X137744103Y-74331041D01*
X137755064Y-74332000D01*
X137994936Y-74332000D01*
X138005897Y-74331041D01*
X138242126Y-74289387D01*
X138252753Y-74286540D01*
X138478160Y-74204498D01*
X138488132Y-74199848D01*
X138695868Y-74079912D01*
X138704881Y-74073601D01*
X138888634Y-73919413D01*
X138896413Y-73911634D01*
X139050601Y-73727881D01*
X139056912Y-73718868D01*
X139176848Y-73511132D01*
X139181498Y-73501160D01*
X139263540Y-73275753D01*
X139266387Y-73265126D01*
X139308041Y-73028897D01*
X139309000Y-73017936D01*
X139309000Y-72778064D01*
X139308041Y-72767103D01*
X139266387Y-72530874D01*
X139264192Y-72522682D01*
X140937093Y-74195583D01*
X140928368Y-74199652D01*
X140720632Y-74319588D01*
X140711619Y-74325899D01*
X140527866Y-74480087D01*
X140520087Y-74487866D01*
X140365899Y-74671619D01*
X140359588Y-74680632D01*
X140239652Y-74888368D01*
X140235002Y-74898340D01*
X140152960Y-75123747D01*
X140150113Y-75134374D01*
X140108459Y-75370603D01*
X140107500Y-75381564D01*
X140107500Y-75621436D01*
X140108459Y-75632397D01*
X140150113Y-75868626D01*
X140152960Y-75879253D01*
X140235002Y-76104660D01*
X140239652Y-76114632D01*
X140359588Y-76322368D01*
X140365899Y-76331381D01*
X140520087Y-76515134D01*
X140527866Y-76522913D01*
X140711619Y-76677101D01*
X140720632Y-76683412D01*
X140928368Y-76803348D01*
X140938340Y-76807998D01*
X141163747Y-76890040D01*
X141174374Y-76892887D01*
X141410603Y-76934541D01*
X141421564Y-76935500D01*
X141661436Y-76935500D01*
X141672397Y-76934541D01*
X141908626Y-76892887D01*
X141919253Y-76890040D01*
X142144660Y-76807998D01*
X142154632Y-76803348D01*
X142343900Y-76694074D01*
X142343899Y-81928925D01*
X142154632Y-81819652D01*
X142144660Y-81815002D01*
X141919253Y-81732960D01*
X141908626Y-81730113D01*
X141672397Y-81688459D01*
X141661436Y-81687500D01*
X141421564Y-81687500D01*
X141410603Y-81688459D01*
X141174374Y-81730113D01*
X141163747Y-81732960D01*
X140938340Y-81815002D01*
X140928368Y-81819652D01*
X140720632Y-81939588D01*
X140711619Y-81945899D01*
X140527866Y-82100087D01*
X140520087Y-82107866D01*
X140365899Y-82291619D01*
X140359588Y-82300632D01*
X140239652Y-82508368D01*
X140235002Y-82518340D01*
X140152960Y-82743747D01*
X140150113Y-82754374D01*
X140108459Y-82990603D01*
X140107500Y-83001564D01*
X140107500Y-83241436D01*
X140108459Y-83252397D01*
X140150113Y-83488626D01*
X140152960Y-83499253D01*
X140235002Y-83724660D01*
X140239652Y-83734632D01*
X140359588Y-83942368D01*
X140365899Y-83951381D01*
X140520087Y-84135134D01*
X140527866Y-84142913D01*
X140711619Y-84297101D01*
X140720632Y-84303412D01*
X140928368Y-84423348D01*
X140938340Y-84427998D01*
X141163747Y-84510040D01*
X141174374Y-84512887D01*
X141410603Y-84554541D01*
X141421564Y-84555500D01*
X141661436Y-84555500D01*
X141672397Y-84554541D01*
X141908626Y-84512887D01*
X141919253Y-84510040D01*
X142144660Y-84427998D01*
X142154632Y-84423348D01*
X142338909Y-84316956D01*
X142359833Y-84475885D01*
X142367028Y-84530537D01*
X142371303Y-84546491D01*
X142459724Y-84759961D01*
X142467983Y-84774265D01*
X142608642Y-84957577D01*
X142620321Y-84969256D01*
X142663065Y-85002055D01*
X145251000Y-87589991D01*
X145251000Y-87813436D01*
X145251959Y-87824397D01*
X145293613Y-88060626D01*
X145296460Y-88071253D01*
X145378502Y-88296660D01*
X145383152Y-88306632D01*
X145503088Y-88514368D01*
X145509399Y-88523381D01*
X145663587Y-88707134D01*
X145671366Y-88714913D01*
X145855119Y-88869101D01*
X145864132Y-88875412D01*
X146071868Y-88995348D01*
X146081840Y-88999998D01*
X146307247Y-89082040D01*
X146317874Y-89084887D01*
X146554103Y-89126541D01*
X146565064Y-89127500D01*
X146804936Y-89127500D01*
X146815897Y-89126541D01*
X147052126Y-89084887D01*
X147062753Y-89082040D01*
X147288160Y-88999998D01*
X147298132Y-88995348D01*
X147505868Y-88875412D01*
X147514881Y-88869101D01*
X147698634Y-88714913D01*
X147706413Y-88707134D01*
X147860601Y-88523381D01*
X147866912Y-88514368D01*
X147986848Y-88306632D01*
X147991498Y-88296660D01*
X148073540Y-88071253D01*
X148076387Y-88060626D01*
X148118041Y-87824397D01*
X148119000Y-87813436D01*
X148119000Y-87573564D01*
X148118041Y-87562603D01*
X148076387Y-87326374D01*
X148073540Y-87315747D01*
X147991498Y-87090340D01*
X147986848Y-87080368D01*
X147866912Y-86872632D01*
X147860601Y-86863619D01*
X147706413Y-86679866D01*
X147698634Y-86672087D01*
X147514881Y-86517899D01*
X147505868Y-86511588D01*
X147298132Y-86391652D01*
X147288160Y-86387002D01*
X147062753Y-86304960D01*
X147052126Y-86302113D01*
X146815897Y-86260459D01*
X146804936Y-86259500D01*
X146581491Y-86259500D01*
X144853127Y-84531137D01*
X144956626Y-84512887D01*
X144967253Y-84510040D01*
X145192660Y-84427998D01*
X145202632Y-84423348D01*
X145410368Y-84303412D01*
X145419381Y-84297101D01*
X145603134Y-84142913D01*
X145610913Y-84135134D01*
X145765101Y-83951381D01*
X145767468Y-83948000D01*
X146211409Y-83948000D01*
X146228190Y-83951797D01*
X146246086Y-83953237D01*
X146330495Y-83948000D01*
X146358778Y-83948000D01*
X146367719Y-83947363D01*
X146388325Y-83944413D01*
X146464274Y-83939700D01*
X146481854Y-83936059D01*
X146505001Y-83927703D01*
X146529376Y-83924212D01*
X146546609Y-83919173D01*
X146615896Y-83887669D01*
X146687655Y-83861764D01*
X146703823Y-83853104D01*
X146722792Y-83839067D01*
X146745612Y-83828692D01*
X146760737Y-83819019D01*
X146826717Y-83762167D01*
X146843954Y-83749412D01*
X146851037Y-83743309D01*
X146866195Y-83728150D01*
X146926347Y-83676319D01*
X146938149Y-83662790D01*
X146950296Y-83644050D01*
X147393286Y-83201061D01*
X147506603Y-83221041D01*
X147517564Y-83222000D01*
X147757436Y-83222000D01*
X147768397Y-83221041D01*
X148004626Y-83179387D01*
X148015253Y-83176540D01*
X148240660Y-83094498D01*
X148250632Y-83089848D01*
X148458368Y-82969912D01*
X148467381Y-82963601D01*
X148651134Y-82809413D01*
X148658697Y-82801850D01*
X148654692Y-96076500D01*
X139403716Y-96076500D01*
X139558730Y-95945503D01*
X139566055Y-95938203D01*
X139729766Y-95745844D01*
X139735801Y-95737446D01*
X139865895Y-95520931D01*
X139870477Y-95511661D01*
X139963463Y-95276806D01*
X139966470Y-95266911D01*
X140020011Y-95019269D01*
X140021418Y-95007469D01*
X140028093Y-94734358D01*
X140139087Y-94866634D01*
X140146866Y-94874413D01*
X140330619Y-95028601D01*
X140339632Y-95034912D01*
X140547368Y-95154848D01*
X140557340Y-95159498D01*
X140782747Y-95241540D01*
X140793374Y-95244387D01*
X141029603Y-95286041D01*
X141040564Y-95287000D01*
X141280436Y-95287000D01*
X141291397Y-95286041D01*
X141527626Y-95244387D01*
X141538253Y-95241540D01*
X141763660Y-95159498D01*
X141773632Y-95154848D01*
X141981368Y-95034912D01*
X141990381Y-95028601D01*
X142174134Y-94874413D01*
X142181913Y-94866634D01*
X142336101Y-94682881D01*
X142342412Y-94673868D01*
X142462348Y-94466132D01*
X142466998Y-94456160D01*
X142549040Y-94230753D01*
X142551887Y-94220126D01*
X142593541Y-93983897D01*
X142594500Y-93972936D01*
X142594500Y-93733064D01*
X144726500Y-93733064D01*
X144726500Y-93972936D01*
X144727459Y-93983897D01*
X144769113Y-94220126D01*
X144771960Y-94230753D01*
X144854002Y-94456160D01*
X144858652Y-94466132D01*
X144978588Y-94673868D01*
X144984899Y-94682881D01*
X145139087Y-94866634D01*
X145146866Y-94874413D01*
X145330619Y-95028601D01*
X145339632Y-95034912D01*
X145547368Y-95154848D01*
X145557340Y-95159498D01*
X145782747Y-95241540D01*
X145793374Y-95244387D01*
X146029603Y-95286041D01*
X146040564Y-95287000D01*
X146280436Y-95287000D01*
X146291397Y-95286041D01*
X146527626Y-95244387D01*
X146538253Y-95241540D01*
X146763660Y-95159498D01*
X146773632Y-95154848D01*
X146981368Y-95034912D01*
X146990381Y-95028601D01*
X147174134Y-94874413D01*
X147181913Y-94866634D01*
X147336101Y-94682881D01*
X147342412Y-94673868D01*
X147462348Y-94466132D01*
X147466998Y-94456160D01*
X147549040Y-94230753D01*
X147551887Y-94220126D01*
X147593541Y-93983897D01*
X147594500Y-93972936D01*
X147594500Y-93733064D01*
X147593541Y-93722103D01*
X147551887Y-93485874D01*
X147549040Y-93475247D01*
X147466998Y-93249840D01*
X147462348Y-93239868D01*
X147342412Y-93032132D01*
X147336101Y-93023119D01*
X147181913Y-92839366D01*
X147174134Y-92831587D01*
X146990381Y-92677399D01*
X146981368Y-92671088D01*
X146773632Y-92551152D01*
X146763660Y-92546502D01*
X146538253Y-92464460D01*
X146527626Y-92461613D01*
X146291397Y-92419959D01*
X146280436Y-92419000D01*
X146040564Y-92419000D01*
X146029603Y-92419959D01*
X145793374Y-92461613D01*
X145782747Y-92464460D01*
X145557340Y-92546502D01*
X145547368Y-92551152D01*
X145339632Y-92671088D01*
X145330619Y-92677399D01*
X145146866Y-92831587D01*
X145139087Y-92839366D01*
X144984899Y-93023119D01*
X144978588Y-93032132D01*
X144858652Y-93239868D01*
X144854002Y-93249840D01*
X144771960Y-93475247D01*
X144769113Y-93485874D01*
X144727459Y-93722103D01*
X144726500Y-93733064D01*
X142594500Y-93733064D01*
X142593541Y-93722103D01*
X142551887Y-93485874D01*
X142549040Y-93475247D01*
X142466998Y-93249840D01*
X142462348Y-93239868D01*
X142342412Y-93032132D01*
X142336101Y-93023119D01*
X142181913Y-92839366D01*
X142174134Y-92831587D01*
X141990381Y-92677399D01*
X141981368Y-92671088D01*
X141773632Y-92551152D01*
X141763660Y-92546502D01*
X141538253Y-92464460D01*
X141527626Y-92461613D01*
X141291397Y-92419959D01*
X141280436Y-92419000D01*
X141040564Y-92419000D01*
X141029603Y-92419959D01*
X140793374Y-92461613D01*
X140782747Y-92464460D01*
X140557340Y-92546502D01*
X140547368Y-92551152D01*
X140339632Y-92671088D01*
X140330619Y-92677399D01*
X140146866Y-92831587D01*
X140139087Y-92839366D01*
X139984899Y-93023119D01*
X139978588Y-93032132D01*
X139858652Y-93239868D01*
X139854002Y-93249840D01*
X139771960Y-93475247D01*
X139769113Y-93485874D01*
X139727459Y-93722103D01*
X139726500Y-93733064D01*
X139726500Y-93867898D01*
X139620031Y-93729646D01*
X139613072Y-93721997D01*
X139428337Y-93549729D01*
X139420221Y-93543319D01*
X139209832Y-93403536D01*
X139200778Y-93398538D01*
X138970383Y-93294995D01*
X138960634Y-93291543D01*
X138716423Y-93227019D01*
X138706242Y-93225206D01*
X138454770Y-93201435D01*
X138444429Y-93201308D01*
X138192451Y-93218929D01*
X138182229Y-93220493D01*
X138046237Y-93252891D01*
X136666901Y-91873556D01*
X136657715Y-91858997D01*
X136646079Y-91845325D01*
X136582663Y-91789318D01*
X136562689Y-91769343D01*
X136555914Y-91763470D01*
X136539276Y-91751000D01*
X136482225Y-91700614D01*
X136467220Y-91690757D01*
X136444934Y-91680293D01*
X136425237Y-91665531D01*
X136409489Y-91656910D01*
X136338231Y-91630197D01*
X136269160Y-91597768D01*
X136251604Y-91592459D01*
X136228260Y-91588971D01*
X136204792Y-91580173D01*
X136187258Y-91576318D01*
X136100413Y-91569864D01*
X136079195Y-91566693D01*
X136069872Y-91566000D01*
X136048412Y-91566000D01*
X135969252Y-91560118D01*
X135951341Y-91561339D01*
X135929506Y-91566000D01*
X134173946Y-91566000D01*
X133557782Y-90949837D01*
X134258258Y-90949837D01*
X134274634Y-90947681D01*
X134553859Y-90872863D01*
X134578339Y-90860120D01*
X134734590Y-90729010D01*
X134748761Y-90712121D01*
X134848221Y-90539850D01*
X134855187Y-90547294D01*
X134863112Y-90554442D01*
X135061941Y-90705361D01*
X135070957Y-90711071D01*
X135292371Y-90826332D01*
X135302220Y-90830442D01*
X135539889Y-90906749D01*
X135550290Y-90909140D01*
X135797417Y-90944312D01*
X135808072Y-90944917D01*
X136057593Y-90937948D01*
X136068198Y-90936749D01*
X136312977Y-90887837D01*
X136323228Y-90884868D01*
X136556267Y-90795413D01*
X136565871Y-90790760D01*
X136780506Y-90663319D01*
X136789188Y-90657114D01*
X136979283Y-90495331D01*
X136986796Y-90487752D01*
X137146914Y-90296254D01*
X137153043Y-90287517D01*
X137183899Y-90234500D01*
X137257909Y-90234500D01*
X137274690Y-90238297D01*
X137292586Y-90239737D01*
X137376995Y-90234500D01*
X137405278Y-90234500D01*
X137414219Y-90233863D01*
X137434825Y-90230913D01*
X137510774Y-90226200D01*
X137528354Y-90222559D01*
X137551501Y-90214203D01*
X137575876Y-90210712D01*
X137593109Y-90205673D01*
X137662396Y-90174169D01*
X137734155Y-90148264D01*
X137750323Y-90139604D01*
X137761911Y-90131029D01*
X137758502Y-90138340D01*
X137676460Y-90363747D01*
X137673613Y-90374374D01*
X137631959Y-90610603D01*
X137631000Y-90621564D01*
X137631000Y-90861436D01*
X137631959Y-90872397D01*
X137673613Y-91108626D01*
X137676460Y-91119253D01*
X137758502Y-91344660D01*
X137763152Y-91354632D01*
X137883088Y-91562368D01*
X137889399Y-91571381D01*
X138043587Y-91755134D01*
X138051366Y-91762913D01*
X138235119Y-91917101D01*
X138244132Y-91923412D01*
X138451868Y-92043348D01*
X138461840Y-92047998D01*
X138687247Y-92130040D01*
X138697874Y-92132887D01*
X138934103Y-92174541D01*
X138945064Y-92175500D01*
X139184936Y-92175500D01*
X139195897Y-92174541D01*
X139432126Y-92132887D01*
X139442753Y-92130040D01*
X139668160Y-92047998D01*
X139678132Y-92043348D01*
X139885868Y-91923412D01*
X139894881Y-91917101D01*
X140078634Y-91762913D01*
X140086413Y-91755134D01*
X140240601Y-91571381D01*
X140246912Y-91562368D01*
X140366848Y-91354632D01*
X140371498Y-91344660D01*
X140453540Y-91119253D01*
X140456387Y-91108626D01*
X140482679Y-90959518D01*
X145267320Y-90959518D01*
X145293613Y-91108626D01*
X145296460Y-91119253D01*
X145378502Y-91344660D01*
X145383152Y-91354632D01*
X145503088Y-91562368D01*
X145509399Y-91571381D01*
X145663587Y-91755134D01*
X145671366Y-91762913D01*
X145855119Y-91917101D01*
X145864132Y-91923412D01*
X146071868Y-92043348D01*
X146081840Y-92047998D01*
X146307247Y-92130040D01*
X146317874Y-92132887D01*
X146466982Y-92159180D01*
X146557000Y-92083646D01*
X146557000Y-90943309D01*
X146813000Y-90943309D01*
X146813000Y-92083646D01*
X146903018Y-92159180D01*
X147052126Y-92132887D01*
X147062753Y-92130040D01*
X147288160Y-92047998D01*
X147298132Y-92043348D01*
X147505868Y-91923412D01*
X147514881Y-91917101D01*
X147698634Y-91762913D01*
X147706413Y-91755134D01*
X147860601Y-91571381D01*
X147866912Y-91562368D01*
X147986848Y-91354632D01*
X147991498Y-91344660D01*
X148073540Y-91119253D01*
X148076387Y-91108626D01*
X148102680Y-90959518D01*
X148027146Y-90869500D01*
X146886809Y-90869500D01*
X146813000Y-90943309D01*
X146557000Y-90943309D01*
X146483191Y-90869500D01*
X145342854Y-90869500D01*
X145267320Y-90959518D01*
X140482679Y-90959518D01*
X140498041Y-90872397D01*
X140499000Y-90861436D01*
X140499000Y-90621564D01*
X140498041Y-90610603D01*
X140482680Y-90523482D01*
X145267320Y-90523482D01*
X145342854Y-90613500D01*
X146483191Y-90613500D01*
X146557000Y-90539691D01*
X146557000Y-89399354D01*
X146813000Y-89399354D01*
X146813000Y-90539691D01*
X146886809Y-90613500D01*
X148027146Y-90613500D01*
X148102680Y-90523482D01*
X148076387Y-90374374D01*
X148073540Y-90363747D01*
X147991498Y-90138340D01*
X147986848Y-90128368D01*
X147866912Y-89920632D01*
X147860601Y-89911619D01*
X147706413Y-89727866D01*
X147698634Y-89720087D01*
X147514881Y-89565899D01*
X147505868Y-89559588D01*
X147298132Y-89439652D01*
X147288160Y-89435002D01*
X147062753Y-89352960D01*
X147052126Y-89350113D01*
X146903018Y-89323820D01*
X146813000Y-89399354D01*
X146557000Y-89399354D01*
X146466982Y-89323820D01*
X146317874Y-89350113D01*
X146307247Y-89352960D01*
X146081840Y-89435002D01*
X146071868Y-89439652D01*
X145864132Y-89559588D01*
X145855119Y-89565899D01*
X145671366Y-89720087D01*
X145663587Y-89727866D01*
X145509399Y-89911619D01*
X145503088Y-89920632D01*
X145383152Y-90128368D01*
X145378502Y-90138340D01*
X145296460Y-90363747D01*
X145293613Y-90374374D01*
X145267320Y-90523482D01*
X140482680Y-90523482D01*
X140456387Y-90374374D01*
X140453540Y-90363747D01*
X140371498Y-90138340D01*
X140366848Y-90128368D01*
X140246912Y-89920632D01*
X140240601Y-89911619D01*
X140086413Y-89727866D01*
X140078634Y-89720087D01*
X139894881Y-89565899D01*
X139885868Y-89559588D01*
X139678132Y-89439652D01*
X139668160Y-89435002D01*
X139442753Y-89352960D01*
X139432126Y-89350113D01*
X139195897Y-89308459D01*
X139184936Y-89307500D01*
X138945064Y-89307500D01*
X138934103Y-89308459D01*
X138697874Y-89350113D01*
X138687247Y-89352960D01*
X138509801Y-89417545D01*
X138820786Y-89106561D01*
X138934103Y-89126541D01*
X138945064Y-89127500D01*
X139184936Y-89127500D01*
X139195897Y-89126541D01*
X139432126Y-89084887D01*
X139442753Y-89082040D01*
X139668160Y-88999998D01*
X139678132Y-88995348D01*
X139885868Y-88875412D01*
X139894881Y-88869101D01*
X140078634Y-88714913D01*
X140086413Y-88707134D01*
X140240601Y-88523381D01*
X140246912Y-88514368D01*
X140366848Y-88306632D01*
X140371498Y-88296660D01*
X140453540Y-88071253D01*
X140456387Y-88060626D01*
X140498041Y-87824397D01*
X140499000Y-87813436D01*
X140499000Y-87573564D01*
X140498041Y-87562603D01*
X140456387Y-87326374D01*
X140453540Y-87315747D01*
X140371498Y-87090340D01*
X140366848Y-87080368D01*
X140246912Y-86872632D01*
X140240601Y-86863619D01*
X140086413Y-86679866D01*
X140078634Y-86672087D01*
X139894881Y-86517899D01*
X139885868Y-86511588D01*
X139678132Y-86391652D01*
X139668160Y-86387002D01*
X139442753Y-86304960D01*
X139432126Y-86302113D01*
X139195897Y-86260459D01*
X139184936Y-86259500D01*
X138945064Y-86259500D01*
X138934103Y-86260459D01*
X138697874Y-86302113D01*
X138687247Y-86304960D01*
X138461840Y-86387002D01*
X138451868Y-86391652D01*
X138244132Y-86511588D01*
X138235119Y-86517899D01*
X138051366Y-86672087D01*
X138043587Y-86679866D01*
X137889399Y-86863619D01*
X137883088Y-86872632D01*
X137763152Y-87080368D01*
X137758502Y-87090340D01*
X137676460Y-87315747D01*
X137673613Y-87326374D01*
X137631959Y-87562603D01*
X137631000Y-87573564D01*
X137631000Y-87813436D01*
X137631959Y-87824397D01*
X137651939Y-87937714D01*
X137111090Y-88478564D01*
X137007322Y-88349502D01*
X136999956Y-88341780D01*
X136813003Y-88176378D01*
X136804440Y-88170007D01*
X136592291Y-88038470D01*
X136582778Y-88033633D01*
X136351500Y-87939721D01*
X136341308Y-87936556D01*
X136097513Y-87882954D01*
X136086934Y-87881552D01*
X135837592Y-87869794D01*
X135826928Y-87870194D01*
X135579170Y-87900614D01*
X135568725Y-87902806D01*
X135329635Y-87974537D01*
X135319709Y-87978457D01*
X135096123Y-88089446D01*
X135087000Y-88094982D01*
X134885311Y-88242056D01*
X134877250Y-88249051D01*
X134837774Y-88289645D01*
X134814863Y-88204142D01*
X134802120Y-88179662D01*
X134671010Y-88023410D01*
X134654121Y-88009239D01*
X134479880Y-87908641D01*
X134459163Y-87901100D01*
X134266462Y-87867122D01*
X134255501Y-87866163D01*
X132441742Y-87866163D01*
X132425366Y-87868319D01*
X132146142Y-87943137D01*
X132121662Y-87955880D01*
X132036049Y-88027717D01*
X132036049Y-87042635D01*
X132039845Y-87025859D01*
X132041285Y-87007964D01*
X132036049Y-86923564D01*
X132036049Y-86895270D01*
X132035412Y-86886328D01*
X132032461Y-86865722D01*
X132027749Y-86789775D01*
X132024109Y-86772195D01*
X132015751Y-86749043D01*
X132012261Y-86724671D01*
X132007222Y-86707440D01*
X131975720Y-86638155D01*
X131949813Y-86566392D01*
X131941153Y-86550225D01*
X131927114Y-86531251D01*
X131916740Y-86508436D01*
X131907068Y-86493311D01*
X131850224Y-86427341D01*
X131837462Y-86410094D01*
X131831358Y-86403011D01*
X131816188Y-86387841D01*
X131764369Y-86327702D01*
X131750840Y-86315900D01*
X131732105Y-86303757D01*
X131313748Y-85885401D01*
X131454461Y-85873090D01*
X131465296Y-85871180D01*
X131696996Y-85809096D01*
X131707335Y-85805333D01*
X131924734Y-85703958D01*
X131934262Y-85698457D01*
X132130755Y-85560871D01*
X132139183Y-85553798D01*
X132308798Y-85384183D01*
X132315871Y-85375755D01*
X132453457Y-85179262D01*
X132458958Y-85169734D01*
X132560333Y-84952335D01*
X132564096Y-84941996D01*
X132626180Y-84710296D01*
X132628090Y-84699461D01*
X132648996Y-84460501D01*
X132648996Y-84449499D01*
X132628090Y-84210539D01*
X132626180Y-84199704D01*
X132577492Y-84017998D01*
X133136446Y-83459044D01*
X133179187Y-83426248D01*
X133190867Y-83414568D01*
X133331526Y-83231257D01*
X133339785Y-83216953D01*
X133428206Y-83003483D01*
X133432481Y-82987529D01*
X133454532Y-82820034D01*
X133462640Y-82758449D01*
X133462640Y-82741932D01*
X133455610Y-82688535D01*
X133455610Y-79369499D01*
X136591004Y-79369499D01*
X136591004Y-79380501D01*
X136611910Y-79619461D01*
X136613820Y-79630296D01*
X136675904Y-79861996D01*
X136679667Y-79872335D01*
X136781042Y-80089734D01*
X136786543Y-80099262D01*
X136924129Y-80295755D01*
X136931202Y-80304183D01*
X137100817Y-80473798D01*
X137109245Y-80480871D01*
X137305738Y-80618457D01*
X137315266Y-80623958D01*
X137360391Y-80645000D01*
X137315266Y-80666042D01*
X137305738Y-80671543D01*
X137109245Y-80809129D01*
X137100817Y-80816202D01*
X136931202Y-80985817D01*
X136924129Y-80994245D01*
X136786543Y-81190738D01*
X136781042Y-81200266D01*
X136679667Y-81417665D01*
X136675904Y-81428004D01*
X136613820Y-81659704D01*
X136611910Y-81670539D01*
X136591004Y-81909499D01*
X136591004Y-81920501D01*
X136611910Y-82159461D01*
X136613820Y-82170296D01*
X136675904Y-82401996D01*
X136679667Y-82412335D01*
X136781042Y-82629734D01*
X136786543Y-82639262D01*
X136924129Y-82835755D01*
X136931202Y-82844183D01*
X137100817Y-83013798D01*
X137109245Y-83020871D01*
X137305738Y-83158457D01*
X137315266Y-83163958D01*
X137360391Y-83185000D01*
X137315266Y-83206042D01*
X137305738Y-83211543D01*
X137109245Y-83349129D01*
X137100817Y-83356202D01*
X136931202Y-83525817D01*
X136924129Y-83534245D01*
X136786543Y-83730738D01*
X136781042Y-83740266D01*
X136679667Y-83957665D01*
X136675904Y-83968004D01*
X136613820Y-84199704D01*
X136611910Y-84210539D01*
X136591004Y-84449499D01*
X136591004Y-84460501D01*
X136611910Y-84699461D01*
X136613820Y-84710296D01*
X136675904Y-84941996D01*
X136679667Y-84952335D01*
X136781042Y-85169734D01*
X136786543Y-85179262D01*
X136924129Y-85375755D01*
X136931202Y-85384183D01*
X137100817Y-85553798D01*
X137109245Y-85560871D01*
X137305738Y-85698457D01*
X137315266Y-85703958D01*
X137532665Y-85805333D01*
X137543004Y-85809096D01*
X137774704Y-85871180D01*
X137785539Y-85873090D01*
X137964652Y-85888760D01*
X137970146Y-85889000D01*
X138889854Y-85889000D01*
X138895348Y-85888760D01*
X139074461Y-85873090D01*
X139085296Y-85871180D01*
X139316996Y-85809096D01*
X139327335Y-85805333D01*
X139544734Y-85703958D01*
X139554262Y-85698457D01*
X139750755Y-85560871D01*
X139759183Y-85553798D01*
X139928798Y-85384183D01*
X139935871Y-85375755D01*
X140073457Y-85179262D01*
X140078958Y-85169734D01*
X140180333Y-84952335D01*
X140184096Y-84941996D01*
X140246180Y-84710296D01*
X140248090Y-84699461D01*
X140268996Y-84460501D01*
X140268996Y-84449499D01*
X140248090Y-84210539D01*
X140246180Y-84199704D01*
X140184096Y-83968004D01*
X140180333Y-83957665D01*
X140078958Y-83740266D01*
X140073457Y-83730738D01*
X139935871Y-83534245D01*
X139928798Y-83525817D01*
X139759183Y-83356202D01*
X139750755Y-83349129D01*
X139554262Y-83211543D01*
X139544734Y-83206042D01*
X139499609Y-83185000D01*
X139544734Y-83163958D01*
X139554262Y-83158457D01*
X139750755Y-83020871D01*
X139759183Y-83013798D01*
X139928798Y-82844183D01*
X139935871Y-82835755D01*
X140073457Y-82639262D01*
X140078958Y-82629734D01*
X140180333Y-82412335D01*
X140184096Y-82401996D01*
X140246180Y-82170296D01*
X140248090Y-82159461D01*
X140268996Y-81920501D01*
X140268996Y-81909499D01*
X140248090Y-81670539D01*
X140246180Y-81659704D01*
X140184096Y-81428004D01*
X140180333Y-81417665D01*
X140078958Y-81200266D01*
X140073457Y-81190738D01*
X139935871Y-80994245D01*
X139928798Y-80985817D01*
X139759183Y-80816202D01*
X139750755Y-80809129D01*
X139554262Y-80671543D01*
X139544734Y-80666042D01*
X139499609Y-80645000D01*
X139544734Y-80623958D01*
X139554262Y-80618457D01*
X139750755Y-80480871D01*
X139759183Y-80473798D01*
X139928798Y-80304183D01*
X139935871Y-80295755D01*
X140073457Y-80099262D01*
X140078958Y-80089734D01*
X140180333Y-79872335D01*
X140184096Y-79861996D01*
X140246180Y-79630296D01*
X140248090Y-79619461D01*
X140268996Y-79380501D01*
X140268996Y-79369499D01*
X140248090Y-79130539D01*
X140246180Y-79119704D01*
X140184096Y-78888004D01*
X140180333Y-78877665D01*
X140078958Y-78660266D01*
X140073457Y-78650738D01*
X139935871Y-78454245D01*
X139928798Y-78445817D01*
X139759183Y-78276202D01*
X139750755Y-78269129D01*
X139554262Y-78131543D01*
X139544734Y-78126042D01*
X139499609Y-78105000D01*
X139544734Y-78083958D01*
X139554262Y-78078457D01*
X139750755Y-77940871D01*
X139759183Y-77933798D01*
X139928798Y-77764183D01*
X139935871Y-77755755D01*
X140073457Y-77559262D01*
X140078958Y-77549734D01*
X140180333Y-77332335D01*
X140184096Y-77321996D01*
X140253871Y-77061592D01*
X140178218Y-76963000D01*
X136681782Y-76963000D01*
X136606129Y-77061592D01*
X136675904Y-77321996D01*
X136679667Y-77332335D01*
X136781042Y-77549734D01*
X136786543Y-77559262D01*
X136924129Y-77755755D01*
X136931202Y-77764183D01*
X137100817Y-77933798D01*
X137109245Y-77940871D01*
X137305738Y-78078457D01*
X137315266Y-78083958D01*
X137360391Y-78105000D01*
X137315266Y-78126042D01*
X137305738Y-78131543D01*
X137109245Y-78269129D01*
X137100817Y-78276202D01*
X136931202Y-78445817D01*
X136924129Y-78454245D01*
X136786543Y-78650738D01*
X136781042Y-78660266D01*
X136679667Y-78877665D01*
X136675904Y-78888004D01*
X136613820Y-79119704D01*
X136611910Y-79130539D01*
X136591004Y-79369499D01*
X133455610Y-79369499D01*
X133455610Y-76608408D01*
X136606129Y-76608408D01*
X136681782Y-76707000D01*
X138228191Y-76707000D01*
X138302000Y-76633191D01*
X138302000Y-75474809D01*
X138558000Y-75474809D01*
X138558000Y-76633191D01*
X138631809Y-76707000D01*
X140178218Y-76707000D01*
X140253871Y-76608408D01*
X140184096Y-76348004D01*
X140180333Y-76337665D01*
X140078958Y-76120266D01*
X140073457Y-76110738D01*
X139935871Y-75914245D01*
X139928798Y-75905817D01*
X139759183Y-75736202D01*
X139750755Y-75729129D01*
X139554262Y-75591543D01*
X139544734Y-75586042D01*
X139327335Y-75484667D01*
X139316996Y-75480904D01*
X139085296Y-75418820D01*
X139074461Y-75416910D01*
X138895348Y-75401240D01*
X138889854Y-75401000D01*
X138631809Y-75401000D01*
X138558000Y-75474809D01*
X138302000Y-75474809D01*
X138228191Y-75401000D01*
X137970146Y-75401000D01*
X137964652Y-75401240D01*
X137785539Y-75416910D01*
X137774704Y-75418820D01*
X137543004Y-75480904D01*
X137532665Y-75484667D01*
X137315266Y-75586042D01*
X137305738Y-75591543D01*
X137109245Y-75729129D01*
X137100817Y-75736202D01*
X136931202Y-75905817D01*
X136924129Y-75914245D01*
X136786543Y-76110738D01*
X136781042Y-76120266D01*
X136679667Y-76337665D01*
X136675904Y-76348004D01*
X136606129Y-76608408D01*
X133455610Y-76608408D01*
X133455610Y-75883666D01*
X133462640Y-75830269D01*
X133462640Y-75813752D01*
X133432481Y-75584670D01*
X133428206Y-75568716D01*
X133386757Y-75468648D01*
X133339784Y-75355247D01*
X133331526Y-75340943D01*
X133190867Y-75157632D01*
X133179188Y-75145953D01*
X133136449Y-75113158D01*
X132266801Y-74243511D01*
X132294726Y-74238587D01*
X132305353Y-74235740D01*
X132530760Y-74153698D01*
X132540732Y-74149048D01*
X132748468Y-74029112D01*
X132757481Y-74022801D01*
X132878163Y-73921536D01*
X132878163Y-74133258D01*
X132880319Y-74149634D01*
X132955137Y-74428859D01*
X132967880Y-74453339D01*
X133098990Y-74609590D01*
X133115879Y-74623761D01*
X133290120Y-74724359D01*
X133310837Y-74731900D01*
X133503538Y-74765878D01*
X133514499Y-74766837D01*
X135728258Y-74766837D01*
X135744634Y-74764681D01*
X136023859Y-74689863D01*
X136048339Y-74677120D01*
X136204590Y-74546010D01*
X136218761Y-74529121D01*
X136319359Y-74354880D01*
X136326900Y-74334163D01*
X136360878Y-74141462D01*
X136361837Y-74130501D01*
X136361837Y-71916742D01*
X136359681Y-71900366D01*
X136284863Y-71621142D01*
X136272120Y-71596662D01*
X136141010Y-71440410D01*
X136124121Y-71426239D01*
X135949880Y-71325641D01*
X135929163Y-71318100D01*
X135736462Y-71284122D01*
X135725501Y-71283163D01*
X133511742Y-71283163D01*
X133495366Y-71285319D01*
X133216142Y-71360137D01*
X133191662Y-71372880D01*
X133035410Y-71503990D01*
X133021239Y-71520879D01*
X132920641Y-71695120D01*
X132913100Y-71715837D01*
X132899838Y-71791051D01*
X132757481Y-71671599D01*
X132748468Y-71665288D01*
X132540732Y-71545352D01*
X132530760Y-71540702D01*
X132305353Y-71458660D01*
X132294726Y-71455813D01*
X132145618Y-71429520D01*
X132055600Y-71505054D01*
X132055600Y-72975200D01*
X131799600Y-72975200D01*
X131799600Y-71505054D01*
X131709582Y-71429520D01*
X131610257Y-71447035D01*
X131824092Y-71233200D01*
X132047536Y-71233200D01*
X132058497Y-71232241D01*
X132294726Y-71190587D01*
X132305353Y-71187740D01*
X132530760Y-71105698D01*
X132540732Y-71101048D01*
X132748468Y-70981112D01*
X132757481Y-70974801D01*
X132941234Y-70820613D01*
X132949013Y-70812834D01*
X133103201Y-70629081D01*
X133109512Y-70620068D01*
X133229448Y-70412332D01*
X133234098Y-70402360D01*
X133316140Y-70176953D01*
X133318987Y-70166326D01*
X133360641Y-69930097D01*
X133361600Y-69919136D01*
X133361600Y-69679264D01*
X133360641Y-69668303D01*
X133318987Y-69432074D01*
X133316140Y-69421447D01*
X133234098Y-69196040D01*
X133229448Y-69186068D01*
X133109512Y-68978332D01*
X133103201Y-68969319D01*
X132949013Y-68785566D01*
X132941234Y-68777787D01*
X132757481Y-68623599D01*
X132748468Y-68617288D01*
X132540732Y-68497352D01*
X132530760Y-68492702D01*
X132305353Y-68410660D01*
X132294726Y-68407813D01*
X132207705Y-68392469D01*
X132210463Y-68385809D01*
X132240897Y-68312336D01*
X132245172Y-68296381D01*
X132275331Y-68067300D01*
X132275331Y-68050784D01*
X132268301Y-67997385D01*
X132268301Y-64333157D01*
X132275331Y-64279760D01*
X132275331Y-64263243D01*
X132245172Y-64034161D01*
X132240897Y-64018207D01*
X132181938Y-63875867D01*
X132152475Y-63804738D01*
X132144217Y-63790434D01*
X132003558Y-63607123D01*
X131991879Y-63595444D01*
X131949140Y-63562649D01*
X130029337Y-61642847D01*
X130029337Y-60723242D01*
X130027181Y-60706866D01*
X129952363Y-60427642D01*
X129939620Y-60403162D01*
X129808510Y-60246910D01*
X129791621Y-60232739D01*
X129617380Y-60132141D01*
X129596663Y-60124600D01*
X129403962Y-60090622D01*
X129393001Y-60089663D01*
X127779242Y-60089663D01*
X127762866Y-60091819D01*
X127483642Y-60166637D01*
X127459162Y-60179380D01*
X127302910Y-60310490D01*
X127288739Y-60327379D01*
X127188141Y-60501620D01*
X127180600Y-60522337D01*
X127154265Y-60671694D01*
X127131344Y-60668677D01*
X126320710Y-61479309D01*
X126320710Y-61583691D01*
X127131344Y-62394323D01*
X127157142Y-62390927D01*
X127222637Y-62635359D01*
X127235380Y-62659839D01*
X127366490Y-62816090D01*
X127383379Y-62830261D01*
X127557620Y-62930859D01*
X127578337Y-62938400D01*
X127771038Y-62972378D01*
X127781999Y-62973337D01*
X128698847Y-62973337D01*
X130386702Y-64661193D01*
X130386702Y-65082963D01*
X130059309Y-65082963D01*
X129985500Y-65156772D01*
X129985500Y-66818000D01*
X129729500Y-66818000D01*
X129729500Y-65156772D01*
X129655691Y-65082963D01*
X128884042Y-65082963D01*
X128867666Y-65085119D01*
X128588442Y-65159937D01*
X128563962Y-65172680D01*
X128407710Y-65303790D01*
X128393539Y-65320679D01*
X128323731Y-65441590D01*
X128315837Y-65434229D01*
X128307721Y-65427819D01*
X128097332Y-65288036D01*
X128088278Y-65283038D01*
X127857883Y-65179495D01*
X127848134Y-65176043D01*
X127603923Y-65111519D01*
X127593742Y-65109706D01*
X127342270Y-65085935D01*
X127331929Y-65085808D01*
X127208298Y-65094453D01*
X126929200Y-64815355D01*
X126920014Y-64800796D01*
X126908378Y-64787124D01*
X126844962Y-64731117D01*
X126824988Y-64711142D01*
X126818213Y-64705269D01*
X126801575Y-64692799D01*
X126744524Y-64642413D01*
X126729519Y-64632556D01*
X126707233Y-64622092D01*
X126687536Y-64607330D01*
X126671788Y-64598709D01*
X126600530Y-64571996D01*
X126531459Y-64539567D01*
X126513903Y-64534258D01*
X126490559Y-64530770D01*
X126467091Y-64521972D01*
X126449557Y-64518117D01*
X126362712Y-64511663D01*
X126341494Y-64508492D01*
X126332171Y-64507799D01*
X126310711Y-64507799D01*
X126231551Y-64501917D01*
X126213640Y-64503138D01*
X126191805Y-64507799D01*
X124219353Y-64507799D01*
X124202572Y-64504002D01*
X124184677Y-64502562D01*
X124100268Y-64507799D01*
X124071985Y-64507799D01*
X124063043Y-64508436D01*
X124042437Y-64511387D01*
X123966488Y-64516099D01*
X123948909Y-64519739D01*
X123925756Y-64528097D01*
X123901386Y-64531587D01*
X123884154Y-64536626D01*
X123814865Y-64568130D01*
X123743107Y-64594035D01*
X123726940Y-64602694D01*
X123707968Y-64616733D01*
X123685150Y-64627108D01*
X123670025Y-64636780D01*
X123604056Y-64693623D01*
X123586809Y-64706385D01*
X123579726Y-64712489D01*
X123564555Y-64727660D01*
X123504416Y-64779479D01*
X123492614Y-64793008D01*
X123480471Y-64811743D01*
X122933254Y-65358961D01*
X122898712Y-65299132D01*
X122892401Y-65290119D01*
X122738213Y-65106366D01*
X122730434Y-65098587D01*
X122546681Y-64944399D01*
X122537668Y-64938088D01*
X122329932Y-64818152D01*
X122319960Y-64813502D01*
X122094553Y-64731460D01*
X122083926Y-64728613D01*
X121847697Y-64686959D01*
X121836736Y-64686000D01*
X121596864Y-64686000D01*
X121585903Y-64686959D01*
X121349674Y-64728613D01*
X121339047Y-64731460D01*
X121113640Y-64813502D01*
X121103668Y-64818152D01*
X120895932Y-64938088D01*
X120886919Y-64944399D01*
X120772853Y-65040113D01*
X120773596Y-62575344D01*
X125224677Y-62575344D01*
X125240897Y-62698553D01*
X125474368Y-62833348D01*
X125484340Y-62837998D01*
X125709747Y-62920040D01*
X125720374Y-62922887D01*
X125956603Y-62964541D01*
X125967564Y-62965500D01*
X126207436Y-62965500D01*
X126218397Y-62964541D01*
X126454626Y-62922887D01*
X126465253Y-62920040D01*
X126690660Y-62837998D01*
X126700632Y-62833348D01*
X126934103Y-62698553D01*
X126950323Y-62575344D01*
X126139691Y-61764710D01*
X126035309Y-61764710D01*
X125224677Y-62575344D01*
X120773596Y-62575344D01*
X120774022Y-61163694D01*
X120883025Y-61276570D01*
X120889564Y-61282458D01*
X121117793Y-61460770D01*
X121125088Y-61465691D01*
X121375911Y-61610504D01*
X121383821Y-61614362D01*
X121652358Y-61722858D01*
X121660728Y-61725578D01*
X121941750Y-61795644D01*
X121950416Y-61797172D01*
X122238456Y-61827447D01*
X122247251Y-61827754D01*
X122536701Y-61817646D01*
X122545453Y-61816726D01*
X122830678Y-61766433D01*
X122839216Y-61764304D01*
X123114668Y-61674804D01*
X123122827Y-61671508D01*
X123383141Y-61544544D01*
X123390763Y-61540144D01*
X123581389Y-61411564D01*
X124653500Y-61411564D01*
X124653500Y-61651436D01*
X124654459Y-61662397D01*
X124696113Y-61898626D01*
X124698960Y-61909253D01*
X124781002Y-62134660D01*
X124785652Y-62144632D01*
X124920447Y-62378103D01*
X125043656Y-62394323D01*
X125854290Y-61583691D01*
X125854290Y-61479309D01*
X125043656Y-60668677D01*
X124920447Y-60684897D01*
X124785652Y-60918368D01*
X124781002Y-60928340D01*
X124698960Y-61153747D01*
X124696113Y-61164374D01*
X124654459Y-61400603D01*
X124653500Y-61411564D01*
X123581389Y-61411564D01*
X123630873Y-61378187D01*
X123637808Y-61372769D01*
X123853041Y-61178972D01*
X123859154Y-61172642D01*
X124045323Y-60950776D01*
X124050495Y-60943656D01*
X124203974Y-60698039D01*
X124208105Y-60690269D01*
X124298313Y-60487656D01*
X125224677Y-60487656D01*
X126035309Y-61298290D01*
X126139691Y-61298290D01*
X126950323Y-60487656D01*
X126934103Y-60364447D01*
X126700632Y-60229652D01*
X126690660Y-60225002D01*
X126465253Y-60142960D01*
X126454626Y-60140113D01*
X126218397Y-60098459D01*
X126207436Y-60097500D01*
X125967564Y-60097500D01*
X125956603Y-60098459D01*
X125720374Y-60140113D01*
X125709747Y-60142960D01*
X125484340Y-60225002D01*
X125474368Y-60229652D01*
X125240897Y-60364447D01*
X125224677Y-60487656D01*
X124298313Y-60487656D01*
X124325906Y-60425682D01*
X124328916Y-60417413D01*
X124408748Y-60139007D01*
X124410577Y-60130399D01*
X124450886Y-59843592D01*
X124451500Y-59834813D01*
X124451500Y-59545187D01*
X124450886Y-59536408D01*
X124410577Y-59249601D01*
X124408748Y-59240993D01*
X124328916Y-58962587D01*
X124325906Y-58954318D01*
X124208105Y-58689731D01*
X124203974Y-58681961D01*
X124050495Y-58436344D01*
X124045323Y-58429224D01*
X123859154Y-58207358D01*
X123853041Y-58201028D01*
X123637808Y-58007231D01*
X123630873Y-58001813D01*
X123390763Y-57839856D01*
X123383141Y-57835456D01*
X123122827Y-57708492D01*
X123114668Y-57705196D01*
X122839216Y-57615696D01*
X122830678Y-57613567D01*
X122545453Y-57563274D01*
X122536701Y-57562354D01*
X122247251Y-57552246D01*
X122238456Y-57552553D01*
X121950416Y-57582828D01*
X121941750Y-57584356D01*
X121660728Y-57654422D01*
X121652358Y-57657142D01*
X121383821Y-57765638D01*
X121375911Y-57769496D01*
X121125088Y-57914309D01*
X121117793Y-57919230D01*
X120889564Y-58097542D01*
X120883025Y-58103430D01*
X120774911Y-58215385D01*
X120775808Y-55244000D01*
X131679463Y-55244000D01*
X131679463Y-56980458D01*
G36*
X148665980Y-58656365D02*
G01*
X148528495Y-58436344D01*
X148523323Y-58429224D01*
X148337154Y-58207358D01*
X148331041Y-58201028D01*
X148115808Y-58007231D01*
X148108873Y-58001813D01*
X147868763Y-57839856D01*
X147861141Y-57835456D01*
X147600827Y-57708492D01*
X147592668Y-57705196D01*
X147317216Y-57615696D01*
X147308678Y-57613567D01*
X147023453Y-57563274D01*
X147014701Y-57562354D01*
X146725251Y-57552246D01*
X146716456Y-57552553D01*
X146428416Y-57582828D01*
X146419750Y-57584356D01*
X146138728Y-57654422D01*
X146130358Y-57657142D01*
X145861821Y-57765638D01*
X145853911Y-57769496D01*
X145603088Y-57914309D01*
X145595793Y-57919230D01*
X145367564Y-58097542D01*
X145361025Y-58103430D01*
X145159834Y-58311769D01*
X145154177Y-58318510D01*
X144983939Y-58552823D01*
X144979275Y-58560286D01*
X144843305Y-58816011D01*
X144839726Y-58824050D01*
X144740667Y-59096209D01*
X144738241Y-59104668D01*
X144678025Y-59387965D01*
X144676800Y-59396680D01*
X144656597Y-59685600D01*
X144656597Y-59694400D01*
X144676800Y-59983320D01*
X144678025Y-59992035D01*
X144738241Y-60275332D01*
X144740667Y-60283791D01*
X144839726Y-60555950D01*
X144843305Y-60563989D01*
X144979275Y-60819714D01*
X144983939Y-60827177D01*
X145154177Y-61061490D01*
X145159834Y-61068231D01*
X145361025Y-61276570D01*
X145367564Y-61282458D01*
X145595793Y-61460770D01*
X145603088Y-61465691D01*
X145853911Y-61610504D01*
X145861821Y-61614362D01*
X146130358Y-61722858D01*
X146138728Y-61725578D01*
X146419750Y-61795644D01*
X146428416Y-61797172D01*
X146716456Y-61827447D01*
X146725251Y-61827754D01*
X147014701Y-61817646D01*
X147023453Y-61816726D01*
X147308678Y-61766433D01*
X147317216Y-61764304D01*
X147592668Y-61674804D01*
X147600827Y-61671508D01*
X147861141Y-61544544D01*
X147868763Y-61540144D01*
X148108873Y-61378187D01*
X148115808Y-61372769D01*
X148331041Y-61178972D01*
X148337154Y-61172642D01*
X148523323Y-60950776D01*
X148528495Y-60943656D01*
X148665356Y-60724634D01*
X148660815Y-75776633D01*
X148658913Y-75774366D01*
X148651134Y-75766587D01*
X148467381Y-75612399D01*
X148458368Y-75606088D01*
X148250632Y-75486152D01*
X148240660Y-75481502D01*
X148015253Y-75399460D01*
X148004626Y-75396613D01*
X147768397Y-75354959D01*
X147757436Y-75354000D01*
X147517564Y-75354000D01*
X147506603Y-75354959D01*
X147393286Y-75374940D01*
X144397401Y-72379056D01*
X144388215Y-72364497D01*
X144376579Y-72350825D01*
X144313163Y-72294818D01*
X144293189Y-72274843D01*
X144286414Y-72268970D01*
X144269776Y-72256500D01*
X144212725Y-72206114D01*
X144197720Y-72196257D01*
X144175434Y-72185793D01*
X144155737Y-72171031D01*
X144139989Y-72162410D01*
X144096799Y-72146219D01*
X144056912Y-72077132D01*
X144050601Y-72068119D01*
X143896413Y-71884366D01*
X143888634Y-71876587D01*
X143704881Y-71722399D01*
X143695868Y-71716088D01*
X143488132Y-71596152D01*
X143478160Y-71591502D01*
X143252753Y-71509460D01*
X143242126Y-71506613D01*
X143005897Y-71464959D01*
X142994936Y-71464000D01*
X142755064Y-71464000D01*
X142744103Y-71464959D01*
X142507874Y-71506613D01*
X142497247Y-71509460D01*
X142271840Y-71591502D01*
X142261868Y-71596152D01*
X142054132Y-71716088D01*
X142045119Y-71722399D01*
X141861366Y-71876587D01*
X141853587Y-71884366D01*
X141699399Y-72068119D01*
X141693088Y-72077132D01*
X141614954Y-72212464D01*
X139532601Y-70130111D01*
X139532601Y-68266106D01*
X139711545Y-68228070D01*
X139721450Y-68225099D01*
X139956628Y-68132933D01*
X139965915Y-68128384D01*
X140182882Y-67999046D01*
X140191301Y-67993041D01*
X140384230Y-67830003D01*
X140391555Y-67822703D01*
X140526560Y-67664073D01*
X140579538Y-67736458D01*
X140586309Y-67744275D01*
X140766780Y-67921004D01*
X140774737Y-67927610D01*
X140981648Y-68072492D01*
X140990577Y-68077710D01*
X141218373Y-68186851D01*
X141228035Y-68190540D01*
X141470598Y-68261012D01*
X141480732Y-68263073D01*
X141731548Y-68292981D01*
X141741882Y-68293360D01*
X141994214Y-68281902D01*
X142004472Y-68280588D01*
X142251545Y-68228070D01*
X142261450Y-68225099D01*
X142496628Y-68132933D01*
X142505915Y-68128384D01*
X142722882Y-67999046D01*
X142731301Y-67993041D01*
X142799174Y-67935684D01*
X142805437Y-67959059D01*
X142818180Y-67983539D01*
X142949290Y-68139790D01*
X142966179Y-68153961D01*
X143140420Y-68254559D01*
X143161137Y-68262100D01*
X143353838Y-68296078D01*
X143364799Y-68297037D01*
X144864702Y-68297037D01*
X144864702Y-68416000D01*
X144787064Y-68416000D01*
X144776103Y-68416959D01*
X144539874Y-68458613D01*
X144529247Y-68461460D01*
X144303840Y-68543502D01*
X144293868Y-68548152D01*
X144086132Y-68668088D01*
X144077119Y-68674399D01*
X143893366Y-68828587D01*
X143885587Y-68836366D01*
X143731399Y-69020119D01*
X143725088Y-69029132D01*
X143605152Y-69236868D01*
X143600502Y-69246840D01*
X143518460Y-69472247D01*
X143515613Y-69482874D01*
X143473959Y-69719103D01*
X143473000Y-69730064D01*
X143473000Y-69969936D01*
X143473959Y-69980897D01*
X143515613Y-70217126D01*
X143518460Y-70227753D01*
X143600502Y-70453160D01*
X143605152Y-70463132D01*
X143725088Y-70670868D01*
X143731399Y-70679881D01*
X143885587Y-70863634D01*
X143893366Y-70871413D01*
X144077119Y-71025601D01*
X144086132Y-71031912D01*
X144293868Y-71151848D01*
X144303840Y-71156498D01*
X144529247Y-71238540D01*
X144539874Y-71241387D01*
X144776103Y-71283041D01*
X144787064Y-71284000D01*
X145026936Y-71284000D01*
X145037897Y-71283041D01*
X145274126Y-71241387D01*
X145284753Y-71238540D01*
X145510160Y-71156498D01*
X145520132Y-71151848D01*
X145727868Y-71031912D01*
X145736881Y-71025601D01*
X145920634Y-70871413D01*
X145928413Y-70863634D01*
X146082601Y-70679881D01*
X146088912Y-70670868D01*
X146208848Y-70463132D01*
X146213498Y-70453160D01*
X146295540Y-70227753D01*
X146298387Y-70217126D01*
X146340041Y-69980897D01*
X146341000Y-69969936D01*
X146341000Y-69746491D01*
X146427143Y-69660348D01*
X146469879Y-69627556D01*
X146481558Y-69615877D01*
X146622217Y-69432566D01*
X146630476Y-69418262D01*
X146718897Y-69204792D01*
X146723172Y-69188838D01*
X146745223Y-69021343D01*
X146753331Y-68959758D01*
X146753331Y-68943241D01*
X146746301Y-68889844D01*
X146746301Y-64396657D01*
X146753331Y-64343260D01*
X146753331Y-64326743D01*
X146723172Y-64097661D01*
X146718897Y-64081707D01*
X146635214Y-63879680D01*
X146629853Y-63863886D01*
X146481558Y-63670623D01*
X146469879Y-63658944D01*
X146427140Y-63626149D01*
X144507337Y-61706347D01*
X144507337Y-60786742D01*
X144505181Y-60770366D01*
X144430363Y-60491142D01*
X144417620Y-60466662D01*
X144286510Y-60310410D01*
X144269621Y-60296239D01*
X144095380Y-60195641D01*
X144074663Y-60188100D01*
X143881962Y-60154122D01*
X143871001Y-60153163D01*
X142257242Y-60153163D01*
X142240866Y-60155319D01*
X141961642Y-60230137D01*
X141937162Y-60242880D01*
X141780910Y-60373990D01*
X141766739Y-60390879D01*
X141666141Y-60565120D01*
X141658600Y-60585837D01*
X141632265Y-60735194D01*
X141609344Y-60732177D01*
X140798710Y-61542809D01*
X140798710Y-61647191D01*
X141609344Y-62457823D01*
X141635142Y-62454427D01*
X141700637Y-62698859D01*
X141713380Y-62723339D01*
X141844490Y-62879590D01*
X141861379Y-62893761D01*
X142035620Y-62994359D01*
X142056337Y-63001900D01*
X142249038Y-63035878D01*
X142259999Y-63036837D01*
X143176847Y-63036837D01*
X144864701Y-64724692D01*
X144864701Y-65082963D01*
X143362042Y-65082963D01*
X143345666Y-65085119D01*
X143066442Y-65159937D01*
X143041962Y-65172680D01*
X142885710Y-65303790D01*
X142871539Y-65320679D01*
X142801731Y-65441590D01*
X142793837Y-65434229D01*
X142785721Y-65427819D01*
X142575332Y-65288036D01*
X142566278Y-65283038D01*
X142335883Y-65179495D01*
X142326134Y-65176043D01*
X142081923Y-65111519D01*
X142071742Y-65109706D01*
X141820270Y-65085935D01*
X141809929Y-65085808D01*
X141557951Y-65103429D01*
X141547729Y-65104993D01*
X141302013Y-65163531D01*
X141292183Y-65166743D01*
X141059327Y-65264627D01*
X141050154Y-65269402D01*
X140836412Y-65404003D01*
X140828142Y-65410212D01*
X140639254Y-65577914D01*
X140632109Y-65585391D01*
X140525127Y-65717503D01*
X140445531Y-65614146D01*
X140438572Y-65606497D01*
X140253837Y-65434229D01*
X140245721Y-65427819D01*
X140035332Y-65288036D01*
X140026278Y-65283038D01*
X139795883Y-65179495D01*
X139786134Y-65176043D01*
X139541923Y-65111519D01*
X139531742Y-65109706D01*
X139280270Y-65085935D01*
X139269929Y-65085808D01*
X139017951Y-65103429D01*
X139007729Y-65104993D01*
X138762013Y-65163531D01*
X138752183Y-65166743D01*
X138519327Y-65264627D01*
X138510154Y-65269402D01*
X138296412Y-65404003D01*
X138288142Y-65410212D01*
X138099254Y-65577914D01*
X138092109Y-65585391D01*
X137933147Y-65781693D01*
X137927320Y-65790236D01*
X137802554Y-66009864D01*
X137798199Y-66019244D01*
X137793717Y-66031427D01*
X135849768Y-64087478D01*
X135939110Y-63998137D01*
X135945540Y-63990608D01*
X136100131Y-63777832D01*
X136105304Y-63769390D01*
X136224706Y-63535050D01*
X136228495Y-63525902D01*
X136309768Y-63275769D01*
X136312079Y-63266141D01*
X136353223Y-63006373D01*
X136354000Y-62996503D01*
X136354000Y-62733497D01*
X136353223Y-62723627D01*
X136339795Y-62638844D01*
X139702677Y-62638844D01*
X139718897Y-62762053D01*
X139952368Y-62896848D01*
X139962340Y-62901498D01*
X140187747Y-62983540D01*
X140198374Y-62986387D01*
X140434603Y-63028041D01*
X140445564Y-63029000D01*
X140685436Y-63029000D01*
X140696397Y-63028041D01*
X140932626Y-62986387D01*
X140943253Y-62983540D01*
X141168660Y-62901498D01*
X141178632Y-62896848D01*
X141412103Y-62762053D01*
X141428323Y-62638844D01*
X140617691Y-61828210D01*
X140513309Y-61828210D01*
X139702677Y-62638844D01*
X136339795Y-62638844D01*
X136312079Y-62463859D01*
X136309768Y-62454231D01*
X136228495Y-62204098D01*
X136224706Y-62194950D01*
X136105304Y-61960610D01*
X136100131Y-61952168D01*
X135945540Y-61739392D01*
X135939110Y-61731863D01*
X135768355Y-61561108D01*
X135853911Y-61610504D01*
X135861821Y-61614362D01*
X136130358Y-61722858D01*
X136138728Y-61725578D01*
X136419750Y-61795644D01*
X136428416Y-61797172D01*
X136716456Y-61827447D01*
X136725251Y-61827754D01*
X137014701Y-61817646D01*
X137023453Y-61816726D01*
X137308678Y-61766433D01*
X137317216Y-61764304D01*
X137592668Y-61674804D01*
X137600827Y-61671508D01*
X137861141Y-61544544D01*
X137868763Y-61540144D01*
X137965247Y-61475064D01*
X139131500Y-61475064D01*
X139131500Y-61714936D01*
X139132459Y-61725897D01*
X139174113Y-61962126D01*
X139176960Y-61972753D01*
X139259002Y-62198160D01*
X139263652Y-62208132D01*
X139398447Y-62441603D01*
X139521656Y-62457823D01*
X140332290Y-61647191D01*
X140332290Y-61542809D01*
X139521656Y-60732177D01*
X139398447Y-60748397D01*
X139263652Y-60981868D01*
X139259002Y-60991840D01*
X139176960Y-61217247D01*
X139174113Y-61227874D01*
X139132459Y-61464103D01*
X139131500Y-61475064D01*
X137965247Y-61475064D01*
X138108873Y-61378187D01*
X138115808Y-61372769D01*
X138331041Y-61178972D01*
X138337154Y-61172642D01*
X138523323Y-60950776D01*
X138528495Y-60943656D01*
X138681974Y-60698039D01*
X138686105Y-60690269D01*
X138748041Y-60551156D01*
X139702677Y-60551156D01*
X140513309Y-61361790D01*
X140617691Y-61361790D01*
X141428323Y-60551156D01*
X141412103Y-60427947D01*
X141178632Y-60293152D01*
X141168660Y-60288502D01*
X140943253Y-60206460D01*
X140932626Y-60203613D01*
X140696397Y-60161959D01*
X140685436Y-60161000D01*
X140445564Y-60161000D01*
X140434603Y-60161959D01*
X140198374Y-60203613D01*
X140187747Y-60206460D01*
X139962340Y-60288502D01*
X139952368Y-60293152D01*
X139718897Y-60427947D01*
X139702677Y-60551156D01*
X138748041Y-60551156D01*
X138803906Y-60425682D01*
X138806916Y-60417413D01*
X138886748Y-60139007D01*
X138888577Y-60130399D01*
X138928886Y-59843592D01*
X138929500Y-59834813D01*
X138929500Y-59545187D01*
X138928886Y-59536408D01*
X138888577Y-59249601D01*
X138886748Y-59240993D01*
X138806916Y-58962587D01*
X138803906Y-58954318D01*
X138686105Y-58689731D01*
X138681974Y-58681961D01*
X138528495Y-58436344D01*
X138523323Y-58429224D01*
X138337154Y-58207358D01*
X138331041Y-58201028D01*
X138115808Y-58007231D01*
X138108873Y-58001813D01*
X137868763Y-57839856D01*
X137861141Y-57835456D01*
X137600827Y-57708492D01*
X137592668Y-57705196D01*
X137317216Y-57615696D01*
X137308678Y-57613567D01*
X137023453Y-57563274D01*
X137014701Y-57562354D01*
X136725251Y-57552246D01*
X136716456Y-57552553D01*
X136428416Y-57582828D01*
X136419750Y-57584356D01*
X136138728Y-57654422D01*
X136130358Y-57657142D01*
X135861821Y-57765638D01*
X135853911Y-57769496D01*
X135603088Y-57914309D01*
X135595793Y-57919230D01*
X135560800Y-57946569D01*
X135560800Y-57585925D01*
X135613809Y-57592246D01*
X135698500Y-57517054D01*
X135698500Y-56208809D01*
X135954500Y-56208809D01*
X135954500Y-57519301D01*
X136047912Y-57594944D01*
X136282545Y-57545070D01*
X136292450Y-57542099D01*
X136527628Y-57449933D01*
X136536915Y-57445384D01*
X136753882Y-57316046D01*
X136762301Y-57310041D01*
X136955230Y-57147003D01*
X136962555Y-57139703D01*
X137126266Y-56947344D01*
X137132301Y-56938946D01*
X137262395Y-56722431D01*
X137266977Y-56713161D01*
X137359963Y-56478306D01*
X137362970Y-56468411D01*
X137414785Y-56228753D01*
X137339136Y-56135000D01*
X136028309Y-56135000D01*
X135954500Y-56208809D01*
X135698500Y-56208809D01*
X135698500Y-55879000D01*
X137336134Y-55879000D01*
X137411619Y-55789991D01*
X137383674Y-55621196D01*
X137381155Y-55611166D01*
X137299753Y-55372050D01*
X137295630Y-55362566D01*
X137232055Y-55244000D01*
X148667009Y-55244000D01*
X148665980Y-58656365D01*
G37*
X148665980Y-58656365D02*
X148528495Y-58436344D01*
X148523323Y-58429224D01*
X148337154Y-58207358D01*
X148331041Y-58201028D01*
X148115808Y-58007231D01*
X148108873Y-58001813D01*
X147868763Y-57839856D01*
X147861141Y-57835456D01*
X147600827Y-57708492D01*
X147592668Y-57705196D01*
X147317216Y-57615696D01*
X147308678Y-57613567D01*
X147023453Y-57563274D01*
X147014701Y-57562354D01*
X146725251Y-57552246D01*
X146716456Y-57552553D01*
X146428416Y-57582828D01*
X146419750Y-57584356D01*
X146138728Y-57654422D01*
X146130358Y-57657142D01*
X145861821Y-57765638D01*
X145853911Y-57769496D01*
X145603088Y-57914309D01*
X145595793Y-57919230D01*
X145367564Y-58097542D01*
X145361025Y-58103430D01*
X145159834Y-58311769D01*
X145154177Y-58318510D01*
X144983939Y-58552823D01*
X144979275Y-58560286D01*
X144843305Y-58816011D01*
X144839726Y-58824050D01*
X144740667Y-59096209D01*
X144738241Y-59104668D01*
X144678025Y-59387965D01*
X144676800Y-59396680D01*
X144656597Y-59685600D01*
X144656597Y-59694400D01*
X144676800Y-59983320D01*
X144678025Y-59992035D01*
X144738241Y-60275332D01*
X144740667Y-60283791D01*
X144839726Y-60555950D01*
X144843305Y-60563989D01*
X144979275Y-60819714D01*
X144983939Y-60827177D01*
X145154177Y-61061490D01*
X145159834Y-61068231D01*
X145361025Y-61276570D01*
X145367564Y-61282458D01*
X145595793Y-61460770D01*
X145603088Y-61465691D01*
X145853911Y-61610504D01*
X145861821Y-61614362D01*
X146130358Y-61722858D01*
X146138728Y-61725578D01*
X146419750Y-61795644D01*
X146428416Y-61797172D01*
X146716456Y-61827447D01*
X146725251Y-61827754D01*
X147014701Y-61817646D01*
X147023453Y-61816726D01*
X147308678Y-61766433D01*
X147317216Y-61764304D01*
X147592668Y-61674804D01*
X147600827Y-61671508D01*
X147861141Y-61544544D01*
X147868763Y-61540144D01*
X148108873Y-61378187D01*
X148115808Y-61372769D01*
X148331041Y-61178972D01*
X148337154Y-61172642D01*
X148523323Y-60950776D01*
X148528495Y-60943656D01*
X148665356Y-60724634D01*
X148660815Y-75776633D01*
X148658913Y-75774366D01*
X148651134Y-75766587D01*
X148467381Y-75612399D01*
X148458368Y-75606088D01*
X148250632Y-75486152D01*
X148240660Y-75481502D01*
X148015253Y-75399460D01*
X148004626Y-75396613D01*
X147768397Y-75354959D01*
X147757436Y-75354000D01*
X147517564Y-75354000D01*
X147506603Y-75354959D01*
X147393286Y-75374940D01*
X144397401Y-72379056D01*
X144388215Y-72364497D01*
X144376579Y-72350825D01*
X144313163Y-72294818D01*
X144293189Y-72274843D01*
X144286414Y-72268970D01*
X144269776Y-72256500D01*
X144212725Y-72206114D01*
X144197720Y-72196257D01*
X144175434Y-72185793D01*
X144155737Y-72171031D01*
X144139989Y-72162410D01*
X144096799Y-72146219D01*
X144056912Y-72077132D01*
X144050601Y-72068119D01*
X143896413Y-71884366D01*
X143888634Y-71876587D01*
X143704881Y-71722399D01*
X143695868Y-71716088D01*
X143488132Y-71596152D01*
X143478160Y-71591502D01*
X143252753Y-71509460D01*
X143242126Y-71506613D01*
X143005897Y-71464959D01*
X142994936Y-71464000D01*
X142755064Y-71464000D01*
X142744103Y-71464959D01*
X142507874Y-71506613D01*
X142497247Y-71509460D01*
X142271840Y-71591502D01*
X142261868Y-71596152D01*
X142054132Y-71716088D01*
X142045119Y-71722399D01*
X141861366Y-71876587D01*
X141853587Y-71884366D01*
X141699399Y-72068119D01*
X141693088Y-72077132D01*
X141614954Y-72212464D01*
X139532601Y-70130111D01*
X139532601Y-68266106D01*
X139711545Y-68228070D01*
X139721450Y-68225099D01*
X139956628Y-68132933D01*
X139965915Y-68128384D01*
X140182882Y-67999046D01*
X140191301Y-67993041D01*
X140384230Y-67830003D01*
X140391555Y-67822703D01*
X140526560Y-67664073D01*
X140579538Y-67736458D01*
X140586309Y-67744275D01*
X140766780Y-67921004D01*
X140774737Y-67927610D01*
X140981648Y-68072492D01*
X140990577Y-68077710D01*
X141218373Y-68186851D01*
X141228035Y-68190540D01*
X141470598Y-68261012D01*
X141480732Y-68263073D01*
X141731548Y-68292981D01*
X141741882Y-68293360D01*
X141994214Y-68281902D01*
X142004472Y-68280588D01*
X142251545Y-68228070D01*
X142261450Y-68225099D01*
X142496628Y-68132933D01*
X142505915Y-68128384D01*
X142722882Y-67999046D01*
X142731301Y-67993041D01*
X142799174Y-67935684D01*
X142805437Y-67959059D01*
X142818180Y-67983539D01*
X142949290Y-68139790D01*
X142966179Y-68153961D01*
X143140420Y-68254559D01*
X143161137Y-68262100D01*
X143353838Y-68296078D01*
X143364799Y-68297037D01*
X144864702Y-68297037D01*
X144864702Y-68416000D01*
X144787064Y-68416000D01*
X144776103Y-68416959D01*
X144539874Y-68458613D01*
X144529247Y-68461460D01*
X144303840Y-68543502D01*
X144293868Y-68548152D01*
X144086132Y-68668088D01*
X144077119Y-68674399D01*
X143893366Y-68828587D01*
X143885587Y-68836366D01*
X143731399Y-69020119D01*
X143725088Y-69029132D01*
X143605152Y-69236868D01*
X143600502Y-69246840D01*
X143518460Y-69472247D01*
X143515613Y-69482874D01*
X143473959Y-69719103D01*
X143473000Y-69730064D01*
X143473000Y-69969936D01*
X143473959Y-69980897D01*
X143515613Y-70217126D01*
X143518460Y-70227753D01*
X143600502Y-70453160D01*
X143605152Y-70463132D01*
X143725088Y-70670868D01*
X143731399Y-70679881D01*
X143885587Y-70863634D01*
X143893366Y-70871413D01*
X144077119Y-71025601D01*
X144086132Y-71031912D01*
X144293868Y-71151848D01*
X144303840Y-71156498D01*
X144529247Y-71238540D01*
X144539874Y-71241387D01*
X144776103Y-71283041D01*
X144787064Y-71284000D01*
X145026936Y-71284000D01*
X145037897Y-71283041D01*
X145274126Y-71241387D01*
X145284753Y-71238540D01*
X145510160Y-71156498D01*
X145520132Y-71151848D01*
X145727868Y-71031912D01*
X145736881Y-71025601D01*
X145920634Y-70871413D01*
X145928413Y-70863634D01*
X146082601Y-70679881D01*
X146088912Y-70670868D01*
X146208848Y-70463132D01*
X146213498Y-70453160D01*
X146295540Y-70227753D01*
X146298387Y-70217126D01*
X146340041Y-69980897D01*
X146341000Y-69969936D01*
X146341000Y-69746491D01*
X146427143Y-69660348D01*
X146469879Y-69627556D01*
X146481558Y-69615877D01*
X146622217Y-69432566D01*
X146630476Y-69418262D01*
X146718897Y-69204792D01*
X146723172Y-69188838D01*
X146745223Y-69021343D01*
X146753331Y-68959758D01*
X146753331Y-68943241D01*
X146746301Y-68889844D01*
X146746301Y-64396657D01*
X146753331Y-64343260D01*
X146753331Y-64326743D01*
X146723172Y-64097661D01*
X146718897Y-64081707D01*
X146635214Y-63879680D01*
X146629853Y-63863886D01*
X146481558Y-63670623D01*
X146469879Y-63658944D01*
X146427140Y-63626149D01*
X144507337Y-61706347D01*
X144507337Y-60786742D01*
X144505181Y-60770366D01*
X144430363Y-60491142D01*
X144417620Y-60466662D01*
X144286510Y-60310410D01*
X144269621Y-60296239D01*
X144095380Y-60195641D01*
X144074663Y-60188100D01*
X143881962Y-60154122D01*
X143871001Y-60153163D01*
X142257242Y-60153163D01*
X142240866Y-60155319D01*
X141961642Y-60230137D01*
X141937162Y-60242880D01*
X141780910Y-60373990D01*
X141766739Y-60390879D01*
X141666141Y-60565120D01*
X141658600Y-60585837D01*
X141632265Y-60735194D01*
X141609344Y-60732177D01*
X140798710Y-61542809D01*
X140798710Y-61647191D01*
X141609344Y-62457823D01*
X141635142Y-62454427D01*
X141700637Y-62698859D01*
X141713380Y-62723339D01*
X141844490Y-62879590D01*
X141861379Y-62893761D01*
X142035620Y-62994359D01*
X142056337Y-63001900D01*
X142249038Y-63035878D01*
X142259999Y-63036837D01*
X143176847Y-63036837D01*
X144864701Y-64724692D01*
X144864701Y-65082963D01*
X143362042Y-65082963D01*
X143345666Y-65085119D01*
X143066442Y-65159937D01*
X143041962Y-65172680D01*
X142885710Y-65303790D01*
X142871539Y-65320679D01*
X142801731Y-65441590D01*
X142793837Y-65434229D01*
X142785721Y-65427819D01*
X142575332Y-65288036D01*
X142566278Y-65283038D01*
X142335883Y-65179495D01*
X142326134Y-65176043D01*
X142081923Y-65111519D01*
X142071742Y-65109706D01*
X141820270Y-65085935D01*
X141809929Y-65085808D01*
X141557951Y-65103429D01*
X141547729Y-65104993D01*
X141302013Y-65163531D01*
X141292183Y-65166743D01*
X141059327Y-65264627D01*
X141050154Y-65269402D01*
X140836412Y-65404003D01*
X140828142Y-65410212D01*
X140639254Y-65577914D01*
X140632109Y-65585391D01*
X140525127Y-65717503D01*
X140445531Y-65614146D01*
X140438572Y-65606497D01*
X140253837Y-65434229D01*
X140245721Y-65427819D01*
X140035332Y-65288036D01*
X140026278Y-65283038D01*
X139795883Y-65179495D01*
X139786134Y-65176043D01*
X139541923Y-65111519D01*
X139531742Y-65109706D01*
X139280270Y-65085935D01*
X139269929Y-65085808D01*
X139017951Y-65103429D01*
X139007729Y-65104993D01*
X138762013Y-65163531D01*
X138752183Y-65166743D01*
X138519327Y-65264627D01*
X138510154Y-65269402D01*
X138296412Y-65404003D01*
X138288142Y-65410212D01*
X138099254Y-65577914D01*
X138092109Y-65585391D01*
X137933147Y-65781693D01*
X137927320Y-65790236D01*
X137802554Y-66009864D01*
X137798199Y-66019244D01*
X137793717Y-66031427D01*
X135849768Y-64087478D01*
X135939110Y-63998137D01*
X135945540Y-63990608D01*
X136100131Y-63777832D01*
X136105304Y-63769390D01*
X136224706Y-63535050D01*
X136228495Y-63525902D01*
X136309768Y-63275769D01*
X136312079Y-63266141D01*
X136353223Y-63006373D01*
X136354000Y-62996503D01*
X136354000Y-62733497D01*
X136353223Y-62723627D01*
X136339795Y-62638844D01*
X139702677Y-62638844D01*
X139718897Y-62762053D01*
X139952368Y-62896848D01*
X139962340Y-62901498D01*
X140187747Y-62983540D01*
X140198374Y-62986387D01*
X140434603Y-63028041D01*
X140445564Y-63029000D01*
X140685436Y-63029000D01*
X140696397Y-63028041D01*
X140932626Y-62986387D01*
X140943253Y-62983540D01*
X141168660Y-62901498D01*
X141178632Y-62896848D01*
X141412103Y-62762053D01*
X141428323Y-62638844D01*
X140617691Y-61828210D01*
X140513309Y-61828210D01*
X139702677Y-62638844D01*
X136339795Y-62638844D01*
X136312079Y-62463859D01*
X136309768Y-62454231D01*
X136228495Y-62204098D01*
X136224706Y-62194950D01*
X136105304Y-61960610D01*
X136100131Y-61952168D01*
X135945540Y-61739392D01*
X135939110Y-61731863D01*
X135768355Y-61561108D01*
X135853911Y-61610504D01*
X135861821Y-61614362D01*
X136130358Y-61722858D01*
X136138728Y-61725578D01*
X136419750Y-61795644D01*
X136428416Y-61797172D01*
X136716456Y-61827447D01*
X136725251Y-61827754D01*
X137014701Y-61817646D01*
X137023453Y-61816726D01*
X137308678Y-61766433D01*
X137317216Y-61764304D01*
X137592668Y-61674804D01*
X137600827Y-61671508D01*
X137861141Y-61544544D01*
X137868763Y-61540144D01*
X137965247Y-61475064D01*
X139131500Y-61475064D01*
X139131500Y-61714936D01*
X139132459Y-61725897D01*
X139174113Y-61962126D01*
X139176960Y-61972753D01*
X139259002Y-62198160D01*
X139263652Y-62208132D01*
X139398447Y-62441603D01*
X139521656Y-62457823D01*
X140332290Y-61647191D01*
X140332290Y-61542809D01*
X139521656Y-60732177D01*
X139398447Y-60748397D01*
X139263652Y-60981868D01*
X139259002Y-60991840D01*
X139176960Y-61217247D01*
X139174113Y-61227874D01*
X139132459Y-61464103D01*
X139131500Y-61475064D01*
X137965247Y-61475064D01*
X138108873Y-61378187D01*
X138115808Y-61372769D01*
X138331041Y-61178972D01*
X138337154Y-61172642D01*
X138523323Y-60950776D01*
X138528495Y-60943656D01*
X138681974Y-60698039D01*
X138686105Y-60690269D01*
X138748041Y-60551156D01*
X139702677Y-60551156D01*
X140513309Y-61361790D01*
X140617691Y-61361790D01*
X141428323Y-60551156D01*
X141412103Y-60427947D01*
X141178632Y-60293152D01*
X141168660Y-60288502D01*
X140943253Y-60206460D01*
X140932626Y-60203613D01*
X140696397Y-60161959D01*
X140685436Y-60161000D01*
X140445564Y-60161000D01*
X140434603Y-60161959D01*
X140198374Y-60203613D01*
X140187747Y-60206460D01*
X139962340Y-60288502D01*
X139952368Y-60293152D01*
X139718897Y-60427947D01*
X139702677Y-60551156D01*
X138748041Y-60551156D01*
X138803906Y-60425682D01*
X138806916Y-60417413D01*
X138886748Y-60139007D01*
X138888577Y-60130399D01*
X138928886Y-59843592D01*
X138929500Y-59834813D01*
X138929500Y-59545187D01*
X138928886Y-59536408D01*
X138888577Y-59249601D01*
X138886748Y-59240993D01*
X138806916Y-58962587D01*
X138803906Y-58954318D01*
X138686105Y-58689731D01*
X138681974Y-58681961D01*
X138528495Y-58436344D01*
X138523323Y-58429224D01*
X138337154Y-58207358D01*
X138331041Y-58201028D01*
X138115808Y-58007231D01*
X138108873Y-58001813D01*
X137868763Y-57839856D01*
X137861141Y-57835456D01*
X137600827Y-57708492D01*
X137592668Y-57705196D01*
X137317216Y-57615696D01*
X137308678Y-57613567D01*
X137023453Y-57563274D01*
X137014701Y-57562354D01*
X136725251Y-57552246D01*
X136716456Y-57552553D01*
X136428416Y-57582828D01*
X136419750Y-57584356D01*
X136138728Y-57654422D01*
X136130358Y-57657142D01*
X135861821Y-57765638D01*
X135853911Y-57769496D01*
X135603088Y-57914309D01*
X135595793Y-57919230D01*
X135560800Y-57946569D01*
X135560800Y-57585925D01*
X135613809Y-57592246D01*
X135698500Y-57517054D01*
X135698500Y-56208809D01*
X135954500Y-56208809D01*
X135954500Y-57519301D01*
X136047912Y-57594944D01*
X136282545Y-57545070D01*
X136292450Y-57542099D01*
X136527628Y-57449933D01*
X136536915Y-57445384D01*
X136753882Y-57316046D01*
X136762301Y-57310041D01*
X136955230Y-57147003D01*
X136962555Y-57139703D01*
X137126266Y-56947344D01*
X137132301Y-56938946D01*
X137262395Y-56722431D01*
X137266977Y-56713161D01*
X137359963Y-56478306D01*
X137362970Y-56468411D01*
X137414785Y-56228753D01*
X137339136Y-56135000D01*
X136028309Y-56135000D01*
X135954500Y-56208809D01*
X135698500Y-56208809D01*
X135698500Y-55879000D01*
X137336134Y-55879000D01*
X137411619Y-55789991D01*
X137383674Y-55621196D01*
X137381155Y-55611166D01*
X137299753Y-55372050D01*
X137295630Y-55362566D01*
X137232055Y-55244000D01*
X148667009Y-55244000D01*
X148665980Y-58656365D01*
%TD*%
M02*
