M48
; DRILL file {KiCad (5.99.0-1252-g0c2d08192)} date Wed Apr  8 11:46:12 2020
; FORMAT={-:-/ absolute / inch / decimal}
; #@! TF.CreationDate,2020-04-08T11:46:12+03:00
; #@! TF.GenerationSoftware,Kicad,Pcbnew,(5.99.0-1252-g0c2d08192)
; #@! TF.FileFunction,Plated,1,2,PTH
FMAT,2
INCH
T1C0.0315
T2C0.0354
T3C0.0433
T4C0.0787
%
G90
G05
T1
X4.792Y-2.6031
X4.792Y-2.8
X5.475Y-3.5725
X5.775Y-3.5725
X5.5575Y-3.695
X5.7544Y-3.695
X5.8125Y-3.0231
X5.8125Y-3.22
X4.9641Y-2.4225
X5.0625Y-2.4225
X4.9075Y-2.975
X4.9075Y-3.275
X4.79Y-3.0356
X4.79Y-3.2325
X5.028Y-2.975
X5.028Y-3.275
X5.15Y-3.025
X5.15Y-3.125
X5.15Y-3.225
X5.15Y-3.325
X5.45Y-3.025
X5.45Y-3.125
X5.45Y-3.225
X5.45Y-3.325
X4.894Y-2.748
X5.194Y-2.748
X5.6925Y-2.9725
X5.6925Y-3.2725
X5.5725Y-2.9725
X5.5725Y-3.2725
X5.475Y-3.4525
X5.775Y-3.4525
X5.405Y-2.75
X5.705Y-2.75
X4.894Y-2.868
X5.194Y-2.868
X5.5341Y-2.425
X5.6325Y-2.425
X5.4281Y-2.87
X5.625Y-2.87
T2
X4.9Y-3.69
X5.0Y-3.69
X5.25Y-3.52
X5.35Y-3.52
X4.9Y-3.44
X5.0Y-3.44
T3
X5.2475Y-2.205
X5.3475Y-2.205
X5.4825Y-2.6256
X5.5825Y-2.6256
X5.6825Y-2.6256
X5.3Y-2.475
X5.3Y-2.875
X4.9125Y-2.6256
X5.0125Y-2.6256
X5.1125Y-2.6256
X5.15Y-3.7325
X5.25Y-3.7325
X5.35Y-3.7325
X5.45Y-3.7325
T4
X5.3856Y-2.35
X5.7794Y-2.35
X4.8156Y-2.35
X5.2094Y-2.35
T0
M30
